<mxfile host="65bd71144e">
    <diagram id="Nd7_CFRV14rQpbXdipW8" name="Page-1">
        <mxGraphModel dx="1459" dy="1570" grid="1" gridSize="10" guides="1" tooltips="1" connect="1" arrows="1" fold="1" page="1" pageScale="1" pageWidth="850" pageHeight="1100" background="none" math="0" shadow="0">
            <root>
                <mxCell id="0"/>
                <mxCell id="1" parent="0"/>
                <mxCell id="GdU9TM8Ct2rXfRu2e6hb-13" style="edgeStyle=orthogonalEdgeStyle;rounded=0;orthogonalLoop=1;jettySize=auto;html=1;entryX=0.5;entryY=0;entryDx=0;entryDy=0;strokeWidth=6;" parent="1" source="fW3DbDXMhVstgkhlety4-16" target="fW3DbDXMhVstgkhlety4-19" edge="1">
                    <mxGeometry relative="1" as="geometry"/>
                </mxCell>
                <mxCell id="fW3DbDXMhVstgkhlety4-16" value="&lt;blockquote style=&quot;margin: 0 0 0 40px ; border: none ; padding: 0px&quot;&gt;&lt;span style=&quot;white-space: normal&quot;&gt;&lt;font style=&quot;font-size: 18px&quot;&gt;&lt;b&gt;Step 1&lt;/b&gt;&amp;nbsp;Define and refine search&amp;nbsp; &amp;nbsp; keywords&lt;/font&gt;&lt;/span&gt;&lt;/blockquote&gt;" style="rounded=0;whiteSpace=wrap;html=1;align=left;strokeWidth=6;" parent="1" vertex="1">
                    <mxGeometry y="-141.87" width="380" height="80" as="geometry"/>
                </mxCell>
                <mxCell id="bF6Con31p_uxn-oNIRWd-7" style="edgeStyle=orthogonalEdgeStyle;rounded=0;orthogonalLoop=1;jettySize=auto;html=1;entryX=0.5;entryY=0;entryDx=0;entryDy=0;strokeWidth=6;" parent="1" source="fW3DbDXMhVstgkhlety4-19" target="GdU9TM8Ct2rXfRu2e6hb-11" edge="1">
                    <mxGeometry relative="1" as="geometry"/>
                </mxCell>
                <mxCell id="fW3DbDXMhVstgkhlety4-19" value="&lt;blockquote style=&quot;margin: 0 0 0 40px ; border: none ; padding: 0px&quot;&gt;&lt;font style=&quot;font-size: 18px&quot;&gt;&lt;b&gt;Step 2&lt;/b&gt;&amp;nbsp;Apply search keywords to Google search engine&lt;/font&gt;&lt;/blockquote&gt;" style="rounded=0;whiteSpace=wrap;html=1;align=left;strokeWidth=6;" parent="1" vertex="1">
                    <mxGeometry y="50" width="380" height="80" as="geometry"/>
                </mxCell>
                <mxCell id="bF6Con31p_uxn-oNIRWd-8" style="edgeStyle=orthogonalEdgeStyle;rounded=0;orthogonalLoop=1;jettySize=auto;html=1;exitX=0.5;exitY=1;exitDx=0;exitDy=0;entryX=0.5;entryY=0;entryDx=0;entryDy=0;strokeWidth=6;" parent="1" source="GdU9TM8Ct2rXfRu2e6hb-11" target="bF6Con31p_uxn-oNIRWd-1" edge="1">
                    <mxGeometry relative="1" as="geometry"/>
                </mxCell>
                <mxCell id="GdU9TM8Ct2rXfRu2e6hb-11" value="&lt;blockquote style=&quot;margin: 0 0 0 40px ; border: none ; padding: 0px&quot;&gt;&lt;font style=&quot;font-size: 18px&quot;&gt;&lt;b&gt;Step 3&lt;/b&gt;&amp;nbsp;Export search results&lt;/font&gt;&lt;/blockquote&gt;" style="rounded=0;whiteSpace=wrap;html=1;align=left;strokeWidth=6;" parent="1" vertex="1">
                    <mxGeometry y="180" width="380" height="80" as="geometry"/>
                </mxCell>
                <mxCell id="bF6Con31p_uxn-oNIRWd-9" style="edgeStyle=orthogonalEdgeStyle;rounded=0;orthogonalLoop=1;jettySize=auto;html=1;exitX=0.5;exitY=1;exitDx=0;exitDy=0;entryX=0.5;entryY=0;entryDx=0;entryDy=0;strokeWidth=6;" parent="1" source="bF6Con31p_uxn-oNIRWd-1" target="bF6Con31p_uxn-oNIRWd-2" edge="1">
                    <mxGeometry relative="1" as="geometry"/>
                </mxCell>
                <mxCell id="bF6Con31p_uxn-oNIRWd-1" value="&lt;blockquote style=&quot;margin: 0 0 0 40px ; border: none ; padding: 0px&quot;&gt;&lt;font style=&quot;font-size: 18px&quot;&gt;&lt;b&gt;Step 4&lt;/b&gt;&amp;nbsp;Apply inclusion/exclusion criteria to Search Results Collection A&lt;/font&gt;&lt;/blockquote&gt;" style="rounded=0;whiteSpace=wrap;html=1;align=left;strokeWidth=6;" parent="1" vertex="1">
                    <mxGeometry y="305" width="380" height="90" as="geometry"/>
                </mxCell>
                <mxCell id="bF6Con31p_uxn-oNIRWd-10" style="edgeStyle=orthogonalEdgeStyle;rounded=0;orthogonalLoop=1;jettySize=auto;html=1;exitX=0.5;exitY=1;exitDx=0;exitDy=0;entryX=0.5;entryY=0;entryDx=0;entryDy=0;strokeWidth=6;" parent="1" source="bF6Con31p_uxn-oNIRWd-2" target="bF6Con31p_uxn-oNIRWd-3" edge="1">
                    <mxGeometry relative="1" as="geometry"/>
                </mxCell>
                <mxCell id="bF6Con31p_uxn-oNIRWd-2" value="&lt;blockquote style=&quot;margin: 0 0 0 40px ; border: none ; padding: 0px&quot;&gt;&lt;font style=&quot;font-size: 18px&quot;&gt;&lt;b&gt;Step 5&lt;/b&gt;&amp;nbsp; Identify Relevant URLs from Search Results Collection B&lt;/font&gt;&lt;/blockquote&gt;" style="rounded=0;whiteSpace=wrap;html=1;align=left;strokeWidth=6;" parent="1" vertex="1">
                    <mxGeometry y="450" width="380" height="80" as="geometry"/>
                </mxCell>
                <mxCell id="bF6Con31p_uxn-oNIRWd-3" value="&lt;blockquote style=&quot;margin: 0 0 0 40px ; border: none ; padding: 0px&quot;&gt;&lt;div&gt;&lt;b style=&quot;font-size: 18px&quot;&gt;Step 6&lt;/b&gt;&lt;span style=&quot;font-size: 18px&quot;&gt;&amp;nbsp; Extract Relevant Cases From&amp;nbsp;&lt;/span&gt;&lt;span style=&quot;font-size: 18px&quot;&gt;Document&lt;/span&gt;&lt;span style=&quot;font-size: 18px&quot;&gt;&amp;nbsp;Collection&lt;/span&gt;&lt;/div&gt;&lt;/blockquote&gt;" style="rounded=0;whiteSpace=wrap;html=1;align=left;strokeWidth=6;" parent="1" vertex="1">
                    <mxGeometry y="580" width="380" height="80" as="geometry"/>
                </mxCell>
                <mxCell id="bF6Con31p_uxn-oNIRWd-12" style="edgeStyle=orthogonalEdgeStyle;rounded=0;orthogonalLoop=1;jettySize=auto;html=1;exitX=0.5;exitY=1;exitDx=0;exitDy=0;entryX=0.5;entryY=0;entryDx=0;entryDy=0;strokeWidth=6;" parent="1" source="bF6Con31p_uxn-oNIRWd-4" target="bF6Con31p_uxn-oNIRWd-5" edge="1">
                    <mxGeometry relative="1" as="geometry"/>
                </mxCell>
                <mxCell id="bF6Con31p_uxn-oNIRWd-4" value="&lt;blockquote style=&quot;margin: 0 0 0 40px ; border: none ; padding: 0px&quot;&gt;&lt;font style=&quot;font-size: 18px&quot;&gt;&lt;b&gt;Step 10&lt;/b&gt;&amp;nbsp;Extract the relevant data from Case Collection C&lt;/font&gt;&lt;/blockquote&gt;" style="rounded=0;whiteSpace=wrap;html=1;align=left;strokeWidth=6;" parent="1" vertex="1">
                    <mxGeometry x="60" y="1170" width="365" height="80" as="geometry"/>
                </mxCell>
                <mxCell id="bF6Con31p_uxn-oNIRWd-13" style="edgeStyle=orthogonalEdgeStyle;rounded=0;orthogonalLoop=1;jettySize=auto;html=1;exitX=0.5;exitY=1;exitDx=0;exitDy=0;entryX=0.5;entryY=0;entryDx=0;entryDy=0;strokeWidth=6;" parent="1" source="bF6Con31p_uxn-oNIRWd-5" target="bF6Con31p_uxn-oNIRWd-6" edge="1">
                    <mxGeometry relative="1" as="geometry"/>
                </mxCell>
                <mxCell id="bF6Con31p_uxn-oNIRWd-5" value="&lt;blockquote style=&quot;margin: 0 0 0 40px ; border: none ; padding: 0px&quot;&gt;&lt;font style=&quot;font-size: 18px&quot;&gt;&lt;b&gt;Step 11&lt;/b&gt;&amp;nbsp;Coding Case Collection C to identify failure types&lt;/font&gt;&lt;/blockquote&gt;" style="rounded=0;whiteSpace=wrap;html=1;align=left;strokeWidth=6;" parent="1" vertex="1">
                    <mxGeometry x="62.5" y="1300" width="360" height="70" as="geometry"/>
                </mxCell>
                <mxCell id="bF6Con31p_uxn-oNIRWd-6" value="&lt;blockquote style=&quot;margin: 0 0 0 40px ; border: none ; padding: 0px&quot;&gt;&lt;font style=&quot;font-size: 18px&quot;&gt;&lt;b&gt;&amp;nbsp;Step 12&amp;nbsp;&lt;/b&gt;Group Sventeen Failure Factors&lt;/font&gt;&lt;/blockquote&gt;" style="rounded=0;whiteSpace=wrap;html=1;align=left;strokeWidth=6;" parent="1" vertex="1">
                    <mxGeometry x="65" y="1410" width="355" height="90" as="geometry"/>
                </mxCell>
                <mxCell id="bF6Con31p_uxn-oNIRWd-15" value="&lt;blockquote style=&quot;margin: 0 0 0 40px ; border: none ; padding: 0px&quot;&gt;&lt;font style=&quot;font-size: 18px&quot;&gt;&lt;b&gt;Step 3 &lt;/b&gt;Resulted:&lt;br&gt;Search Results Collection A:&lt;br&gt;&lt;/font&gt;&lt;font style=&quot;font-size: 18px&quot;&gt;580 URLs&lt;/font&gt;&lt;/blockquote&gt;" style="rounded=0;whiteSpace=wrap;html=1;align=left;strokeWidth=6;" parent="1" vertex="1">
                    <mxGeometry x="560" y="180" width="440" height="80" as="geometry"/>
                </mxCell>
                <mxCell id="bF6Con31p_uxn-oNIRWd-16" value="&lt;blockquote style=&quot;margin: 0 0 0 40px ; border: none ; padding: 0px&quot;&gt;&lt;font style=&quot;font-size: 18px&quot;&gt;&lt;b&gt;Step 4 &lt;/b&gt;Resulted:&lt;br&gt;Search Results Collection B:&lt;br&gt;&lt;/font&gt;&lt;font style=&quot;font-size: 18px&quot;&gt;122 URLs&lt;/font&gt;&lt;/blockquote&gt;" style="rounded=0;whiteSpace=wrap;html=1;align=left;strokeWidth=6;" parent="1" vertex="1">
                    <mxGeometry x="560" y="305" width="440" height="80" as="geometry"/>
                </mxCell>
                <mxCell id="bF6Con31p_uxn-oNIRWd-19" value="&lt;blockquote style=&quot;margin: 0 0 0 40px ; border: none ; padding: 0px&quot;&gt;&lt;font style=&quot;font-size: 18px&quot;&gt;&lt;b&gt;Step 5 &lt;/b&gt;Resulted:&lt;br&gt;Relevant Document Collection&amp;nbsp;&lt;br&gt;&lt;/font&gt;&lt;font style=&quot;font-size: 18px&quot;&gt;70 Documents&lt;/font&gt;&lt;/blockquote&gt;" style="rounded=0;whiteSpace=wrap;html=1;align=left;strokeWidth=6;" parent="1" vertex="1">
                    <mxGeometry x="560" y="450" width="440" height="80" as="geometry"/>
                </mxCell>
                <mxCell id="hJ8yra2tZuNN3HJui-E2-54" style="edgeStyle=orthogonalEdgeStyle;rounded=0;orthogonalLoop=1;jettySize=auto;html=1;exitX=0.5;exitY=1;exitDx=0;exitDy=0;strokeWidth=6;" parent="1" source="bF6Con31p_uxn-oNIRWd-20" target="hJ8yra2tZuNN3HJui-E2-2" edge="1">
                    <mxGeometry relative="1" as="geometry">
                        <Array as="points">
                            <mxPoint x="970" y="640"/>
                            <mxPoint x="970" y="830"/>
                            <mxPoint x="243" y="830"/>
                        </Array>
                    </mxGeometry>
                </mxCell>
                <mxCell id="bF6Con31p_uxn-oNIRWd-20" value="&lt;blockquote style=&quot;margin: 0 0 0 40px ; border: none ; padding: 0px&quot;&gt;&lt;font style=&quot;font-size: 18px&quot;&gt;&lt;b&gt;Step 6 &lt;/b&gt;Resulted:&lt;br&gt;Case Collection A:&lt;br&gt;&lt;/font&gt;&lt;font style=&quot;font-size: 18px&quot;&gt;18 Cases&lt;/font&gt;&lt;/blockquote&gt;" style="rounded=0;whiteSpace=wrap;html=1;align=left;strokeWidth=6;" parent="1" vertex="1">
                    <mxGeometry x="560" y="580" width="440" height="80" as="geometry"/>
                </mxCell>
                <mxCell id="hJ8yra2tZuNN3HJui-E2-55" style="edgeStyle=orthogonalEdgeStyle;rounded=0;orthogonalLoop=1;jettySize=auto;html=1;exitX=0.5;exitY=1;exitDx=0;exitDy=0;strokeWidth=6;" parent="1" source="hJ8yra2tZuNN3HJui-E2-1" target="hJ8yra2tZuNN3HJui-E2-2" edge="1">
                    <mxGeometry relative="1" as="geometry">
                        <Array as="points">
                            <mxPoint x="180" y="765"/>
                            <mxPoint x="180" y="830"/>
                            <mxPoint x="243" y="830"/>
                        </Array>
                    </mxGeometry>
                </mxCell>
                <mxCell id="hJ8yra2tZuNN3HJui-E2-1" value="&lt;blockquote style=&quot;margin: 0 0 0 40px ; border: none ; padding: 0px&quot;&gt;&lt;font style=&quot;font-size: 18px&quot;&gt;&lt;b&gt;Step 7&lt;/b&gt;&amp;nbsp;Include Cases from CB-Insights&lt;/font&gt;&lt;/blockquote&gt;&lt;font style=&quot;font-size: 18px&quot;&gt;&lt;br&gt;&lt;/font&gt;" style="rounded=0;whiteSpace=wrap;html=1;align=left;strokeWidth=6;" parent="1" vertex="1">
                    <mxGeometry y="700" width="382.5" height="80" as="geometry"/>
                </mxCell>
                <mxCell id="hJ8yra2tZuNN3HJui-E2-13" style="edgeStyle=orthogonalEdgeStyle;rounded=0;orthogonalLoop=1;jettySize=auto;html=1;entryX=0.5;entryY=0;entryDx=0;entryDy=0;strokeWidth=6;" parent="1" source="hJ8yra2tZuNN3HJui-E2-2" target="hJ8yra2tZuNN3HJui-E2-10" edge="1">
                    <mxGeometry relative="1" as="geometry"/>
                </mxCell>
                <mxCell id="hJ8yra2tZuNN3HJui-E2-2" value="&lt;blockquote style=&quot;margin: 0 0 0 40px ; border: none ; padding: 0px&quot;&gt;&lt;font style=&quot;font-size: 18px&quot;&gt;&lt;b&gt;Step 8&amp;nbsp; &lt;/b&gt;Add Case Collection B to Case Collection A&lt;/font&gt;&lt;/blockquote&gt;" style="rounded=0;whiteSpace=wrap;html=1;align=left;strokeWidth=6;" parent="1" vertex="1">
                    <mxGeometry x="67.5" y="900" width="350" height="80" as="geometry"/>
                </mxCell>
                <mxCell id="hJ8yra2tZuNN3HJui-E2-14" style="edgeStyle=orthogonalEdgeStyle;rounded=0;orthogonalLoop=1;jettySize=auto;html=1;entryX=0.5;entryY=0;entryDx=0;entryDy=0;strokeWidth=6;" parent="1" source="hJ8yra2tZuNN3HJui-E2-10" target="bF6Con31p_uxn-oNIRWd-4" edge="1">
                    <mxGeometry relative="1" as="geometry"/>
                </mxCell>
                <mxCell id="hJ8yra2tZuNN3HJui-E2-10" value="&lt;blockquote style=&quot;margin: 0 0 0 40px ; border: none ; padding: 0px&quot;&gt;&lt;p&gt;&lt;span style=&quot;font-size: 18px&quot;&gt;&lt;b&gt;Step 9&lt;/b&gt;&amp;nbsp;&lt;/span&gt;&lt;span style=&quot;font-size: 18px&quot;&gt;Merge the&amp;nbsp;&amp;nbsp;Duplicate&amp;nbsp;Cases in&lt;br&gt;&lt;/span&gt;&lt;span style=&quot;font-size: 18px&quot;&gt;Case Collection G&lt;/span&gt;&lt;/p&gt;&lt;/blockquote&gt;" style="rounded=0;whiteSpace=wrap;html=1;align=left;strokeWidth=6;" parent="1" vertex="1">
                    <mxGeometry x="67.5" y="1030" width="350" height="100" as="geometry"/>
                </mxCell>
                <mxCell id="hJ8yra2tZuNN3HJui-E2-16" value="" style="ellipse;whiteSpace=wrap;html=1;strokeWidth=6;" parent="1" vertex="1">
                    <mxGeometry x="-140" y="-400" width="120" height="80" as="geometry"/>
                </mxCell>
                <mxCell id="hJ8yra2tZuNN3HJui-E2-17" value="" style="ellipse;whiteSpace=wrap;html=1;strokeWidth=6;" parent="1" vertex="1">
                    <mxGeometry x="1100" y="1590" width="120" height="80" as="geometry"/>
                </mxCell>
                <mxCell id="hJ8yra2tZuNN3HJui-E2-18" value="&lt;blockquote style=&quot;margin: 0 0 0 40px ; border: none ; padding: 0px&quot;&gt;&lt;span style=&quot;font-size: 18px&quot;&gt;&lt;b&gt;Step 8 &lt;/b&gt;Resulted:&lt;br&gt;Case Collection G&lt;br&gt;&lt;/span&gt;&lt;span style=&quot;font-size: 18px&quot;&gt;42 Case&lt;/span&gt;&lt;/blockquote&gt;" style="rounded=0;whiteSpace=wrap;html=1;align=left;strokeWidth=6;" parent="1" vertex="1">
                    <mxGeometry x="561" y="900" width="449" height="80" as="geometry"/>
                </mxCell>
                <mxCell id="hJ8yra2tZuNN3HJui-E2-19" value="&lt;blockquote style=&quot;margin: 0 0 0 40px ; border: none ; padding: 0px&quot;&gt;&lt;span style=&quot;font-size: 18px&quot;&gt;&lt;b&gt;Step 9 &lt;/b&gt;Resulted:&lt;br&gt;Case Collection C&lt;br&gt;&lt;/span&gt;&lt;span style=&quot;font-size: 18px&quot;&gt;38 cases&lt;/span&gt;&lt;/blockquote&gt;" style="rounded=0;whiteSpace=wrap;html=1;align=left;strokeWidth=6;" parent="1" vertex="1">
                    <mxGeometry x="561" y="1035" width="449" height="90" as="geometry"/>
                </mxCell>
                <mxCell id="hJ8yra2tZuNN3HJui-E2-23" value="&lt;blockquote style=&quot;margin: 0 0 0 40px ; border: none ; padding: 0px&quot;&gt;&lt;span style=&quot;font-size: 18px&quot;&gt;&lt;b&gt;Step 10 &lt;/b&gt;Resulted:&lt;br&gt;Hardware Startups Information&lt;br&gt;&lt;/span&gt;&lt;span style=&quot;font-size: 18px&quot;&gt;About, Fate-Stage, Founder Key-People,&lt;br&gt;&lt;/span&gt;&lt;span style=&quot;font-size: 18px&quot;&gt;Website, Raised CAP, Location...etc.&lt;/span&gt;&lt;/blockquote&gt;" style="rounded=0;whiteSpace=wrap;html=1;align=left;strokeWidth=6;" parent="1" vertex="1">
                    <mxGeometry x="556.5" y="1165" width="453.5" height="90" as="geometry"/>
                </mxCell>
                <mxCell id="hJ8yra2tZuNN3HJui-E2-25" value="&lt;blockquote style=&quot;margin: 0 0 0 40px ; border: none ; padding: 0px&quot;&gt;&lt;span style=&quot;font-size: 18px&quot;&gt;&lt;b&gt;Step 11 &lt;/b&gt;Resulted:&lt;br&gt;Seventeen Failure Factors&lt;/span&gt;&lt;/blockquote&gt;" style="rounded=0;whiteSpace=wrap;html=1;align=left;strokeWidth=6;" parent="1" vertex="1">
                    <mxGeometry x="556.5" y="1290" width="453.5" height="90" as="geometry"/>
                </mxCell>
                <mxCell id="hJ8yra2tZuNN3HJui-E2-27" value="&lt;blockquote style=&quot;margin: 0 0 0 40px ; border: none ; padding: 0px&quot;&gt;&lt;span style=&quot;font-size: 18px&quot;&gt;&lt;b&gt;Step 12 &lt;/b&gt;Resulted:&lt;br&gt;Five Major Categories&amp;nbsp;&lt;/span&gt;&lt;/blockquote&gt;" style="rounded=0;whiteSpace=wrap;html=1;align=left;strokeWidth=6;" parent="1" vertex="1">
                    <mxGeometry x="556.5" y="1410" width="453.5" height="90" as="geometry"/>
                </mxCell>
                <mxCell id="hJ8yra2tZuNN3HJui-E2-29" value="&lt;blockquote style=&quot;margin: 0 0 0 40px ; border: none ; padding: 0px&quot;&gt;&lt;font style=&quot;font-size: 18px&quot;&gt;&lt;b&gt;Step 7&amp;nbsp;&lt;/b&gt;Resulted:&lt;br&gt;Case Collection B&lt;br&gt;&lt;/font&gt;&lt;font style=&quot;font-size: 18px&quot;&gt;24 Cases&lt;/font&gt;&lt;/blockquote&gt;" style="rounded=0;whiteSpace=wrap;html=1;align=left;strokeWidth=6;" parent="1" vertex="1">
                    <mxGeometry x="520" y="700" width="420" height="80" as="geometry"/>
                </mxCell>
                <mxCell id="hJ8yra2tZuNN3HJui-E2-34" value="" style="endArrow=none;dashed=1;html=1;rounded=0;exitX=1;exitY=0.5;exitDx=0;exitDy=0;entryX=0;entryY=0.5;entryDx=0;entryDy=0;strokeWidth=6;" parent="1" source="bF6Con31p_uxn-oNIRWd-2" target="bF6Con31p_uxn-oNIRWd-19" edge="1">
                    <mxGeometry width="50" height="50" relative="1" as="geometry">
                        <mxPoint x="630" y="630" as="sourcePoint"/>
                        <mxPoint x="680" y="580" as="targetPoint"/>
                    </mxGeometry>
                </mxCell>
                <mxCell id="hJ8yra2tZuNN3HJui-E2-35" value="" style="endArrow=none;dashed=1;html=1;rounded=0;exitX=1;exitY=0.5;exitDx=0;exitDy=0;entryX=0;entryY=0.5;entryDx=0;entryDy=0;strokeWidth=6;" parent="1" source="bF6Con31p_uxn-oNIRWd-3" target="bF6Con31p_uxn-oNIRWd-20" edge="1">
                    <mxGeometry width="50" height="50" relative="1" as="geometry">
                        <mxPoint x="630" y="630" as="sourcePoint"/>
                        <mxPoint x="680" y="580" as="targetPoint"/>
                    </mxGeometry>
                </mxCell>
                <mxCell id="hJ8yra2tZuNN3HJui-E2-38" value="" style="endArrow=none;dashed=1;html=1;rounded=0;entryX=0;entryY=0.5;entryDx=0;entryDy=0;strokeWidth=6;" parent="1" source="hJ8yra2tZuNN3HJui-E2-1" target="hJ8yra2tZuNN3HJui-E2-29" edge="1">
                    <mxGeometry width="50" height="50" relative="1" as="geometry">
                        <mxPoint x="630" y="540" as="sourcePoint"/>
                        <mxPoint x="680" y="490" as="targetPoint"/>
                    </mxGeometry>
                </mxCell>
                <mxCell id="hJ8yra2tZuNN3HJui-E2-39" value="" style="endArrow=none;dashed=1;html=1;rounded=0;strokeWidth=6;" parent="1" source="bF6Con31p_uxn-oNIRWd-1" target="bF6Con31p_uxn-oNIRWd-16" edge="1">
                    <mxGeometry width="50" height="50" relative="1" as="geometry">
                        <mxPoint x="390" y="344.16999999999996" as="sourcePoint"/>
                        <mxPoint x="669.5" y="344.16999999999996" as="targetPoint"/>
                    </mxGeometry>
                </mxCell>
                <mxCell id="hJ8yra2tZuNN3HJui-E2-42" value="" style="endArrow=none;dashed=1;html=1;rounded=0;exitX=1;exitY=0.5;exitDx=0;exitDy=0;strokeWidth=6;" parent="1" source="GdU9TM8Ct2rXfRu2e6hb-11" target="bF6Con31p_uxn-oNIRWd-15" edge="1">
                    <mxGeometry width="50" height="50" relative="1" as="geometry">
                        <mxPoint x="630" y="540" as="sourcePoint"/>
                        <mxPoint x="680" y="490" as="targetPoint"/>
                    </mxGeometry>
                </mxCell>
                <mxCell id="EhRYF7mU_J7_hkxxjcA5-7" style="edgeStyle=orthogonalEdgeStyle;rounded=0;orthogonalLoop=1;jettySize=auto;html=1;exitX=0.5;exitY=1;exitDx=0;exitDy=0;" parent="1" edge="1">
                    <mxGeometry relative="1" as="geometry">
                        <mxPoint x="242.5" y="1630" as="sourcePoint"/>
                    </mxGeometry>
                </mxCell>
                <mxCell id="yQwov3TaZiDcLpNl11WS-1" value="&lt;blockquote style=&quot;margin: 0 0 0 40px ; border: none ; padding: 0px&quot;&gt;&lt;br&gt;&lt;font style=&quot;color: rgb(0 , 0 , 0) ; font-family: &amp;#34;helvetica&amp;#34; ; font-style: normal ; font-weight: 400 ; letter-spacing: normal ; text-align: left ; text-indent: 0px ; text-transform: none ; word-spacing: 0px ; background-color: rgb(248 , 249 , 250) ; font-size: 18px&quot;&gt;&lt;b&gt;Step 1&amp;nbsp;&amp;nbsp;&lt;/b&gt;Resulted:&lt;br&gt;&lt;/font&gt;&lt;br&gt;&lt;/blockquote&gt;&lt;blockquote style=&quot;margin: 0 0 0 40px ; border: none ; padding: 0px&quot;&gt;&lt;br&gt;&lt;/blockquote&gt;&lt;br&gt;&lt;br&gt;&lt;br&gt;&lt;br&gt;&lt;br&gt;&lt;br&gt;&lt;br&gt;&lt;br&gt;&lt;br&gt;&lt;br&gt;&lt;br&gt;&lt;br&gt;" style="rounded=0;whiteSpace=wrap;html=1;align=left;strokeWidth=6;" parent="1" vertex="1">
                    <mxGeometry x="560" y="-236.87" width="440" height="266.87" as="geometry"/>
                </mxCell>
                <mxCell id="yQwov3TaZiDcLpNl11WS-3" value="" style="shape=image;verticalLabelPosition=bottom;labelBackgroundColor=default;verticalAlign=top;aspect=fixed;imageAspect=0;image=data:image/jpeg,/9j/4AAQSkZJRgABAQEAkACQAAD/4RD0RXhpZgAATU0AKgAAAAgABAE7AAIAAAAOAAAISodpAAQAAAABAAAIWJydAAEAAAAcAAAQ0OocAAcAAAgMAAAAPgAAAAAc6gAAAAgAAAAAAAAAAAAAAAAAAAAAAAAAAAAAAAAAAAAAAAAAAAAAAAAAAAAAAAAAAAAAAAAAAAAAAAAAAAAAAAAAAAAAAAAAAAAAAAAAAAAAAAAAAAAAAAAAAAAAAAAAAAAAAAAAAAAAAAAAAAAAAAAAAAAAAAAAAAAAAAAAAAAAAAAAAAAAAAAAAAAAAAAAAAAAAAAAAAAAAAAAAAAAAAAAAAAAAAAAAAAAAAAAAAAAAAAAAAAAAAAAAAAAAAAAAAAAAAAAAAAAAAAAAAAAAAAAAAAAAAAAAAAAAAAAAAAAAAAAAAAAAAAAAAAAAAAAAAAAAAAAAAAAAAAAAAAAAAAAAAAAAAAAAAAAAAAAAAAAAAAAAAAAAAAAAAAAAAAAAAAAAAAAAAAAAAAAAAAAAAAAAAAAAAAAAAAAAAAAAAAAAAAAAAAAAAAAAAAAAAAAAAAAAAAAAAAAAAAAAAAAAAAAAAAAAAAAAAAAAAAAAAAAAAAAAAAAAAAAAAAAAAAAAAAAAAAAAAAAAAAAAAAAAAAAAAAAAAAAAAAAAAAAAAAAAAAAAAAAAAAAAAAAAAAAAAAAAAAAAAAAAAAAAAAAAAAAAAAAAAAAAAAAAAAAAAAAAAAAAAAAAAAAAAAAAAAAAAAAAAAAAAAAAAAAAAAAAAAAAAAAAAAAAAAAAAAAAAAAAAAAAAAAAAAAAAAAAAAAAAAAAAAAAAAAAAAAAAAAAAAAAAAAAAAAAAAAAAAAAAAAAAAAAAAAAAAAAAAAAAAAAAAAAAAAAAAAAAAAAAAAAAAAAAAAAAAAAAAAAAAAAAAAAAAAAAAAAAAAAAAAAAAAAAAAAAAAAAAAAAAAAAAAAAAAAAAAAAAAAAAAAAAAAAAAAAAAAAAAAAAAAAAAAAAAAAAAAAAAAAAAAAAAAAAAAAAAAAAAAAAAAAAAAAAAAAAAAAAAAAAAAAAAAAAAAAAAAAAAAAAAAAAAAAAAAAAAAAAAAAAAAAAAAAAAAAAAAAAAAAAAAAAAAAAAAAAAAAAAAAAAAAAAAAAAAAAAAAAAAAAAAAAAAAAAAAAAAAAAAAAAAAAAAAAAAAAAAAAAAAAAAAAAAAAAAAAAAAAAAAAAAAAAAAAAAAAAAAAAAAAAAAAAAAAAAAAAAAAAAAAAAAAAAAAAAAAAAAAAAAAAAAAAAAAAAAAAAAAAAAAAAAAAAAAAAAAAAAAAAAAAAAAAAAAAAAAAAAAAAAAAAAAAAAAAAAAAAAAAAAAAAAAAAAAAAAAAAAAAAAAAAAAAAAAAAAAAAAAAAAAAAAAAAAAAAAAAAAAAAAAAAAAAAAAAAAAAAAAAAAAAAAAAAAAAAAAAAAAAAAAAAAAAAAAAAAAAAAAAAAAAAAAAAAAAAAAAAAAAAAAAAAAAAAAAAAAAAAAAAAAAAAAAAAAAAAAAAAAAAAAAAAAAAAAAAAAAAAAAAAAAAAAAAAAAAAAAAAAAAAAAAAAAAAAAAAAAAAAAAAAAAAAAAAAAAAAAAAAAAAAAAAAAAAAAAAAAAAAAAAAAAAAAAAAAAAAAAAAAAAAAAAAAAAAAAAAAAAAAAAAAAAAAAAAAAAAAAAAAAAAAAAAAAAAAAAAAAAAAAAAAAAAAAAAAAAAAAAAAAAAAAAAAAAAAAAAAAAAAAAAAAAAAAAAAAAAAAAAAAAAAAAAAAAAAAAAAAAAAAAAAAAAAAAAAAAAAAAAAAAAAAAAAAAAAAAAAAAAAAAAAAAAAAAAAAAAAAAAAAAAAAAAAAAAAAAAAAAAAAAAAAAAAAAAAAAAAAAAAAAAAAAAAAAAAAAAAAAAAAAAAAAAAAAAAAAAAAAAAAAAAAAAAAAAAAAAAAAAAAAAAAAAAAAAAAAAAAAAAAAAAAAAAAAAAAAAAAAAAAAAAAAAAAAAAAAAAAAAAAAAAAAAAAAAAAAAAAAAAAAAAAAAAAAAAAAAAAAAAAAAAAAAAAAAAAAAAAAAAAAAAAAAAAAAAAAAAAAAAAAAAAAAAAAAAAAAAAAAAAAAAAAAAAAAAAAAAAAAAAAAAAAAAAAAAAAAAAAAAAAAAAAAAAAAAAAAAAAAAAAAAAAAAAAAAAAAAAAAAAAAAAAAAAAAAAAAAAAAAAAAAAAAAAAAAAAAAAAAAAAAAAAAAAAAAAAAAAAAAAAAAAAAAAAAAAAAAAAAAAAAAAAAAAAAAAAAAAAAAAAAAAAAAAAAAAAAAAAAAAAAAAAAAAAAAAAAAAAAAAAAAAAAAAAAAAAAAAAAAAAAAAAAAAAAAAAAAAAAAAAAAAAAAAAAAAAAAAAAAAAAAAAAAAAAAAAAAAAAAAAAAAAAAAAAAAAAAAAAAAAAAAAAAAAAAAAAAAAAAAAAAAAAAAAAAAAAAAAAAAAAAAAAAAAAAAAAAAAAAAAAAAAAAAAAAAAAAAAAAAAAAAAAAAAAAAAAAAAAAAAAAAAAAAAAAAAAAAAAAAAAAAAAAAAAAAAAAAAAAAAAAAAAAAAAAAAAAAAAAAAAAAAAAAAAAAAAAAAAAAAAAAAAAAAAAAAAAAAAAAAAAAAAAAAAAAAAAAAAAAAAAAAAAAAAAAAAAAAAAAAAAAAAAAAAAAAAAAAAAAAAAAAAAAAAAAAAAAAAAAAAAAAAAAAAAAAAAAAAAAAAAAAAAAAAAAAAAAAAAAAAAAAAAAAAAAAAAAAAAAAAAAAAAAAAAAAAAAAAAAAAAAAAAAAAAAAAAAAAAAAAAAAAAAAAAAAAAAAAAAAAAAAAAAAAAAAAAAAAAAEhFSURFUiBKRUZGRVIAAAWQAwACAAAAFAAAEKaQBAACAAAAFAAAELqSkQACAAAAAzY0AACSkgACAAAAAzY0AADqHAAHAAAIDAAACJoAAAAAHOoAAAAIAAAAAAAAAAAAAAAAAAAAAAAAAAAAAAAAAAAAAAAAAAAAAAAAAAAAAAAAAAAAAAAAAAAAAAAAAAAAAAAAAAAAAAAAAAAAAAAAAAAAAAAAAAAAAAAAAAAAAAAAAAAAAAAAAAAAAAAAAAAAAAAAAAAAAAAAAAAAAAAAAAAAAAAAAAAAAAAAAAAAAAAAAAAAAAAAAAAAAAAAAAAAAAAAAAAAAAAAAAAAAAAAAAAAAAAAAAAAAAAAAAAAAAAAAAAAAAAAAAAAAAAAAAAAAAAAAAAAAAAAAAAAAAAAAAAAAAAAAAAAAAAAAAAAAAAAAAAAAAAAAAAAAAAAAAAAAAAAAAAAAAAAAAAAAAAAAAAAAAAAAAAAAAAAAAAAAAAAAAAAAAAAAAAAAAAAAAAAAAAAAAAAAAAAAAAAAAAAAAAAAAAAAAAAAAAAAAAAAAAAAAAAAAAAAAAAAAAAAAAAAAAAAAAAAAAAAAAAAAAAAAAAAAAAAAAAAAAAAAAAAAAAAAAAAAAAAAAAAAAAAAAAAAAAAAAAAAAAAAAAAAAAAAAAAAAAAAAAAAAAAAAAAAAAAAAAAAAAAAAAAAAAAAAAAAAAAAAAAAAAAAAAAAAAAAAAAAAAAAAAAAAAAAAAAAAAAAAAAAAAAAAAAAAAAAAAAAAAAAAAAAAAAAAAAAAAAAAAAAAAAAAAAAAAAAAAAAAAAAAAAAAAAAAAAAAAAAAAAAAAAAAAAAAAAAAAAAAAAAAAAAAAAAAAAAAAAAAAAAAAAAAAAAAAAAAAAAAAAAAAAAAAAAAAAAAAAAAAAAAAAAAAAAAAAAAAAAAAAAAAAAAAAAAAAAAAAAAAAAAAAAAAAAAAAAAAAAAAAAAAAAAAAAAAAAAAAAAAAAAAAAAAAAAAAAAAAAAAAAAAAAAAAAAAAAAAAAAAAAAAAAAAAAAAAAAAAAAAAAAAAAAAAAAAAAAAAAAAAAAAAAAAAAAAAAAAAAAAAAAAAAAAAAAAAAAAAAAAAAAAAAAAAAAAAAAAAAAAAAAAAAAAAAAAAAAAAAAAAAAAAAAAAAAAAAAAAAAAAAAAAAAAAAAAAAAAAAAAAAAAAAAAAAAAAAAAAAAAAAAAAAAAAAAAAAAAAAAAAAAAAAAAAAAAAAAAAAAAAAAAAAAAAAAAAAAAAAAAAAAAAAAAAAAAAAAAAAAAAAAAAAAAAAAAAAAAAAAAAAAAAAAAAAAAAAAAAAAAAAAAAAAAAAAAAAAAAAAAAAAAAAAAAAAAAAAAAAAAAAAAAAAAAAAAAAAAAAAAAAAAAAAAAAAAAAAAAAAAAAAAAAAAAAAAAAAAAAAAAAAAAAAAAAAAAAAAAAAAAAAAAAAAAAAAAAAAAAAAAAAAAAAAAAAAAAAAAAAAAAAAAAAAAAAAAAAAAAAAAAAAAAAAAAAAAAAAAAAAAAAAAAAAAAAAAAAAAAAAAAAAAAAAAAAAAAAAAAAAAAAAAAAAAAAAAAAAAAAAAAAAAAAAAAAAAAAAAAAAAAAAAAAAAAAAAAAAAAAAAAAAAAAAAAAAAAAAAAAAAAAAAAAAAAAAAAAAAAAAAAAAAAAAAAAAAAAAAAAAAAAAAAAAAAAAAAAAAAAAAAAAAAAAAAAAAAAAAAAAAAAAAAAAAAAAAAAAAAAAAAAAAAAAAAAAAAAAAAAAAAAAAAAAAAAAAAAAAAAAAAAAAAAAAAAAAAAAAAAAAAAAAAAAAAAAAAAAAAAAAAAAAAAAAAAAAAAAAAAAAAAAAAAAAAAAAAAAAAAAAAAAAAAAAAAAAAAAAAAAAAAAAAAAAAAAAAAAAAAAAAAAAAAAAAAAAAAAAAAAAAAAAAAAAAAAAAAAAAAAAAAAAAAAAAAAAAAAAAAAAAAAAAAAAAAAAAAAAAAAAAAAAAAAAAAAAAAAAAAAAAAAAAAAAAAAAAAAAAAAAAAAAAAAAAAAAAAAAAAAAAAAAAAAAAAAAAAAAAAAAAAAAAAAAAAAAAAAAAAAAAAAAAAAAAAAAAAAAAAAAAAAAAAAAAAAAAAAAAAAAAAAAAAAAAAAAAAAAAAAAAAAAAAAAAAAAAAAAAAAAAAAAAAAAAAAAAAAAAAAAAAAAAAAAAAAAAAAAAAAAAAAAAAAAAAAAAAAAAAAAAAAAAAAAAAAAAAAAAAAAAAAAAAAAAAAAAAAAAAAAAAAAAAAAAAAAAAAAAAAAAAAAAAAAAAAAAAAAAAAAAAAAAAAAAAAAAAAAAAAAAAAAAAAAAAAAAAAAAAAAAAAAAAAAAAAAAAAAAAAAAAAAAAAAAAAAAAAAAAAAAAAAAAAAAAAAAAAAAAAAAAAAAAAAAAAAAAAAAAAAAAAAAAAAAAAAAAAAAAAAAAAAAAAAAAAAAAAAAAAAAAAAAAAAAAAAAAAAAAAAAAAAAAAAAAAAAAAAAAAAAAAAAAAAAAAAAAAAAAAAAAAAAAAAAAAAAAAAAAAAAAAAAAAAAAAAAAAAAAAAAAAAAAAAAAAAAAAAAAAAAAAAAAAAAAAAAAAAAAAAAAAAAAAAAAAAAAAAAAAAAAAAAAAAAAAAAAAAAAAAAAAAAAAAAAAAAAAAAAAAAAAAAAAAAAAAAAAAAAAAAAAAAAAAAAAAAAAAAAAAAAAAAAAAAAAAAAAAAAAAAAAAAAAAAAAAAAAAAAAAAAAAAAAAAAAAAAAAAAAAAAAAAAAAAAAAAAAAAAAAAAAAAAAAAAAAAAAAAAAAAAAAAAAAAAAAAAAAAAAAAAAAAAAAAAAAAAAAAAAAAAyMDIxOjExOjIyIDIyOjUyOjExADIwMjE6MTE6MjIgMjI6NTI6MTEAAABIAEUASQBEAEUAUgAgAEoARQBGAEYARQBSAAAA/+ELIGh0dHA6Ly9ucy5hZG9iZS5jb20veGFwLzEuMC8APD94cGFja2V0IGJlZ2luPSfvu78nIGlkPSdXNU0wTXBDZWhpSHpyZVN6TlRjemtjOWQnPz4NCjx4OnhtcG1ldGEgeG1sbnM6eD0iYWRvYmU6bnM6bWV0YS8iPjxyZGY6UkRGIHhtbG5zOnJkZj0iaHR0cDovL3d3dy53My5vcmcvMTk5OS8wMi8yMi1yZGYtc3ludGF4LW5zIyI+PHJkZjpEZXNjcmlwdGlvbiByZGY6YWJvdXQ9InV1aWQ6ZmFmNWJkZDUtYmEzZC0xMWRhLWFkMzEtZDMzZDc1MTgyZjFiIiB4bWxuczpkYz0iaHR0cDovL3B1cmwub3JnL2RjL2VsZW1lbnRzLzEuMS8iLz48cmRmOkRlc2NyaXB0aW9uIHJkZjphYm91dD0idXVpZDpmYWY1YmRkNS1iYTNkLTExZGEtYWQzMS1kMzNkNzUxODJmMWIiIHhtbG5zOnhtcD0iaHR0cDovL25zLmFkb2JlLmNvbS94YXAvMS4wLyI+PHhtcDpDcmVhdGVEYXRlPjIwMjEtMTEtMjJUMjI6NTI6MTEuNjQyPC94bXA6Q3JlYXRlRGF0ZT48L3JkZjpEZXNjcmlwdGlvbj48cmRmOkRlc2NyaXB0aW9uIHJkZjphYm91dD0idXVpZDpmYWY1YmRkNS1iYTNkLTExZGEtYWQzMS1kMzNkNzUxODJmMWIiIHhtbG5zOmRjPSJodHRwOi8vcHVybC5vcmcvZGMvZWxlbWVudHMvMS4xLyI+PGRjOmNyZWF0b3I+PHJkZjpTZXEgeG1sbnM6cmRmPSJodHRwOi8vd3d3LnczLm9yZy8xOTk5LzAyLzIyLXJkZi1zeW50YXgtbnMjIj48cmRmOmxpPkhFSURFUiBKRUZGRVI8L3JkZjpsaT48L3JkZjpTZXE+DQoJCQk8L2RjOmNyZWF0b3I+PC9yZGY6RGVzY3JpcHRpb24+PC9yZGY6UkRGPjwveDp4bXBtZXRhPg0KICAgICAgICAgICAgICAgICAgICAgICAgICAgICAgICAgICAgICAgICAgICAgICAgICAgICAgICAgICAgICAgICAgICAgICAgICAgICAgICAgICAgICAgICAgICAgICAgICAgIAogICAgICAgICAgICAgICAgICAgICAgICAgICAgICAgICAgICAgICAgICAgICAgICAgICAgICAgICAgICAgICAgICAgICAgICAgICAgICAgICAgICAgICAgICAgICAgICAgICAgCiAgICAgICAgICAgICAgICAgICAgICAgICAgICAgICAgICAgICAgICAgICAgICAgICAgICAgICAgICAgICAgICAgICAgICAgICAgICAgICAgICAgICAgICAgICAgICAgICAgICAKICAgICAgICAgICAgICAgICAgICAgICAgICAgICAgICAgICAgICAgICAgICAgICAgICAgICAgICAgICAgICAgICAgICAgICAgICAgICAgICAgICAgICAgICAgICAgICAgICAgIAogICAgICAgICAgICAgICAgICAgICAgICAgICAgICAgICAgICAgICAgICAgICAgICAgICAgICAgICAgICAgICAgICAgICAgICAgICAgICAgICAgICAgICAgICAgICAgICAgICAgCiAgICAgICAgICAgICAgICAgICAgICAgICAgICAgICAgICAgICAgICAgICAgICAgICAgICAgICAgICAgICAgICAgICAgICAgICAgICAgICAgICAgICAgICAgICAgICAgICAgICAKICAgICAgICAgICAgICAgICAgICAgICAgICAgICAgICAgICAgICAgICAgICAgICAgICAgICAgICAgICAgICAgICAgICAgICAgICAgICAgICAgICAgICAgICAgICAgICAgICAgIAogICAgICAgICAgICAgICAgICAgICAgICAgICAgICAgICAgICAgICAgICAgICAgICAgICAgICAgICAgICAgICAgICAgICAgICAgICAgICAgICAgICAgICAgICAgICAgICAgICAgCiAgICAgICAgICAgICAgICAgICAgICAgICAgICAgICAgICAgICAgICAgICAgICAgICAgICAgICAgICAgICAgICAgICAgICAgICAgICAgICAgICAgICAgICAgICAgICAgICAgICAKICAgICAgICAgICAgICAgICAgICAgICAgICAgICAgICAgICAgICAgICAgICAgICAgICAgICAgICAgICAgICAgICAgICAgICAgICAgICAgICAgICAgICAgICAgICAgICAgICAgIAogICAgICAgICAgICAgICAgICAgICAgICAgICAgICAgICAgICAgICAgICAgICAgICAgICAgICAgICAgICAgICAgICAgICAgICAgICAgICAgICAgICAgICAgICAgICAgICAgICAgCiAgICAgICAgICAgICAgICAgICAgICAgICAgICAgICAgICAgICAgICAgICAgICAgICAgICAgICAgICAgICAgICAgICAgICAgICAgICAgICAgICAgICAgICAgICAgICAgICAgICAKICAgICAgICAgICAgICAgICAgICAgICAgICAgICAgICAgICAgICAgICAgICAgICAgICAgICAgICAgICAgICAgICAgICAgICAgICAgICAgICAgICAgICAgICAgICAgICAgICAgIAogICAgICAgICAgICAgICAgICAgICAgICAgICAgICAgICAgICAgICAgICAgICAgICAgICAgICAgICAgICAgICAgICAgICAgICAgICAgICAgICAgICAgICAgICAgICAgICAgICAgCiAgICAgICAgICAgICAgICAgICAgICAgICAgICAgICAgICAgICAgICAgICAgICAgICAgICAgICAgICAgICAgICAgICAgICAgICAgICAgICAgICAgICAgICAgICAgICAgICAgICAKICAgICAgICAgICAgICAgICAgICAgICAgICAgICAgICAgICAgICAgICAgICAgICAgICAgICAgICAgICAgICAgICAgICAgICAgICAgICAgICAgICAgICAgICAgICAgICAgICAgIAogICAgICAgICAgICAgICAgICAgICAgICAgICAgICAgICAgICAgICAgICAgICAgICAgICAgICAgICAgICAgICAgICAgICAgICAgICAgICAgICAgICAgICAgICAgICAgICAgICAgCiAgICAgICAgICAgICAgICAgICAgICAgICAgICAgICAgICAgICAgICAgICAgICAgICAgICAgICAgICAgICAgICAgICAgICAgICAgICAgICAgICAgICAgICAgICAgICAgICAgICAKICAgICAgICAgICAgICAgICAgICAgICAgICAgICAgICAgICAgICAgICAgICAgICAgICAgICAgICAgICAgICAgICAgICAgICAgICAgICAgICAgICAgICAgICAgICAgICAgICAgIAogICAgICAgICAgICAgICAgICAgICAgICAgICAgICAgICAgICAgICAgICAgICAgICAgICAgICAgICAgICAgICAgICAgICAgICAgICAgICAgICAgICAgICAgICAgICAgICAgICAgCiAgICAgICAgICAgICAgICAgICAgICAgICAgICA8P3hwYWNrZXQgZW5kPSd3Jz8+/9sAQwAHBQUGBQQHBgUGCAcHCAoRCwoJCQoVDxAMERgVGhkYFRgXGx4nIRsdJR0XGCIuIiUoKSssKxogLzMvKjInKisq/9sAQwEHCAgKCQoUCwsUKhwYHCoqKioqKioqKioqKioqKioqKioqKioqKioqKioqKioqKioqKioqKioqKioqKioqKioq/8AAEQgCqgTVAwEiAAIRAQMRAf/EAB8AAAEFAQEBAQEBAAAAAAAAAAABAgMEBQYHCAkKC//EALUQAAIBAwMCBAMFBQQEAAABfQECAwAEEQUSITFBBhNRYQcicRQygZGhCCNCscEVUtHwJDNicoIJChYXGBkaJSYnKCkqNDU2Nzg5OkNERUZHSElKU1RVVldYWVpjZGVmZ2hpanN0dXZ3eHl6g4SFhoeIiYqSk5SVlpeYmZqio6Slpqeoqaqys7S1tre4ubrCw8TFxsfIycrS09TV1tfY2drh4uPk5ebn6Onq8fLz9PX29/j5+v/EAB8BAAMBAQEBAQEBAQEAAAAAAAABAgMEBQYHCAkKC//EALURAAIBAgQEAwQHBQQEAAECdwABAgMRBAUhMQYSQVEHYXETIjKBCBRCkaGxwQkjM1LwFWJy0QoWJDThJfEXGBkaJicoKSo1Njc4OTpDREVGR0hJSlNUVVZXWFlaY2RlZmdoaWpzdHV2d3h5eoKDhIWGh4iJipKTlJWWl5iZmqKjpKWmp6ipqrKztLW2t7i5usLDxMXGx8jJytLT1NXW19jZ2uLj5OXm5+jp6vLz9PX29/j5+v/aAAwDAQACEQMRAD8A+irT/Ut/11k/9DNT1Baf6lv+usn/AKGanoAKKKKACiiigAooooAKKKKACiiigAooooAKKKKACiiigAooooAKKKKACiiigAooooAKKKKACiiigAooooAKKKKACiiigAooooAKKKKACiiigAooooAK5O88dmHX9R0rT/DGuarJpzpHPNZpb+WGeNZAAXmUn5XHausrkfCv/I9+OP8AsIWv/pFDQAf8JvqP/Qg+KP8Avmz/APkij/hN9R/6EHxR/wB82f8A8kV11FAHI/8ACb6j/wBCD4o/75s//kij/hN9R/6EHxR/3zZ//JFddRQByP8Awm+o/wDQg+KP++bP/wCSKP8AhN9R/wChB8Uf982f/wAkV11FAHI/8JvqP/Qg+KP++bP/AOSKP+E31H/oQfFH/fNn/wDJFddRQByP/Cb6j/0IPij/AL5s/wD5Io/4TfUf+hB8Uf8AfNn/APJFddRQByP/AAm+o/8AQg+KP++bP/5Io/4TfUf+hB8Uf982f/yRXXUUAcj/AMJvqP8A0IPij/vmz/8Akij/AITfUf8AoQfFH/fNn/8AJFddRQByP/Cb6j/0IPij/vmz/wDkij/hN9R/6EHxR/3zZ/8AyRXXUUAcj/wm+o/9CD4o/wC+bP8A+SKP+E31H/oQfFH/AHzZ/wDyRXXUUAcj/wAJvqP/AEIPij/vmz/+SKP+E31H/oQfFH/fNn/8kV11FAHI/wDCb6j/ANCD4o/75s//AJIo/wCE31H/AKEHxR/3zZ//ACRXXUUAcj/wm+o/9CD4o/75s/8A5Io/4TfUf+hB8Uf982f/AMkV11FAHI/8JvqP/Qg+KP8Avmz/APkij/hN9R/6EHxR/wB82f8A8kV11FAHI/8ACb6j/wBCD4o/75s//kij/hN9R/6EHxR/3zZ//JFddRQByP8Awm+o/wDQg+KP++bP/wCSKP8AhN9R/wChB8Uf982f/wAkV11FAHI/8JvqP/Qg+KP++bP/AOSKP+E31H/oQfFH/fNn/wDJFddRQByP/Cb6j/0IPij/AL5s/wD5Io/4TfUf+hB8Uf8AfNn/APJFddRQByP/AAm+o/8AQg+KP++bP/5Io/4TfUf+hB8Uf982f/yRXXUUAcj/AMJvqP8A0IPij/vmz/8Akij/AITfUf8AoQfFH/fNn/8AJFddRQByP/Cb6j/0IPij/vmz/wDkij/hN9R/6EHxR/3zZ/8AyRXXUUAcj/wm+o/9CD4o/wC+bP8A+SKP+E31H/oQfFH/AHzZ/wDyRXXUUAcj/wAJvqP/AEIPij/vmz/+SKP+E31H/oQfFH/fNn/8kV11FAHI/wDCb6j/ANCD4o/75s//AJIo/wCE31H/AKEHxR/3zZ//ACRXXUUAcj/wm+o/9CD4o/75s/8A5Io/4TfUf+hB8Uf982f/AMkV11FAHI/8JvqP/Qg+KP8Avmz/APkij/hN9R/6EHxR/wB82f8A8kV11FAHI/8ACb6j/wBCD4o/75s//kij/hN9R/6EHxR/3zZ//JFddRQByP8Awm+o/wDQg+KP++bP/wCSKP8AhN9R/wChB8Uf982f/wAkV11FAHI/8JvqP/Qg+KP++bP/AOSKP+E31H/oQfFH/fNn/wDJFddRQByP/Cb6j/0IPij/AL5s/wD5Io/4TfUf+hB8Uf8AfNn/APJFddRQByEfj9l1PT7PUvCmv6YNQuRaw3F0lt5YkKswB2TMeintXX1yPjv/AI/vCP8A2MEX/oiauuoAKKKKACiiigAooooAKKKKACiiigAooooAKKKKACiiigAooooAKKKKACiiigAooooAKKKKACiiigAooooAKKKKACiiigAooooAKKKKACiiigAooooAKKKKACiiigAooooAKKKKAILT/Ut/11k/9DNT1Baf6lv+usn/AKGanoAKKKKACiiigAooooAKKKKACiiigAooooAKKKKACiiigAooooAKKKKACiiigAooooAKKKKACiiigAooooAKKKKACiiigAooooAKKKKACiiigAooooAK5Hwr/wAj344/7CFr/wCkUNddXI+Ff+R78cf9hC1/9IoaAOuooooAKKKKACiiigAooooAKKKKACiiigAooooAKKKKACiiigAooooAKKKKACiiigAooooAKKKKACiiigAooooAKKKKACiiigAooooAKKKKACiiigAooooAKKKKACiiigAooooAKKKKACiiigAooooAKKKKAOR8d/8AH94R/wCxgi/9ETV11cj47/4/vCP/AGMEX/oiauuoAKKKKACiiigAooooAKKKKACiiigAooooAKKKKACiiigAooooAKKKKACiiigAooooAKKKKACiiigAooooAKKKKACiiigAooooAKKKKACiiigAooooAKKKKACiiigAooooAKKKKAILT/Ut/wBdZP8A0M1PUFp/qW/66yf+hmp6ACiiigAooooAKKKKACiiigAooooAKKKKACiiigAooooAKKKKACiiigAooooAKKKKACiiigAooooAKKKKACiiigAooooAKKKKACiiigAooooAKKKKACuR8K/8j344/wCwha/+kUNddXI+Ff8Ake/HH/YQtf8A0ihoA66iiigAooooAKKKKACiiigCvqErwaZdSxHa8cLspxnBCkivG/h58YZrb4LXfiz4gal9ruIr6SCELEkbzkKpWNVQAZ5POOBknpXsOrf8gW9/695P/QTXyF8O/hBqnxB+HOpaumqSILBpF0uyU8POArOWz0BAUcc5wTwMGU3efovlqN2931f5HvHwzvfiBr1jeeKvGGofYrC7jeTTtGjtox5aEZV2fbv6dATz1PYV554D1P45/EPw62s6L400qC3WdoCt3axK+5QCThbdhj5h3r0b4RfEI+Ovh5NHqLbdb0uM299G3DMQpCyY/wBoDn3DV5B8Gvhp4k8W+B5NR0X4iar4ctxdvEbO0EmwsApL/LMgycjt2rS3vSS2SVvv3Iu+VN7tu/3bHrGn6F8Yrfwjry6z4t0+41gxxyaVJZ28RCsu4ujhoFGG+UA4OPbvV8JfGqCb4O6hr/iQ7dZ0MG3vrdlCNLP0TCjGN59uCG7Cux+H3hDV/B2kXVprviq98TTTT+alxeB90S7QNg3O/GRnqOteN+O/Auj3X7UWh6Y8brYa4i399bKcJLInmnkf7Wzn/eb1qXeUuXv+Fv8AgX+epa+Fy/l19V/ViXVfGnxQ8PfCbSPGura43mX2pI0lmLGALHaMCVB+TOWx1znDDnNdR8dPiNr3hvTNAt/A100WoaoXuNyQRykwomSNrqRzuznH8JrrPjHoQ1z4P6/Zxpl4bX7REqjvEQ4A/BcfjXjnwgvT8SPido93eRtJbeGfDqWjeYOGlwY8/iGb/vml8bcV3v8AKz/VfiL4UpPtb53X+f4Hc6x8UtQh/ZotvGFldqmszwxQCby0OJ9+xztI2/wucYxTPEHxL8VaNovhTwxo1vHq/jjWrKOeZp0VUhBXLMVXaM5DegAUk+/j5SeS8s/hBKsrC38XMwyOlv8AdH6Fm/GvUfEt5beE/wBqzRtU1tlt9O1DS/s1vcyECOJ/mXGT05wP+Biq0m01tJ/+23t97sJ3grdYr/261/uVyHV9a+N3w5sW8Q+JbrRvEWkxMDdW9sgVoUJxnIjQjrjPzY6kYrS+KvxM1eP4d+Fte8AakLFtbu0jDvDHJgMh+VgysAQwwcDtXWfGXxDpei/CfW/7QuIg19ZyW1tGW5md1wAo74zn2ArwnxPpF5Z/s5fDyzuWe1nuNVaRGwd0YkMjI3bswNLdW7OP4vVBL3VzX6P8FudrryfHvwfoV3r+o+K9D1G0sIzNNbxwJlkHX/lgn6MDU/jz4seIZfgv4V8UeFrldJv9WvVt5/3KSKDtkDAB1b5dyZB64riPiR4L8S+CLnTf+E38ZeIfEnhC9lEV48N1IjRt1AKOzqemR64I4OK6346WukWXwm8F2/hry/7JTU7f7IY23BozE5Bz3znOfeqjaS+aX46/eKV4v5NkuryfHvwVpM3iDUtd0TXbKzXzbi0ihXOwcs3EUZwB6Nn2roPFPxq+w/BOw8aaFZo91qUi20UU/KQS/Nv3YxkDY2OmeK7X4hatZaN8N9cu9Smjii+wSou9gN7MhCqM9SSQMV4n4RvfDnh79m/SLT4jaXeXek65qEixtCg/0fLfK5JZSv3WYEZ4zx6xdvmj2t+L2LVlyy73/K9zYn1H47+G7CHxFcXWk+KbGRkZtN06DzZNjf3fLjUnr1DNjryK9ysLo32m2120EtuZ4lkMMyFXjyM7WB5BGcEV86+K/hfN8L/C8/i74e/EC9s7WALMlrNMGS5yRgBlIV+vAKHNe6eBtcufEvgPRdZvo1iub2zjmlVRgbiOSB6Hr+NXo0/JkaprzOOufGGuR/tKWnhVL7GiyaUbhrXyU5kw3O/bu7DjOK9OZgqlmOABkk9q8WvP+TxrD/sBn+T17BqdvJd6TeW8J2yTQPGh9CVIFZttUuZb6/mxx1qNPuvyR4qvjn4lfFHWNSX4WPp2j6FYTGBdSvkDNcOOuMq/XrgLwCMnJxV/wr8RvGHh74hWvgj4qwWjz365sNUtAFSZucA4AByRjopBxkcg1F+zTrFknge78NTMlvrGnX0v2i1cgSEEj5sdSAQVPpj6Vl/Fi+tvE3x68BaHokiXV9pt2Jrvyju8lfMRyCR0IWNiR2yPWtIpKcI7p2/LcTbcZSelr/mbvjH4j+LNY+IUvgT4W21qb60Tdf6ldjdHb8DgDkDGQCSGyTgDiq9lefHLwnrlguvw6f4v0+6lCTfYFSN4B3O7ZGBx3II7ZGay/hve2/hT9orxxpGvTLbXOrTefZvMdomBdnCgnqSrjA/2TVb4weJvil4C1GfU4PGOlxaTdXnl2OnxwwvcJGQSCVeHkDGCdx6iop7Qff8Az2NJRvKUV0/y3Ox8ReM9fsf2jvDfhe1vvL0a+sjLcWvkxne2JjneV3D7i9D2qj4h8e+NfF3jvUfCPwpWxtRpI23+r3o3KknTaoww6gj7rEkHoBk5niVzJ+1p4Kdzlm0okn32T1L8FbuDQ/id4/8ADmqyJBqk+pm5hSRgGnjLOcrnrwyn6NVKN0k/734OxM5Wd0v5fxRseEdS+LujeM7bRfG9haa9plwhZtWsAqCD6nCA+67QecjOMV6pdO0dnM6HDLGxB9Disu78X+HrHxHb6BeaxaQ6rcrmG0eQB35wB9T2HU9q0r3/AI8Lj/rk38qibfs2/UcF79vQ+c/AeqfHP4heHW1rRfGelQ26TtAUu7WJXLKATwtuwxyO9d38MfiTr+q+IdY8GePLaG38RaVGZRLAMLOnGTjpn5lORwQegxVL9l7/AJJLN/2Epf8A0FKydFnj8Qftba3f6RIs9pp+mGKeaMhkLBFTGR/tHH/AT6VdT3Zcq7X/AAv+ZEXePM+/62/I6j4B+Mde8a+D9SvvE199tuINReCN/Jjj2oEQgYRQOpPPWvP/ABT8ZPGdp4/1XVNGuwfBui6rBY3UIt4235yH+cru5KPyDxlfWnfBnxKvhH4A+MNbJAe1vpTCD3kMcaoP++iK5Dw9qXiOL4Oal4WT4Za7qia0zXR1ZI5irs20pIqiEggbVP3ueeeaJO07rok/V6fpc0aVmn1bXotf+AfVur+IdP0Xwvc6/dy/6Bb2xuS687lxkY9SeMfWvGNJ1/40/E2zOu+E7nSPDOjySMLWO6QO8yg4zkxuTzxnCj0qhpOqXnjn9kfVdMh3vqejxi2miAO4pC6uBjr/AKsY+qmuw+HOs3PiX9n+ysvAuq2lpr1nZJbBpyCLaVSAS67W4IBI+U9aUlaUra2tb0fUmLvGN+t7/KxsfDbW/iBdXGo6X8RNEjhez4h1S32rHc+23PPXO4ADqCARXlvgfWPjf8RNOvdR0Dxlplvb2121sUvLWJWyADxtt24ww71vfC/xh45uPjHqfhPxj4lstaisrBpWaxii8rzMx9HWNWyAxBB759K87+GfgDxd4n8F65qng/xpqGjyW17IiabbyyRJcOEVsl1cAEggfdPQc+h/ef8ALf8AG1y0vda81+TZ6t8NfHvjBfibqXgD4hSWl7f2tv58d7aIFDcKcHAUEFXB+6CCMVB8ZvHvi7TvFuneGfh3dCDUBYzX94RBHKTGqlgPnVgDhG+pK1nfs5JoFxNrGo3j37+M4cxam+pz+Y4XPJQkA4JUA5yQRjOMZ4/QPiBrb/FrxP420jwPqniuC6ZrG2e0WTy4Y1IwMrG4yVVDjjqfWiWrjHyv5eX6ER0Unbrb/P8AU9++F/i0+NvhzpWtTOHupIvLusAD98nyucDpkjOPQ14z4A+L3jO++MY0vxBqX2nQpdQmsFU20KBJPn8oblQMT8uOverv7Ouu3OmeLvEfhHVNMudGNw51G0sLtWV4QThk+YAn5SmDgZCk1wdlYyx+CvGviG0BN1ofii3vY8D+7I6/+z5/Chte1Uns1f73FP7rsmz5XBb3t+Da+/Q7v47fFjxd4X8ZDTfB2o/Y7WytozeuLeKX97IWKg71OPlXPFe7+H7qa+8M6Zd3T7557OKSR8AbmZAScDgcmvk/xXN/wlvw18Y+OHjcDUfEkEdvuHKxRRsq/pIB9RX1V4V/5E3Rf+vCD/0WtEE1Bp73X4q/6hUa9pHl2s/waRrUUUUFBRRRQAUUUUAFFFFAHI+O/wDj+8I/9jBF/wCiJq66uR8d/wDH94R/7GCL/wBETV11ABRRRQAUUUUAFFFFABRRRQAUUUUAFFFFABRRRQAUUUUAFFFFABRRRQAUUUUAFFFFABRRRQAUUUUAFFFFABRRRQAUUUUAFFFFABRRRQAUUUUAFFFFABRRRQAUUUUAFFFFABRRRQBBaf6lv+usn/oZqeoLT/Ut/wBdZP8A0M1PQAUUUUAFFFFABRRRQAUUUUAFFFFABRRRQAUUUUAFFFFABRRRQAUUUUAFFFFABRRRQAUUUUAFFFFABRRRQAUUUUAFFFFABRRRQAUUUUAFFFFABRRRQAVyPhX/AJHvxx/2ELX/ANIoa66uR8K/8j344/7CFr/6RQ0AddRRRQAUUUUAFFFFABRRRQBHcQLc2ssEhIWVCjFeoBGK53wH4E0z4eeHW0bRZ7ue3adpy126s+5gARlVUY+Udq6aihaXt1B62ucRp/wo0TSfH9/4s0u81G0utRV1urSKSMW8m4fN8uzd1+b73X24rif+GVPBH/QV8Qf+BEH/AMZr22ijZWHe7ucL8O/hJoPwzuL6bQbvUbhr5ESQXskbABSSMbUX+8fWtHUvh/pWq/ETS/GdxcXi6jpcBghiR1ELKd/LAqST+8PRh2rqaKd3dPsLo13I7iCO5tpYJl3RyoUdT3BGCK4/4efCzQfhpHfroM17O18yGV7yRHYBc4A2qvHzH1rtKKS0d0D1VmcS3wp8Pt8Uh4933g1Uc+UJE8gt5fl7tu3dnb/tda2fFvgvQfHGk/2d4lsFu4VbdG2SrxN6qw5H8j3zW7RStpboO7vc8m0X9m3wDo+qLeyRX+pbGDpBfXCtGpByPlVV3D2bI9a7Dxr8PtJ8dWem22qzXVvHpt0tzCLNkTLKMAHcp49hiupoqrvQmyd/My/Enh7TvFfh280XWYfNs7uPY4HDL6Mp7MDgg+oriL34GeH9Q8A2PhC81fW5dOsLo3Nu7TxeahKkbM+Xjb8xOMZyeuOK9LoqbDPHNN/Zg8BWF8lxPLq+oIhz5F1coEb67EU/rXpeseFNE17wy3h/U9Ohl0sxrGtuBtCBfu7cYKkY4IrYopvVWYLR3PH7L9mTwBaamLqX+1LuMNuFrPdL5X0+VQxH/Aq9dggitbeOC2jSKGJQkcaLhUUDAAHYYp9FO7tYVtbnm/jv4HeGviF4jGta1farBciBYNlpNGqbVJIOGjY55PeoPBfwE8L+BfFFvr2kX+rzXUCuqpdTRMhDKVOQsYPQ+ten0Uo+7sN+9uedeNPgb4L8cak+o39tcWN/Kcy3NhKI2l92DBlJ98Z960vA3wp8K/D0vLoFm7Xki7HvLl/MlK+gPAUf7oGe9dnRQvd2B67nJeN/hj4X+IMUf/CRWJa4hXbFdwP5cqD0z3HsQRXNeGv2d/AXhy+W7a1utWmjYNH/AGlKJFQ/7iqqn/gQNepUUL3dUD13OU1D4eaTqXxG03xpPcXiajpsBghhjdBCVw4+YFd2f3h6MO1VPHfwk8KfEKRLjXLSWK9Rdi3tpJ5cu30OQQ3tkHHau2oo3Vh3d7nn3gf4KeD/AAFqI1HSre4u9QUER3V9KJHjB4O0ABQffGfeu/ljEsLxtkB1KnHvTqKHqrMS0d0eJD9lXwPn/kKeID/28Q//ABmvSPB3w/8AD3gTSZLDw5ZmBZuZ5nYvJMcYBZj9egwB6V0tFHSwdbnmC/AXw0ngefwpHqmtLp1xfi/lIni8x3ChQpPl428A4xnI616TZ2kNhYwWdqgSC3jWKNR/CqjAH5CpqKd3/X3A9XdnJeFPhxpHg7X9b1XSLi9zrUvm3FrLIhhRtxbKAKCPvEck8GuX8Rfs5+A/EGpvfLBe6XJIxeRNPmVEYnr8rKwX6LgV6rRU2WnkO718zlfBnw18LeAoXXw5pqwzyrtlupWMk0g9Cx6D2GB7U7wH4A0v4eaTdafotxeTxXVy1y7XbqzBiAMDaq8fKK6iiquxbKxwOo/CDQ73xpeeKLPUNU0rUL63e3uRYSxrHKHUqzEMjfMeDnPUA9a3fA/grS/AHhmPQ9EaeS3SR5TJcsrSOzHkkqAPQdOgFdDRSWisgeruzktS+HOkaj8RtP8AGpub221Wxi8oLBIgimX5hhwVJPDEcEdqp6b8JdA0zw34j0SK4v5bXxFK8t00siF42YfwEIAMdRkGu5opWVrev46sd9b/ANaHnzfBnw43wxTwKLnUV0xZ/tBmWWPz2fcW5bZt74+70ArudPso9N0y1sYCzRW0KQoXOWIUADOO/FWKKffzJstwooooGFFFFABRRRQAUUUUAcj47/4/vCP/AGMEX/oiauurkfHf/H94R/7GCL/0RNXXUAFFFFABRRRQAUUUUAFFFFABRRRQAUUUUAFFFFABRRRQAUUUUAFFFFABRRRQAUUUUAFFFFABRRRQAUUUUAFFFFABRRRQAUUUUAFFFFABRRRQAUUUUAFFFFABRRRQAUUUUAFFFFAEFp/qW/66yf8AoZqeoLT/AFLf9dZP/QzU9ABRRRQAUUUUAFFFFABRRRQAUUUUAFFFFABRRRQAUUUUAFFFFABRRRQAUUUUAFFFFABRRRQAUUUUAFFFFABRRRQAUUUUAFFFFABRRRQAUUUUAFFFFABXI+Ff+R78cf8AYQtf/SKGuurkfCv/ACPfjj/sIWv/AKRQ0AddRRRQAUUUUAFFFFABRRRQAUUUUAFFFFABRRRQAUUUUAFFFFABRRRQAUUUUAFFFFABRRRQAUUUUAFFFFABRRRQAUUUUAFFFFABRRRQAUUUUAFFFFABRRRQAUUUUAFFFFABRRRQAUUUUAFFFFABRRRQAUUUUAcj47/4/vCP/YwRf+iJq66uR8d/8f3hH/sYIv8A0RNXXUAFFFFABRRRQAUUUUAFFFFABRRRQAUUUUAFFFFABRRRQAUUUUAFFFFABRRRQAUUUUAFFFFABRRRQAUUUUAFFFFABRRRQAUUUUAFFFFABRRRQAUUUUAFFFFABRRRQAUUUUAFFFFAEFp/qW/66yf+hmp6gtP9S3/XWT/0M1PQAUUUUAFFFFABRRRQAUUUUAFFFFABRRRQAUUUUAFFFFABRRRQAUUUUAFFFFABRRRQAUUUUAFFFFABRRRQAUUUUAFFFFABRRRQAUUUUAFFFFABRRRQAVzuq/D/AMJa5qUuoax4d0+9vJseZPNAGdsAAZPsAB+FdFRQByX/AAqrwH/0KWk/+Aq0f8Kq8B/9ClpP/gKtdbRQByX/AAqrwH/0KWk/+Aq0f8Kq8B/9ClpP/gKtdbRQByX/AAqrwH/0KWk/+Aq0f8Kq8B/9ClpP/gKtdbRQByX/AAqrwH/0KWk/+Aq0f8Kq8B/9ClpP/gKtdbRQByX/AAqrwH/0KWk/+Aq0f8Kq8B/9ClpP/gKtdbRQByX/AAqrwH/0KWk/+Aq0f8Kq8B/9ClpP/gKtdbRQByX/AAqrwH/0KWk/+Aq0f8Kq8B/9ClpP/gKtdbRQByX/AAqrwH/0KWk/+Aq0f8Kq8B/9ClpP/gKtdbRQByX/AAqrwH/0KWk/+Aq0f8Kq8B/9ClpP/gKtdbRQByX/AAqrwH/0KWk/+Aq0f8Kq8B/9ClpP/gKtdbRQByX/AAqrwH/0KWk/+Aq0f8Kq8B/9ClpP/gKtdbRQByX/AAqrwH/0KWk/+Aq0f8Kq8B/9ClpP/gKtdbRQByX/AAqrwH/0KWk/+Aq0f8Kq8B/9ClpP/gKtdbRQByX/AAqrwH/0KWk/+Aq0f8Kq8B/9ClpP/gKtdbRQByX/AAqrwH/0KWk/+Aq0f8Kq8B/9ClpP/gKtdbRQByX/AAqrwH/0KWk/+Aq0f8Kq8B/9ClpP/gKtdbRQByX/AAqrwH/0KWk/+Aq0f8Kq8B/9ClpP/gKtdbRQByX/AAqrwH/0KWk/+Aq0f8Kq8B/9ClpP/gKtdbRQByX/AAqrwH/0KWk/+Aq0f8Kq8B/9ClpP/gKtdbRQByX/AAqrwH/0KWk/+Aq0f8Kq8B/9ClpP/gKtdbRQByX/AAqrwH/0KWk/+Aq0f8Kq8B/9ClpP/gKtdbRQByX/AAqrwH/0KWk/+Aq0f8Kq8B/9ClpP/gKtdbRQByX/AAqrwH/0KWk/+Aq0f8Kq8B/9ClpP/gKtdbRQByX/AAqrwH/0KWk/+Aq0f8Kq8B/9ClpP/gKtdbRQByX/AAqrwH/0KWk/+Aq0f8Kq8B/9ClpP/gKtdbRQByX/AAqrwH/0KWk/+Aq0f8Kq8B/9ClpP/gKtdbRQByX/AAqrwH/0KWk/+Aq0f8Kq8B/9ClpP/gKtdbRQByX/AAqrwH/0KWk/+Aq0f8Kq8B/9ClpP/gKtdbRQByX/AAqrwH/0KWk/+Aq0f8Kq8B/9ClpP/gKtdbRQBzWn/DrwdpOoQ32m+GtNtbuBt0U0Vuqsh9Qa6WiigAooooAKKKKACiiigAooooAKKKKACiiigAooooAKKKKACiiigAooooAKKKKACiiigAooooAKKKKACiiigAooooAKKKKACiiigAooooAKKKKACiiigAooooAKKKKACiiigAooooAgtP8AUt/11k/9DNT1Baf6lv8ArrJ/6Ga4/wAXWb6v8QvDWlPqOpWdpNY380qaffS2xkZGtgpYxsCcb26+poA7eiuR/wCFc2H/AEHPFH/hQXf/AMco/wCFc2H/AEHPFH/hQXf/AMcoA66iuR/4VzYf9BzxR/4UF3/8co/4VzYf9BzxR/4UF3/8coA66iuR/wCFc2H/AEHPFH/hQXf/AMco/wCFc2H/AEHPFH/hQXf/AMcoA66iuR/4VzYf9BzxR/4UF3/8co/4VzYf9BzxR/4UF3/8coA66iuR/wCFc2H/AEHPFH/hQXf/AMco/wCFc2H/AEHPFH/hQXf/AMcoA66iuR/4VzYf9BzxR/4UF3/8co/4VzYf9BzxR/4UF3/8coA66iuR/wCFc2H/AEHPFH/hQXf/AMco/wCFc2H/AEHPFH/hQXf/AMcoA66iuR/4VzYf9BzxR/4UF3/8co/4VzYf9BzxR/4UF3/8coA66iuR/wCFc2H/AEHPFH/hQXf/AMco/wCFc2H/AEHPFH/hQXf/AMcoA66iuR/4VzYf9BzxR/4UF3/8co/4VzYf9BzxR/4UF3/8coA66iuR/wCFc2H/AEHPFH/hQXf/AMco/wCFc2H/AEHPFH/hQXf/AMcoA66iuR/4VzYf9BzxR/4UF3/8co/4VzYf9BzxR/4UF3/8coA66iuR/wCFc2H/AEHPFH/hQXf/AMco/wCFc2H/AEHPFH/hQXf/AMcoA66iuR/4VzYf9BzxR/4UF3/8co/4VzYf9BzxR/4UF3/8coA66iuR/wCFc2H/AEHPFH/hQXf/AMco/wCFc2H/AEHPFH/hQXf/AMcoA66iuR/4VzYf9BzxR/4UF3/8co/4VzYf9BzxR/4UF3/8coA66iuR/wCFc2H/AEHPFH/hQXf/AMco/wCFc2H/AEHPFH/hQXf/AMcoA66iuR/4VzYf9BzxR/4UF3/8co/4VzYf9BzxR/4UF3/8coA66iuR/wCFc2H/AEHPFH/hQXf/AMco/wCFc2H/AEHPFH/hQXf/AMcoA66iuR/4VzYf9BzxR/4UF3/8co/4VzYf9BzxR/4UF3/8coA66iuR+G7T/wDCP38Fxd3V59l1i+to5budppPLjuHVQXYknAAHNddQAUUUUAFFFFABRRRQAUUUUAFFFFABRRRQAUUVynxMmuIfAVybS6uLSR7qzi862maKRVe6iVsMpBGVYjj1oA6uiuR/4VzYf9BzxR/4UF3/APHKP+Fc2H/Qc8Uf+FBd/wDxygDrqK5H/hXNh/0HPFH/AIUF3/8AHKP+Fc2H/Qc8Uf8AhQXf/wAcoA66iuR/4VzYf9BzxR/4UF3/APHKP+Fc2H/Qc8Uf+FBd/wDxygDrqK5H/hXNh/0HPFH/AIUF3/8AHKP+Fc2H/Qc8Uf8AhQXf/wAcoA66iuR/4VzYf9BzxR/4UF3/APHKP+Fc2H/Qc8Uf+FBd/wDxygDrqK5H/hXNh/0HPFH/AIUF3/8AHKP+Fc2H/Qc8Uf8AhQXf/wAcoA66iuR/4VzYf9BzxR/4UF3/APHKP+Fc2H/Qc8Uf+FBd/wDxygDrqK5H/hXNh/0HPFH/AIUF3/8AHKP+Fc2H/Qc8Uf8AhQXf/wAcoA66iuR/4VzYf9BzxR/4UF3/APHKP+Fc2H/Qc8Uf+FBd/wDxygDrqK5H/hXNh/0HPFH/AIUF3/8AHKP+Fc2H/Qc8Uf8AhQXf/wAcoA66iuR/4VzYf9BzxR/4UF3/APHKP+Fc2H/Qc8Uf+FBd/wDxygDrqK5H/hXNh/0HPFH/AIUF3/8AHKP+Fc2H/Qc8Uf8AhQXf/wAcoA66iuR/4VzYf9BzxR/4UF3/APHKP+Fc2H/Qc8Uf+FBd/wDxygDrqK5H/hXNh/0HPFH/AIUF3/8AHKP+Fc2H/Qc8Uf8AhQXf/wAcoA66iuR/4VzYf9BzxR/4UF3/APHKP+Fc2H/Qc8Uf+FBd/wDxygDrqK5H/hXNh/0HPFH/AIUF3/8AHKP+Fc2H/Qc8Uf8AhQXf/wAcoA66iuR/4VzYf9BzxR/4UF3/APHKP+Fc2H/Qc8Uf+FBd/wDxygDrqK5H/hXNh/0HPFH/AIUF3/8AHKP+Fc2H/Qc8Uf8AhQXf/wAcoA66iuR/4VzYf9BzxR/4UF3/APHKP+Fc2H/Qc8Uf+FBd/wDxygDrqK5H/hXNh/0HPFH/AIUF3/8AHKP+Fc2H/Qc8Uf8AhQXf/wAcoA66iuF8P6e+h/FC+0uDU9Vu7M6PDciO/wBQludshmkUkeYxxwo6V3VABRRRQAUUUUAFFFFABRRRQAUUUUAFFFFABRXDeIrB9c+J+m6VNqeqWln/AGPc3Jj0+/ltt0izQqCfLYZwHbr61b/4VzYf9BzxR/4UF3/8coA66iuR/wCFc2H/AEHPFH/hQXf/AMco/wCFc2H/AEHPFH/hQXf/AMcoA66iuR/4VzYf9BzxR/4UF3/8co/4VzYf9BzxR/4UF3/8coA66iuR/wCFc2H/AEHPFH/hQXf/AMco/wCFc2H/AEHPFH/hQXf/AMcoA66iuR/4VzYf9BzxR/4UF3/8co/4VzYf9BzxR/4UF3/8coA66iuR/wCFc2H/AEHPFH/hQXf/AMco/wCFc2H/AEHPFH/hQXf/AMcoA66iuR/4VzYf9BzxR/4UF3/8co/4VzYf9BzxR/4UF3/8coA66iuR/wCFc2H/AEHPFH/hQXf/AMco/wCFc2H/AEHPFH/hQXf/AMcoA66iuR/4VzYf9BzxR/4UF3/8co/4VzYf9BzxR/4UF3/8coA66iuR/wCFc2H/AEHPFH/hQXf/AMco/wCFc2H/AEHPFH/hQXf/AMcoA66iuR/4VzYf9BzxR/4UF3/8co/4VzYf9BzxR/4UF3/8coA66iuR/wCFc2H/AEHPFH/hQXf/AMco/wCFc2H/AEHPFH/hQXf/AMcoA66iuR/4VzYf9BzxR/4UF3/8co/4VzYf9BzxR/4UF3/8coA66iuR/wCFc2H/AEHPFH/hQXf/AMco/wCFc2H/AEHPFH/hQXf/AMcoA66iuR/4VzYf9BzxR/4UF3/8co/4VzYf9BzxR/4UF3/8coA66iuR/wCFc2H/AEHPFH/hQXf/AMco/wCFc2H/AEHPFH/hQXf/AMcoA66iuR/4VzYf9BzxR/4UF3/8co/4VzYf9BzxR/4UF3/8coA66iuR/wCFc2H/AEHPFH/hQXf/AMco/wCFc2H/AEHPFH/hQXf/AMcoA66iuR/4VzYf9BzxR/4UF3/8co/4VzYf9BzxR/4UF3/8coA66iuR/wCFc2H/AEHPFH/hQXf/AMco/wCFc2H/AEHPFH/hQXf/AMcoA66iuR/4VzYf9BzxR/4UF3/8cp3wzlnl8Cw/arq4u5Ir6+hE11M0sjKl5MiguxJOFUDn0oA6yiiigCC0/wBS3/XWT/0M1zOsf8lc8Lf9gzU//Q7SumtP9S3/AF1k/wDQzXM6x/yVzwt/2DNT/wDQ7SgDraKKKACiiigAooooAKKKKACiiigAooooAKKKKACiiigAooooAKKKKACiiigAooooAKKKKACiiigAooooAKKKKACiiigAooooAKKKKACiiigDkvh1/wAgrWf+xg1L/wBKpK62uS+HX/IK1n/sYNS/9KpK62gAooooAKKKKACiiigAooooAKKKKACiiigArkfif/yIcv8A1/2H/pZDXXVyPxP/AORDl/6/7D/0shoA66iiigAooooAKKKKACiiigAooooAKKKKACiiigAooooAKKKKACiiigAooooAKKKKACiiigAooooAKKKKACiiigAooooAKKKKACiiigAooooA5KH/AJLRef8AYv2//pRNXW1yUP8AyWi8/wCxft//AEomrraACiiigAooooAKKKKACiiigAooooAKKKKAORuf+S0ab/2L93/6UW9ddXI3P/JaNN/7F+7/APSi3rrqACiiigAooooAKKKKACiiigAooooAKKKKACiiigAooooAKKKKACiiigAooooAKKKKACiiigAooooAKKKKACiiigAooooAKKKKACiiigArkvhj/wAiOP8AsJ6l/wCl09dbXJfDH/kRx/2E9S/9Lp6AOtooooAgtP8AUt/11k/9DNczrH/JXPC3/YM1P/0O0rprT/Ut/wBdZP8A0M1zOsf8lc8Lf9gzU/8A0O0oA62iiigAooooAKKKKACiiigAooooAKKKKACiiigAooooAKKKKACiiigAooooAKKKKACiiigAooooAKKKKACiiigAooooAKKKKACiiigAooooA5L4df8AIK1n/sYNS/8ASqSutrkvh1/yCtZ/7GDUv/SqSutoAKKKKACiiigAooooAKKKKACiiigAooooAK5H4n/8iHL/ANf9h/6WQ111cj8T/wDkQ5f+v+w/9LIaAOuooooAKKKKACiiigAooooAKKKKACiiigAooooAKKKKACiiigAooooAKKKKACiiigAooooAKKKKACiiigAooooAKKKKACiiigAooooAKKKKAOSh/wCS0Xn/AGL9v/6UTV1tclD/AMlovP8AsX7f/wBKJq62gAooooAKKKKACiiigAooooAKKKKACiiigDkbn/ktGm/9i/d/+lFvXXVyNz/yWjTf+xfu/wD0ot666gAooooAKKKKACiiigAooooAKKKKACiiigAooooAKKKKACiiigAooooAKKKKACiiigAooooAKKKKACiiigAooooAKKKKACiiigAooooAK5L4Y/8AIjj/ALCepf8ApdPXW1yXwx/5Ecf9hPUv/S6egDraKKKAILT/AFLf9dZP/QzXM6x/yVzwt/2DNT/9DtK6a0/1Lf8AXWT/ANDNczrH/JXPC3/YM1P/ANDtKAOtooooAKKKKACiiigAooooAKKKKACq2o6ha6TpdzqOoS+Ta2kTTTSbS2xFGScAEngdqs1zfxG/5Jh4m/7BVz/6Lapm+WLZcIqUkmc1/wANB/DH/oZv/JC5/wDjdbfhv4p+CfF18LPQPEFtc3TfdgdXhd/91ZApb8K+e/gr4a+Fes+Dbq4+Ic+lx6kt8yRC81ZrVvK2IRhRIuRktzj+VUviZ4d8Had428NW/wAGbmOfU5pfmj0+8a5VJAy+Wwcs2DndkZ4AzxWvLaai+tvxM9XFtdD6g8WeOPDvga0t7rxTqH2GG5kMcTeRJJuYDOMIpI49a24J47m2jngbdFKgdGxjIIyDzXgn7V27/hDfD3mY3fbX3Y9fLr1e98V6T4M+HdprOv3HkWsNpEOBlpGKDCKO7H/65wBmsoy0k30aX4XHreKXVX/E6iivDR+0hcmH+1B8O9cPh7POqZO3GcZ+5s/8fr1bw14x0TxZ4YTX9HvFexKkyNJ8phKjLK47Ed/z6VXS4dbG5SMwVSzcADJrxW8/aLF1fXS+CvBOr+JLCzOJ72EMiKP72FjfAwCfm2123w/+Jui/ErQbq60gS29xbDbc2k+N8ZIODkcFTg4Pt0FJ35W10H1szS8J/EDwz45a8Xwtqf242RUXH+jyx7N2dv31GfunpnpXR18w/s163p/hzTPHOraxcLbWdqLZ5ZG9MzcAdyTwB3Jr1n4ZfFDUfiVPd3Nv4WbTtFt2KR3895uaZs8BYxGBnHX5sDpk1pKKTsuyf3oUtG/Wx6LVbUdQtNJ0241DUp1t7S2jaWaV+iKBkmrNfOnxb0b4i+LYfE9zq1yuleEdFWWW1gVdpvtn3SVzk8jq2B3UGsZSa2Kik9z3Pwx4q0bxlo41Xw3efbLIyNH5vlPH8w6jDgHv6VsV5B+zJ/yR5f8Ar/n/APZa9fraceV29PyMoScld93+YUUUVBYUUUUAFFFFABRRRQAUUUUAFFFFABRRRQByXw6/5BWs/wDYwal/6VSV1tcl8Ov+QVrP/Ywal/6VSV1tABRRRQAUUUUAFFFFABRRRQAUUUUAFFFFABXI/E//AJEOX/r/ALD/ANLIa66uR+J//Ihy/wDX/Yf+lkNAHXUUUUAFFFFABRRRQAUUUUAFFFFABRRRQAVk+JfFGj+D9FbVvEV59jskdUaXynkwzHAGEBP6VrV5N+0r/wAkZuv+vyD/ANCqKknFXXdfiyoq7ND/AIaD+GP/AEM3/khc/wDxuup8MeO/DHjON28M6zb35jG541JWRB6lGAYD3xXiXgPwd8Eb7wFo914mutFXVpbZWu1n11oXD98p5o2n2wKwfC+kaPY/tR2EHwsuGuNIhG+5eGVpYo02HzFD5O5emCSfmI56Vqkufkf9f8Az5vc50fQ+ufEHwx4c8SWOg6zqf2bU9Q2fZoPs8r+ZvcovzKpUZYEckV0lfN3xu/5OO8Df9un/AKVNXsXxC+JehfDfS4rrW2klnuCVt7S3AMkpHU8kAKMjJP6nipVvZqT7tfcaSjafKuyf3o6+ivEof2jJLGeCXxh4C1rQdMuWCw30gZ1fPOcMiZGOflJP1r1PUfF2h6X4RbxPdX8f9kLCJ1uU+YOrfd2juTkAD1ND0V2StXZG1VLWdYsdA0a61XV5/s9laRmSaXYzbFHfCgk/gK8Yk/aUmMDara/D7WZfDqttOqsxVRzjshTOeMb+tdL418WaV42/Z417W9ClaS1nsXG112vGwIyjDsR/+rIqKjcacprohxs5KL6nc+GvFGj+L9FTVvDt39ssXdkWXynjyVOCMOAf0rWrwD4VePNK+Hv7OMGr6uxdvtc6W9shw9xJu4Uenuew/KvUvh14v1bxv4cGtan4d/sO3nINqj3ZmeZP75Gxdq+nXPXpjOrWrt0t+JCel35/gdbXGa58XvAfhvU20/V/EltFdo2144kebyz6MUUhT9cV0mu21/eeHtQttHuEtb+a3eO3nfOIpCpCtx6HmvGvBn7Nmg6do163xCEeq38kjMtxBdSxpFHjr/Dls5JzkdPeo1u+yL0sezaRrWm6/pseoaJfQX1pJ92aBwyk9xx0I9OtXq+cf2XhPB4i8W2lhO8+iRMnlSN0Zt7BGHbJQc/hX0dVO1k11JTd2n0CiiikMKKKKACiiigAooooAKKKKACiiigDkof+S0Xn/Yv2/wD6UTV1tclD/wAlovP+xft//SiautoAKKKKACiiigAooooAKKKKACiiigAooooA5G5/5LRpv/Yv3f8A6UW9ddXI3P8AyWjTf+xfu/8A0ot666gAooooAKKKKACiiigAooooAKKKKACiiigAooooAKKKKACvO7r49fDazu5rW58SbJoZGjkX7DcnawOCMiPHUV6JXyD8NtE8B618Q/FqfEeWxjt453NqbzUDagsZWzgh13cY45qbt1FHyb+6w3ZRv6fifQek/Gz4d61fJZ2Hie386QhVFxFLACT0G6RVH611Wva/pvhjQ7jWNcufsthbAGWby2faCwUcKCTyR0FfMXxj8MfCLSfB0c3gS9sm1g3CqkVhqTXfmL/FuBdtoA5B454r0PxjDqdv+yGYtd8wX6adaiUS53j97HgNnnIGM+9Nv3HJdHYcI3qxg+v+dj1jw74j0rxXocOsaBdfa7CcsI5vLZN21ip4YA9Qe1adeVfAa+tdM+AGm32oTpb2tuLmSWWQ4VFEzkk1jy/tGSahdTv4O8Ba1r+m2zFZr2MMoUDvhUfAxz8xU+uKuaUZuKIjdq57bRXIfD34maD8SNMludEeSK4tyBcWdwAJIs9DwSCDg4I/Sua8Y/HOy0HxPJ4b8M6Bf+Kdag/11vZAhYyOq5CsSR3wuB65ziXo7Ma1V0eqVzll4/8ADOoeMrjwpZ6l5mtWoYzWvkSjbtAJ+crtPUdDXLfD/wCNmmeNNfk8PalpV3oGuxgn7FdnO4gZZQSAdwHOCo4rzzwhIkX7YfiSSV1REiuGZmOAoCJkk0vtqL2ab+4Tfutre6X3n0fRXlvhr4zyeNviBcaD4R8ONfaXat+/1mS7MUar0LBPLOcnO0ZBbrwM49Sp9E+4+tjK8Q+KNE8J6b9v8R6lb6fb52q0zcufRVHLH2ANUfC3xA8LeNRJ/wAIxrMF88Qy8QDJIo9djgNj3xiuK+Inwhn8f/EPS9Y1rVIf+EdsYtk1gSyPjlmIYcfMdoJ4wB1ry3SNE0a0/ae0mD4SSedpdsqSXklvO00Ma4IlHmEnKlSB1PzHFEPekk+v4eb8gn7sW10/qyPqqiiigAooooAKKKKACiiigArkvhj/AMiOP+wnqX/pdPXW1yXwx/5Ecf8AYT1L/wBLp6AOtooooAgtP9S3/XWT/wBDNczrH/JXPC3/AGDNT/8AQ7SumtP9S3/XWT/0M1zOsf8AJXPC3/YM1P8A9DtKAOtooooAKKKKACiiigAooooAKKKKACub+I3/ACTDxN/2Crn/ANFtXSVm+I9I/wCEg8Mano/n/Z/t9rJbeds3eXvUruxkZxnpkVE03FpF02lNN9z5f+CvwU8OfEfwbdatrl7qkE8N81uq2csaqVCI2SGjY5yx70/4neArX4G3Gka/4F8SX0WoSTGMwXMkbSFdpJb5VXKcYIII5Fbv/DI3/U7f+Un/AO3Vq6B+yno1hqUVxr3iC41WCNgxt4rYW6yY7Md7HHrjB9xWrd5Jx02/r5meyd9TI/aH1abXvhF4J1a5iEM18VuJIx0VmhBIGe2TSftKfav+EG8EYLfYdh80Dp5nlJtz7434/GvVPin8Ko/iToWmaZDqi6PHp8pdCtr5oI27QoG9cYroNc8FaT4n8Gr4b1+L7VarEiB1+RlZRgOp52n8/TkVn1m0vtJpeSRUdHG/Zr7yzD/Y/wDwhKbPJ/sX7AMdPL8jy/yxtr5g+FH9o/8AClvicbTzfsX2VfJx/e2v5mP+Abc/hXo3/DOFwIf7LX4h64PDuedL5xjOcZ37P/HK9W8N+ENF8KeGY9A0ezVLBVIdH+YzFvvM5/iJ7/l04qpLmU3/ADKwovlUY9nf/hjzr9mQ2p+ECi32eaL6b7Rt67uMZ/4Dt/CvTdNOj/2XKvh/7D9mXcCLLZsDc5Hy8Zrye7/Z1+x6jcy+CPG2r+GrO7bM9nAWZWH90FXQ45ON26uz+HXwp0T4b6ddRaXJNdXl4ALi8uMbmA6KAOFXJJx19SeKJvnT9BRXLp5nyD4a8JeJvFmleIV8PhnsdPQXl7EHwJCu/YAo+82DJgfX2r6u+BPivT/E3wusIrGGG1n0xBaXVtEoUKwHD4/2h82fXPpS/Cf4Sf8ACsJNYY61/ao1MxHH2TyfL2b/APbbOd/t0png74Q/8IP8RdT8QaHrnl6XqW7zdINp8qgnIxJv/hbOPl6Ej3q7pPl6NL71/Vhz1k5Lv+DPSq4/4s/8kh8Uf9g2X/0GuwrH8W6D/wAJR4Q1TQ/tP2X+0LZ4PP8AL3+XuGM7cjP0yKxqJuDSKg7STZ5x+zJ/yR5f+v8An/8AZa9frkPhl4D/AOFc+DxoX9o/2li4ebz/ACPK+9jjbub09a6+tptN6eX5GNNOMbPu/wAwoooqDQKKKKACiiigAooooAKKKKACiiigAooooA5L4df8grWf+xg1L/0qkrra5L4df8grWf8AsYNS/wDSqSutoAKKKKACiiigAooooAKKKKACiiigAooooAK5H4n/APIhy/8AX/Yf+lkNddXI/E//AJEOX/r/ALD/ANLIaAOuooooAKKKKACiiigAooooAKKKKACiiigAryb9pX/kjN1/1+Qf+hV6zXJfErwN/wALD8GS6B/aP9neZNHL5/kebjac427l6/Ws6kXKNl3X5oqLSevmeP8AgP8AZz8I+KPAWj63qGo61Hc31ss0iQTxBAT6AxE4/E1zmo28vwI+Mmmad4M1ye/s7/yftljMyuxDPt2OFAG7HKnAIz6dd7/hkb/qdv8Ayk//AG6uu8Bfs4aF4P1631jUtTm1m7tWDwK0IhiRx0YrliSOo5x7Vun76lsv60MmnyOO7/Xucl8bv+TjvA3/AG6f+lTUnxSMX/DVXhUa+R/Zu228sSfcHzvjOePv4zXpXjf4R/8ACZfEfQ/Ff9t/Yv7J8n/Rfsnmeb5cpk+/vG3OcdDWz8QvhnoPxI0yK21xJYp7ck293bkLJFnqOQQVOBkEfkeaiPuxg+qk2a1LTcl3il+BQ+OH2D/hTPiD+09mzyB5O7H+t3DZj33Y/WvBNWGqD9kDRvO8zyP7Zbb1/wBTmTGfbfn9K9Nh/Z0e+uYI/F/jzWte0u2YNDYSMyquOMZZ2wMcfKFOO4r1PUfCWiap4SfwzdWEX9kNCIBbINoRR93b6EYBB9RUuOkrdbfg7/eCeqv0v+KsYvgD+ym+C2gfa/sp07+yIftHnbfKwIxv3Z4xnOc+9Vviq1o/wQ8RHTjC1t9gbyzARsxkdMcVw7fs23EcD6XY/EPWoPD7tltLKkqQTk5w4Qn32V3SfCrSNP8AhVfeB9BleygvImR7uVPNkZ2xmRgCu48AYGBwKdf95GbW7voTT9xxXY+R7Lw34lPgO18YzW63fh/Sb1Yo7edtyHL5c7P7hbCse+QO3H2z4S8RWHivwnp+taSVFrdQhlQY/dkcMhx3Ugj8KwPBnwztPDHwzl8GaldjVrSfzhLIYPK3LJ1G3c2CPXNQfCv4a3fwzsL7Tj4hOq2FxKJYYXtPKMDdCQd7ZyMdhyM960utY9NGvXqiLPSXXX7uh35IAJJwB1Jr5/8AFvi7XfjP4kuPBHw4l+z6FAduqaxyFkXoVB67TggAcv7Lk17V4p0e48QeFdS0izvzp0t9btALoR7zEGGCQuRnjPcV4H/wyN/1O3/lJ/8At1Zby1Whre0dNz3DwN4I0nwB4Zi0bRUOxTvmnfG+eQ9Xb+WOwAFdFXlfwn+Cv/Cr9Zv7/wDt/wDtT7ZbiHy/sXk7MMGznzGz0r1StJO+tzOOmlgoooqSgooooAKKKKACiiigAooooAKKKKAOSh/5LRef9i/b/wDpRNXW1yUP/JaLz/sX7f8A9KJq62gAooooAKKKKACiiigAooooAKKKKACiiigDkbn/AJLRpv8A2L93/wClFvXXVyNz/wAlo03/ALF+7/8ASi3rrqACiiigAooooAKKKKACiiigAooooAKKKKACiiigAooooAK+Qfht8M9G+JfxD8W2uu3N9bpZTvJGbORFJLSsDncjelfX1fO+p/sp/wBo6veX3/CZeX9pnebZ/Zedu5icZ87nrUWftFK2ln+g38FvNGb8SfgV4d+Hng6fxN4f8Rana6jYuj24u54/3jbhwhVVIbuMZ6Vr3/i3U/Gf7IGqanrh8y9UrA823b52y4jAfHTOODjuDUNl+yTZx3KtqPi6e4gz8yQWAiYj2YuwH5V6trvw107UPhTN4F0WUaVZNEkccvl+aU2yBySMjcSQcnPU5qpJ8jW9xwaVSEtrPU8VY3Q/Ylj+yFgv2g+dt/55/azn8M4r1v4E/YP+FL6D/ZmzHlt5+3r5u878++f0xWp4L+H9r4W+G8Xg/UJ01e1VZUleSDy1lWR2YgrubH3sda4CX9nNtPuJ08HePNb0DTrlt01lGzOHB7ZV0yMcfMGP1q5P35W62M1HReV/x/U5v4cbP+GsvE//AAj+P7O23Hn+X9zquenH+s6U79nIr/wtLxuL/H9olj9/7/8Arm8z9dufwr2D4ffDTQfhxpclroiSSz3BBuLycgyykdBwAABk4A/U81zXjL4GWXiDxO/iTw1r194X1qXma4sslXJ6tgMpDEdcNg+nWoS5HC2tk0U/eUvNp/ceiQf2MutXItfsI1NgpuRHs848DaXx83TGM9q+R/F2ga94p/aK8S6J4XkMd1ezPHMxk2KIdql9x/u8DIHXp3r3jwL8DtN8J+JT4k1jWL3xFrnJW7u+ArEYLYJYlscZLGrWjfCX+yPjJqPjz+2vO+3LIPsP2Tbs3BR/rN5zjb/dFLl/eJvaz/SwOT5Xbujjv2Z9et7XTdW8FX1pHZazpty8si7QHnXO1t3qUYY+hWvd6801f4QfaPi1a+PNA1z+yLpCpurb7J5q3OPlbJ3rjcvB4PTPWvS60cnJJvfqK1m0tjhNZ+J/ha38cr4D1Y3Ud7ejyWdk2Q4dCQN+4Hn7ox3OK8c8eQWXwZ+Kvh5PhpcTWn23b/aGkpcvKkg3gKGViTlgWAz0xkYr1z4m/BzQ/iWIbi7ml0/U7dPLjvIVDZXOdrqfvAHOOQRnrWB8Pv2dNC8F63DrGpajLrd9bNvt98Ihijbs2zLEsO2TjvjOKmnpJSfTfzXYdTWLS6r7n3PYaKKKACiiigAooooAKKKKACuS+GP/ACI4/wCwnqX/AKXT11tcl8Mf+RHH/YT1L/0unoA62iiigCC0/wBS3/XWT/0M1zOsf8lc8Lf9gzU//Q7SumtP9S3/AF1k/wDQzXM6x/yVzwt/2DNT/wDQ7SgDraKKKACiiigAooooAKKKKACiiigAooooAKKKKACiiigAooooAKKKKACiiigAooooAKKKKACiiigAooooAKKKKACiiigAooooAKKKKACiiigDkvh1/wAgrWf+xg1L/wBKpK62uS+HX/IK1n/sYNS/9KpK62gAooooAKKKKACiiigAooooAKKKKACiiigArkfif/yIcv8A1/2H/pZDXXVyPxP/AORDl/6/7D/0shoA66iiigAooooAKKKKACiiigAooooAKKKKACiiigAooooAKKKKACiiigAooooAKKKKACiiigAooooAKKKKACiiigAooooAKKKKACiiigAooooA5KH/AJLRef8AYv2//pRNXW1yUP8AyWi8/wCxft//AEomrraACiiigAooooAKKKKACiiigAooooAKKKKAORuf+S0ab/2L93/6UW9ddXI3P/JaNN/7F+7/APSi3rrqACiiigAooooAKKKKACiiigAooooAKKKKACiiigAooooAKKKKACiiigAooooAKKKKACiiigAooooAKKKKACiiigAooooAKKKKACiiigArkvhj/wAiOP8AsJ6l/wCl09dbXJfDH/kRx/2E9S/9Lp6AOtooooAgtP8AUt/11k/9DNczrH/JXPC3/YM1P/0O0rprT/Ut/wBdZP8A0M1zOsf8lc8Lf9gzU/8A0O0oA62iiigAooooAKKKKACiiigAooooAKKKKACiiigAooooAKKKKACiiigAooooAKKKKACiiigAooooAKKKKACiiigAooooAKKKKACiiigAooooA5L4df8AIK1n/sYNS/8ASqSutrkvh1/yCtZ/7GDUv/SqSutoAKKKKACiiigAooooAKKKKACiiigAooooAK5H4n/8iHL/ANf9h/6WQ111cj8T/wDkQ5f+v+w/9LIaAOuooooAKKKKACiiigAooooAKKKKACiiigAooooAKKKKACiiigAooooAKKKKACiiigAooooAKKKKACiiigAooooAKKKKACiiigAooooAKKKKAOSh/wCS0Xn/AGL9v/6UTV1tclD/AMlovP8AsX7f/wBKJq62gAooooAKKKKACiiigAooooAKKKKACiiigDkbn/ktGm/9i/d/+lFvXXVyNz/yWjTf+xfu/wD0ot666gAooooAKKKKACiiigAooooAKKKKACiiigAooooAKKKKACiiigAooooAKKKKACiiigAooooAKKKKACiiigAooooAKKKKACiiigAooooAK5L4Y/8AIjj/ALCepf8ApdPXW1yXwx/5Ecf9hPUv/S6egDraKKKAILT/AFLf9dZP/QzXM6x/yVzwt/2DNT/9DtK6a0/1Lf8AXWT/ANDNczrH/JXPC3/YM1P/ANDtKAOtooooAKKKKACiiigAooooAKKKKACiiigAooooAKKKKACiiigAooooAKKKKACiiigAooooAKKKKACiiigAooooAKKKKACiiigAooooAKKKKAOS+HX/ACCtZ/7GDUv/AEqkrra5L4df8grWf+xg1L/0qkrraACiiigAooooAKKKKACiiigAooooAKKKKACuR+J//Ihy/wDX/Yf+lkNddXI/E/8A5EOX/r/sP/SyGgDrqKKKACiiigAooooAKKKKACiiigAooooAKKKKACiiigAooooAKKKKACiiigAooooAKKKKACiiigAooooAKKKKACiiigAooooAKKKKACiiigDkof8AktF5/wBi/b/+lE1dbXJQ/wDJaLz/ALF+3/8ASiautoAKKKKACiiigAooooAKKKKACiiigAooooA5G5/5LRpv/Yv3f/pRb111cjc/8lo03/sX7v8A9KLeuuoAKKKKACiiigAooooAKKKKACiiigAooooAKKKKACiiigAooooAKKKKACiiigAooooAKKKKACiiigAooooAKKKKACiiigAooooAKKKKACuS+GP/ACI4/wCwnqX/AKXT11tcl8Mf+RHH/YT1L/0unoA62iiigCC0/wBS3/XWT/0M1zOsf8lc8Lf9gzU//Q7SumtP9S3/AF1k/wDQzXM6x/yVzwt/2DNT/wDQ7SgDraKKKACiiigAooooAKKKKACiiigAooooAKKKKACiiigAooooAKKKKACiiigAooooAKKKKACiiigAooooAKKKKACiiigAooooAKKKKACiiigDkvh1/wAgrWf+xg1L/wBKpK62uS+HX/IK1n/sYNS/9KpK62gAooooAKKKKACiiigAooooAKKKKACiiigArkfif/yIcv8A1/2H/pZDXXVyPxP/AORDl/6/7D/0shoA66iiigAooooAKKKKACiiigAooooAKKKKACiiigAooooAKKKKACiiigAooooAKKKKACiiigAooooAKKKKACiiigAooooAKKKKACiiigAooooA5KH/AJLRef8AYv2//pRNXW1yUP8AyWi8/wCxft//AEomrraACiiigAooooAKKKKACiiigAooooAKKKKAORuf+S0ab/2L93/6UW9ddXI3P/JaNN/7F+7/APSi3rrqACiiigAooooAKKKKACiiigAooooAKKKKACiiigAooooAp6vqcOi6Je6pdLI8FlbyXEixgFiqKWIAJAzgeorndA+JOj+I9a07S7K2vo5tQ0hdXiaaNAqwltoViGJ357AEe9dReWsV9Yz2lwMxTxtG4HdWGD/OuXh+G+jWsUH2W41C3kt9ITSI54LjypRAjBgd6gENkckY78Ur2u3/AFo/1sPS3n/wV+lyfwx46s/F15Muj6ZqZsIy4j1SWFUtpyjbSEO7cec/wgcGunrxP4U6NqNr8Cft3h7W5LLULsTL52pXTPbWarcSBpEjOVVtuT0wTyaqa54k0fw1eaXd+EfiRqOuan9vghurOXUftsFxE7hXyoBSM88Fdv51bVpcnyCXu83lf8D2GXX0h1DUraXT9QSPT7VblrpoMQzAhiVjfPzMNvI4xkViRfEzRpj4XC218P8AhJ7eS4s8xp+7VI95Enz8HB4xu5rJnv7yX4ieOrGW7ne0g0G3eK3aQmONmWXcVXoCcDJHXFP+Hfhyw1b4e+AtUvFc3GlacGt8EY/eQ7Gzx6emKxhJyv8A11kv0QOydv62X+Z1Pg/xVZeNvCtpr+lQ3ENrd7/LS5VVkG1ypyFJHVT3rbrM8OaBZeFvDtpoul+Z9ltEKR+YQWOSSckAdye1adaytfTYlXtqFFFFIYUUUUAFFFFABRRRQAUUUUAFFFFABRRRQAVyXwx/5Ecf9hPUv/S6eutrkvhj/wAiOP8AsJ6l/wCl09AHW0UUUAQWn+pb/rrJ/wChmuZ1j/krnhb/ALBmp/8AodpXTWn+pb/rrJ/6Ga5nWP8Akrnhb/sGan/6HaUAdbRRRQAUUUUAFFFFABRRRQAUUUUAFFFFABRRRQAUUUUAFFFFABRRRQAUUUUAFFFFABRRRQAUUUUAFFFFABRRRQAUUUUAFFFFABRRRQAUUUUAcl8Ov+QVrP8A2MGpf+lUldbXJfDr/kFaz/2MGpf+lUldbQAUUUUAFFFFABRRRQAUUUUAFFFFABRRRQAVyPxP/wCRDl/6/wCw/wDSyGuurkfif/yIcv8A1/2H/pZDQB11FFFABRRRQAUUUUAFFFFABRRRQAUUUUAFFFFABRRRQAUUUUAFFFFABRRRQAUUUUAFFFFABRRRQAUUUUAFFFFABRRRQAUUUUAFFFFABRRRQByUP/JaLz/sX7f/ANKJq62uSh/5LRef9i/b/wDpRNXW0AFFFFABRRRQAUUUUAFFFFABRRRQAUUUUAcjc/8AJaNN/wCxfu//AEot666uRuf+S0ab/wBi/d/+lFvXXUAFFFFABRRRQAUUUUAFFFFABRRRQAUUUUAFFFFABRRRQAUHlTRRSaurAeO23w78Ry/s/WPhqS2hi1W1vDcy2E8ymO5QXLSeUzKSMMpH9al8WaX418U+FbSy03wda6Fb2V5bXL2JvoWkuPLkU7E2YjVQMtktk7QMc167RVXvLm87/P8ApDk+Ztvrf8f+HODbw5qrePvF+pC0/wBE1LRoLa1k8xP3kiiTcuM5GNw5OBzWz8PtKvND+HOg6XqkPkXlpYxRTxbg2xwuCMqSD+Bro6KiMVG9v61b/Vierv8A10X6BRRRVAFFFFABRRRQAUUUUAFFFFABRRRQAUUUUAFFFFABXJfDH/kRx/2E9S/9Lp662uS+GP8AyI4/7Cepf+l09AHW0UUUAQWn+pb/AK6yf+hmuZ1j/krnhb/sGan/AOh2ldNaf6lv+usn/oZrmdY/5K54W/7Bmp/+h2lAHW0UUUAFFFFABRRRQAUUUUAFFFFABRRRQAUUUUAFFFFABRRRQAUUUUAFFFFABRRRQAUUUUAFFFFABRRRQAUUUUAFFFFABRRRQAUUUUAFFFFAHJfDr/kFaz/2MGpf+lUldbXJfDr/AJBWs/8AYwal/wClUldbQAUUUUAFFFFABRRRQAUUUUAFFFFABRRRQAVyPxP/AORDl/6/7D/0shrrq5H4n/8AIhy/9f8AYf8ApZDQB11FFFABRRRQAUUUUAFFFFABRRRQAUUUUAFFFFABRRRQAUUUUAFFFFABRRRQAUUUUAFFFFABRRRQAUUUUAFFFFABRRRQAUUUUAFFFFABRRRQByUP/JaLz/sX7f8A9KJq62uSh/5LRef9i/b/APpRNXW0AFFFFABRRRQAUUUUAFFFFABRRRQAUUUUAcjc/wDJaNN/7F+7/wDSi3rrq5G5/wCS0ab/ANi/d/8ApRb111ABRRRQAUUUUAFFFFABRRRQAUUUUAFFFFABRRRQAUUUUAFeaah53xC+JuqeGri8ubfw94fghN5b2srRNfTygsFd1IbYqj7oIyTz2r0uvMPtkHw++MGs3uvSfZdF8UxwPBfy8Qw3MSlDE79E3Lggng4oVubX+n/V/nYevK7f0v6/C4eLPANn4O8N3niP4eB9D1PS4mujFBK/kXiINzRyxk7WyueeoODmud8d6l4b8VeKvhhqfiX7HHoeoW13cSi/kVIlDQIyhmJA4bA+tdl8RfG2mp4Vu9F0K8h1TXdXga0sbGzkEsjNIpXeQudqqCWLHA4rmtQ8OQ6L47+EegXSx3SWVpeQPvUMrlbZcnB9xmqhdy1/rSV/0Hol8n+lv1MzxpYfCix8K3dz4Hu9Lh8Ron/EsOgXu+6af+BQsTEkE4zkYxXtGgvfv4d059ZUJqLWsZulHQS7RvH55rzz4j6A/hGW3+IHg2zjgu9LI/tS1t0CLe2f8YYDgsvUHsM+gr0bSdUtNb0e01TTZRNaXcSzRSDupGRSi/dfr/X3/p5ENe8v6/q36+ZcooopDCiiigAooooAKKKKACiiigAooooAKKKKACiiigArkvhj/wAiOP8AsJ6l/wCl09dbXJfDH/kRx/2E9S/9Lp6AOtooooAgtP8AUt/11k/9DNczrH/JXPC3/YM1P/0O0rprT/Ut/wBdZP8A0M1zOsf8lc8Lf9gzU/8A0O0oA62iiigAooooAKKKKACiiigAooooAKKKKACiiigAooooAKKKKACiiigAooooAKKKKACiiigAooooAKKKKACiiigAooooAKKKKACiiigAooooA5L4df8AIK1n/sYNS/8ASqSutrkvh1/yCtZ/7GDUv/SqSutoAKKKKACiiigAooooAKKKKACiiigAooooAK5H4n/8iHL/ANf9h/6WQ111cj8T/wDkQ5f+v+w/9LIaAOuooooAKKKKACiiigAooooAKKKKACiiigAooooAKKKKACiiigAooooAKKKKACiiigAooooAKKKKACiiigAooooAKKKKACiiigAooooAKKKKAOSh/wCS0Xn/AGL9v/6UTV1tclD/AMlovP8AsX7f/wBKJq62gAooooAKKKKACiiigAooooAKKKKACiiigDkbn/ktGm/9i/d/+lFvXXVyNz/yWjTf+xfu/wD0ot666gAooooAKKKKACiiigAooooAKKKKACiiigAooooAKK4/xV4o1bRvG/hfSNPtYJbPVvtQuZJEYuhii3rtIYAZOc5B/CuN/wCFzXsPwz8O6jfvoVp4j1y4EYguZzFBbRGR1E7oXL+WAnJzjJ6ijdX/AK/rQbVvzPYqjuLeG7t3guoY54ZBteORQysPQg8GsWz8Q22n+GLPUfFOu6LH5y7vtsEwhtZQeVKF3PG3H8Rqzcazb3fhi71PQdS02dVt5Hgu5Jw1qGCkgu6n7gPUg9M0S0v5BHVrzJNK8O6LoW/+xNHsNO8z7/2S1SLd9doGasT6bY3N9bXtzZ2813abvs88kStJDuGG2MRlcjg461yE/jHVLXxF4D0xzpd0viCGdr24tCzxlo4BIGgbd9wseCQcjFdhaajZagZxYXlvdG2laCfyZVfypB1RsHhhkZB5qmmv6+QrWV+/9foTSxJNE8UyLJG6lXRxkMD1BHcVBp+m2Ok2MdlpVnb2VrHnZBbRLHGmTk4VQAOSTUI17SDatcjVbIwJcfZWl+0JtWbdt8snON+4gbeueKWy1vStSW4OnanZ3YtWK3BguEfySOobB+U8d6kC9RWdpniDRtbeVdG1ew1BoTiUWlykpjPvtJx+NecT/EvxRFfXEC6bYkR+MI9DX90+TbMu7efn+/gg56c9KFrJR7/5pfqh20b7f5N/oesUUUUCCiiigAooooAKKKKACiiigAooooAKKKKACuS+GP8AyI4/7Cepf+l09dbXJfDH/kRx/wBhPUv/AEunoA62iiigCC0/1Lf9dZP/AEM1zOsf8lc8Lf8AYM1P/wBDtK6a0/1Lf9dZP/QzXM6x/wAlc8Lf9gzU/wD0O0oA62iiigAooooAKKKKACiiigAooooAKKKKACiiigAooooAKKKKACiiigAooooAKKKKACiiigAooooAKKKKACiiigAooooAKKKKACiiigAooooA5L4df8grWf8AsYNS/wDSqSutrkvh1/yCtZ/7GDUv/SqSutoAKKKKACiiigAooooAKKKKACiiigAooooAK5H4n/8AIhy/9f8AYf8ApZDXXVyPxP8A+RDl/wCv+w/9LIaAOuooooAKKKKACiiigAooooAKKKKACiiigAooooAKKKKACiiigAooooAKKKKACiiigAooooAKKKKACiiigAooooAKKKKACiiigAooooAKKKKAOSh/5LRef9i/b/8ApRNXW1yUP/JaLz/sX7f/ANKJq62gAooooAKKKKACiiigAooooAKKKKACiiigDkbn/ktGm/8AYv3f/pRb111cjc/8lo03/sX7v/0ot666gAooooAKKKKACiiigAooooAKKKKACiiigAooooAiltbeaeGeaCKSWAkxSOgLRkjB2ntkccV5x8UNJ06GbwPFDp9rHGviO2hCJCoATbIdmMfdz26V6ZXP+KvC3/CTTaI/2z7L/ZOqRahjyt/m7Aw2dRtzu689OlC+KL81+YfZku6f5HJa5L4atviU62vh3UvFGuW1lHF9jt4Ynt9NiJJXmQqsbP16kkDsK5TShLb3Hxbtjoq6BG2jpOdMjmSRYna3ly3yfKGYAEgZ+pr0LUfAeop4yvPEfhTxG2i3GpRxx6hDJZLcxz+WMIwBZSrAHGeR7VVs/habO48UTHxBc3cniXTha3Mt3CGkEu1183KlRjD4CAADaOalp8jXk/x/r+umsJJTT84/ha/9djltO/5C3wQ/7Bk//pEldL8JP9f45/7Gu8/klaFt8PPs934Hm/tPd/widtJb7fs+PtW6ARZ+98mMZx83p71E/wAP9UsfEGp3vhfxVNo9nq8/2i9tPsUc5EpADPE7H5CQOchhnnFdFSac211v+Mrr8EZ3/dxj2t+HN/meY6hbpffBfxBbMxCXHjZ4yynnDXijIP411vxYsoNJ07w1oGhaHG1lquqxw3djZeXb/a440LCEsSq4OB1PQYrVt/hLFaeBpfDVvrEnlNrK6mk8kBdgBKsnlnL/ADH5cbs9847V1PizwpZeL9HWxvpJreSGZLm1urdgsttMhyrqTkZH8iaw2il5r8FH/JkJe8/n+Ll/mjznUtK8Q3Wu+Hr/AMO/DV/D11p19H5t1HeWSqbQ/LLGyxyZZcHIGDyOK9YOl6eXZzY2xZpxclvJXJlAAEnT7wAA3deK5CDwFq1/q2nXfjLxXJrcGmTC4tbSKxS1QygELJJtJLkZPA2jPau5qun9eX+Q93/XmFFFFIYUUUUAFFFFABRRRQAUUUUAFFFFABRRRQAVyXwx/wCRHH/YT1L/ANLp662uS+GP/Ijj/sJ6l/6XT0AdbRRRQBBaf6lv+usn/oZrmdY/5K54W/7Bmp/+h2ldNaf6lv8ArrJ/6Ga5nWP+SueFv+wZqf8A6HaUAdbRRRQAUUUUAFFFFABRRRQAUUUUAFFFFABRRRQAUUUUAFFFFABRRRQAUUUUAFFFFABRRRQAUUUUAFFFFABRRRQAUUUUAFFFFABRRRQAUUUUAcl8Ov8AkFaz/wBjBqX/AKVSV1tcl8Ov+QVrP/Ywal/6VSV1tABRRRQAUVk6/wCJ9K8M20curXOx5m2W9vGpkmuH/uxxrlnP0H1rGSTxl4kTfGI/Cdiw+XzEW5vnHqRzFF9D5h+lAHX1m3PiPRLJyl5rGn27L1WW6RSPzNYI+GHh+4+bXX1LXpO7arfyzKf+2eRGPoFArUtfBHhWyQJZ+GtIgUdBHYxD/wBloAs23iXQrxwtprWnTs3QRXaMT+RrTrEufBfha9Qrd+G9InVuoksYmz+a1lH4YeHIPm0Vb7QpOz6Tfy24H/bMNsP4qaAOworkGTxn4cTdHLH4ssl6xyKlteqPZhiKU+xEf1Na3h/xVpXiWKX+zpmW5tztubK4QxXFs3pJG3K/XoexNAGzRRRQAVyPxP8A+RDl/wCv+w/9LIa66uR+J/8AyIcv/X/Yf+lkNAHXUUUUAFFFFABRRRQAUUUUAFFFFABRRRQAUUUUAFFFFABRRRQAUUUUAFFFFABRRRQAUUUUAFFFFABRRRQAUUUUAFFFFABRRRQAUUUUAFFFFAHJQ/8AJaLz/sX7f/0omrra5KH/AJLRef8AYv2//pRNXW0AFFFFABRWVr3iXS/DdvHJqk5Ek7bLe2iQyTXD/wB2ONcsx+g474FYRXxv4kO5ZYfCNgfujYl1fOPfP7qL6fvD9KAOxZ1RSzsFUdSTgCsyfxRoFqxFzrmmwkdRJdxrj8zWJH8MPDUrCXXILjxDcD/lrrVy11+SMfLX/gKitaDwd4YtVAtfDmkwgdBHYxLj8loAs23iDRr1gtnq1jcE9BFco2fyNaFYN14F8JXqkXfhfRpgf+elhEf/AGWsxvhtp9j8/hPUtT8NyjlUsbktb594JN0ePoo+tAHY0Vxo1rxT4XX/AIqixj1rTlPzanpETCWNf70ltkkj1MZb/dFdPpmqWOtabFf6Tdw3lpMMxzQuGVv/AK/YjtQBbooooA5G5/5LRpv/AGL93/6UW9ddXI3P/JaNN/7F+7/9KLeuuoAKKKKACiiigAooooAKKKKACiiigAooooAKKKKACiiigArN1zxDpHhnTzfa/qNvYW2doeZ8bj6KOrH2GTWlXmmhxJ4m+Ovia81RFnTw1FbWmnRvysLSp5kkgHTceBnrjihXbsGiV2dLo3xF8K6/qS6fp2rL9tcZjtrmGS3kkHqiyqpb8M1P4l8caB4RuLODXrySCa+3/Zo4rWadpNmC2BGrHjI61n/FHQbbXfh5qvnIFurG3e8srgcPbzRqXV1bqpyPyrzvVvFNzeeIfhF4jl0671G6uLG6mktbFFMsjNbqG2hmUdSTyRxRGzdv62f+Q7aX8n+H/DnoEfxb8FNcRQzatLaGZtiPe2FxbRk+m+SNVH512YORkcivIPGHjafxvp+oeAdO8I6paazqdqRGNb8i3iRCcGUHzGL7euEBORXqGhac+keHdO02adrmSztY4GmbrIVUKW/HGaa1V/6/pf1sS97F+iiikMKKKKACiiigAooooAKKKKACiiigAooooAKKKKACuS+GP/Ijj/sJ6l/6XT11tcl8Mf8AkRx/2E9S/wDS6egDraKKKAILT/Ut/wBdZP8A0M1zOsf8lc8Lf9gzU/8A0O0rprT/AFLf9dZP/QzXM6x/yVzwt/2DNT/9DtKAOtooooAKKKKACiiigAooooAKKKKACiiigAooooAKKKKACiiigAooooAKKKKACiiigAooooAKKKKACiiigAooooAKKKKACiiigAooooAKKKKAOS+HX/IK1n/sYNS/9KpK62uS+HX/ACCtZ/7GDUv/AEqkrraACud8S+JJ9PuIdH0G3S/1+9Utb27nEcCZwZ5iPuxg/ix+Uc9LXifXx4e0gTxW7Xl7cSLb2Vmhw1xO33Vz2HBJPZVY9qi8L+HP7DtZri+mF5rN+wl1C9I/1r44Vf7sa9FXsPckkAj8O+EYNGuJNT1C4fVdduFxcancKN5H9yNekcY7Iv45PNdDRRQAUUUUAFFFFABWD4j8JWmvPFeQyyadrFqP9E1S2AEsP+yezoe6NkH2PNb1FAHN+HPEV1PeyaF4lhjtNdt03kR58q8izjzoSe2cblPKk4PBBPSVi+JvDkfiGwjEczWeo2j+dYX0Y+e2lxgH3U9GU8MCQaTwtr8muafKl/ALTVbGX7NqFqDkRSgA5U90YEMp7qw75FAG3XI/E/8A5EOX/r/sP/SyGuurkfif/wAiHL/1/wBh/wClkNAHXUUUUAFFFFABRRRQAUUUUAFFFFABRRRQAUUUUARXUkkVnNJAoaVI2ZFPQkDgV5n4L+I/iLxFqXhCDULCyii1rTLm9u2iicGNo5Nq7MucDlc5yee1eo1RXR7CGKMWdnb2rwQtBbyQwqpgRsZVMDgZAOBxwPSls7/1s/8ANfcDV9Nv+HX9fMiPiTQxrH9knWtPGpdPsf2pPO/74zu/Suf8QfEjStA+IGkeG7y90+BbyKaS5nuLxENvtUeWpUnguW4yecHAPbzO40a48I+B7jQPHngE32lQhmk8SaE8cs5O4t57IwDq46l8n8q6vUotK1X4veALq3WK+trvSbyRZ5YwxnXy4ijNkcnBz+NVFXa/ro38tiZtxX3fml+p6HqviLRNCCHXNYsNNEn3DeXSQ7vpuIzUsur6bBpY1KbULWOwIBF086iLBOAd+cckgDnvXmzXXh//AITjxA+i+E9T8Y6s8oivbl44Db2zKoH2dZJSoUAYJUZ68muDuBJD8BfiTZmzGmx22ulY7GOYSLaZkgJjVhxgEnpxSjeW3r+KX67mqjeSj52/r/I9b8b/ABP0Pwr4cvr2z1LS76/tZUg+x/bkDB2YAggEnIBLEYzhT0610ln4i0XUFszY6vYXP24ObXyblH+0bPv7MH5tvfGcd687+K3hrRdG+DFzHp2l2cBhNnGrpAoYgToOTjJ6n8z61oeIreG1+Mnw/htoY4Ylh1HCRqFUfuk7CqS6eb/BXM73Sfkd89/ZxahFYyXcCXkyNJFbtIBJIq43MF6kDIyR0zVGXxZ4dgSB59f0uNbiRo4S95GBK6nayrk8kEEEDoeK5XWiP+F++FxkZGkXxI/4FHWN8JvBnh/UPBuo3ep6bbahNqGo3kczXMYkKxrO6iNc/dXgtgd2JrNNu3o/wdhvRv1X4q53PiPVtS07UtBi0z7C0N/e/Z7hbjcZCnls2Y8HGRtyc9qXwTq2p634Tt77XVsxetLMjmxDeS4SV0Vk3EkgqoOT1zXO/B7MvguS1uP9IXSNSvNPs5pRubyEkKqAx7Ywv4V30UUdvCkMEaxRRqFREUBVA6AAdBVqyXrZ/Kwr3+Wn3N/18h9FFFIYUUUUAFFFFABRRRQAUUUUAFFFFABRRRQByUP/ACWi8/7F+3/9KJq62uSh/wCS0Xn/AGL9v/6UTV1tABXOeKvFL6M9tpmj2w1HX9QyLOz3YVQPvTSkfdiXuepOAOTV3xN4gtvC/h651W7R5REAsUEYy88rEKkajuzMQB9az/B3hy50yKfV9fZJ/EOqYkvZV5WIfwwR+kaA4HqcseTQA/w34Ri0e4fVNUuW1XX7hNtxqMw5A6+XEvSOMHoo69SSea6OiigAooooAKKKKACuP1rwxe6TqE3iHwOqRag7eZe6Yz7LfUx3yOiS+kg6nhsjp2FFAGV4c8RWPifR1v8ATi6gMYpoJl2y28q8NHIv8LKeo/EcEGtWuG8WW0nhHVm8b6REzQBVTXrSMf6+3HAnAHWSIc+6bh2FdtBNFc28c9vIssUqh0dDkMpGQQe4xQBylz/yWjTf+xfu/wD0ot666uRuf+S0ab/2L93/AOlFvXXUAFFFFABRRRQAUUUUAFFFFABRRRQAUUUUAFFFFABRRRQAV57rGlav4S+IN14v0DS5NYsNVt44dWsbZlFwjx5CTRhiA/ynaVyD3Ga9Coo63H0sea+JNc1zx7odx4c8L+HdW05dQQwXmp6vam1jtYW4fajfNI5GQABjnOabrHhqXTviV8NIdIsLh9M0iC8geZImZIF+zhU3sBhc4wM9TXplFOL5Xdf1o1+oulvX8Thvip4TuvEHhuPUtBzH4h0OT7bpsqD5mdeWi9w4GMdziuk8M6vNr3hmx1K70+5024uIg01pdRNHJC/RlKsAeoOD3GDWrRSWia/r+tvuB62YUUUUAFFFFABRRRQAUUUUAFFFFABRRRQAUUUUAFFFFABXJfDH/kRx/wBhPUv/AEunrra5L4Y/8iOP+wnqX/pdPQB1tFFFAEFp/qW/66yf+hmuZ1j/AJK54W/7Bmp/+h2ldNaf6lv+usn/AKGa5nWP+SueFv8AsGan/wCh2lAHW0UUUAFFFFABRRRQAUUUUAFFFFABRRRQAUUUUAFFFFABRRRQAUUUUAFFFFABRRRQAUUUUAFFFFABRRRQAUUUUAFFFFABRRRQAUUUUAFFFFAHJfDr/kFaz/2MGpf+lUldbXJfDr/kFaz/ANjBqX/pVJWx4n1hfD3hPVdXYZ+w2kk6r/eZVJC/icD8aAMTRgPE3jm/1yT57LRmfTdOB6GX/l5lHvnEQPbY/wDersKxfB2jHw/4N0vTJOZoLdfPY9Xmb5pGPuXLH8a2qACiiigAooooAKKKKACiiigArj/EuPDfirTvFMfyWtyyaZquOhR2xBKfdJG25/uyt6CuwrN8RaPF4h8NajpFxwl7bPDu/ullIDD3BwfwoA0q5H4n/wDIhy/9f9h/6WQ1o+CtYl17wRpGpXXF1NbKLkf3Zl+WQfg6sKzvif8A8iHL/wBf9h/6WQ0AddRRRQAUUUUAFFFFABRRRQAUUUUAFFFFABRRRQAUyaFLiCSGZQ0cilHU9wRgin0UmrqzA85Hwy1qLRJPDlt43uk8NyI0P2RrGNrlIWzmIXBPTBIyUJA71p614Aae48PXXhjVBol14fie3tWa1FxG0LIqlGUsp6KMHNdnRVJtAcHF8PdW0nXNUufC3iyTSbDVrlru6s2sI5yszABnidj8ucDgqwrPf4OovgnxP4bt9em8jXrxLsXFxB5ssLgoX3HcPMLGPOflxurtvEHinQ/C1rHceINSgsUlbbEJDl5T6KoyzH2ANVNB8e+GfEt81lpGqI96q7jaTxvBNt9RHIqsR74xRHR6dP0t/kh3aal53+ZL4u8Lw+LvCF5oNzcPbrcooWeNQWjZWDK2D1wVHFYuq+BNU1jT9GuLrxL5XiTRpHe31eCxVVYOMMrQliCpXAI3DkZ46Vp+IfH3hzwtqkGna1ezRXlxEZo4YbKedmQHBb92jY59ap2fxV8G3uowWK6s9vcXLBIVvbOe1EjHoA0qKCfbNJa7C+FWK2mfD69g8dWXizWPEcup6hb2sttIptVijZX27RGob5AuGPO4ktyeAK434Z+FtevPCd7caB4uuNIgvdUvRcwGzSfBE7LuiZiDGxAHXcO+M17VVeysLPTbcwadaQWkJdnMcEYRdzHLHA4ySSSe5qbe9fya+9ph0+f6WKfhzw9Y+FvD9ro+lK621spAaRtzuxOWdj3Ykkk+prUooq27u4LQKKKKQBRRRQAUUUUAFFFFABRRRQAUUUUAFFFFAHJQ/wDJaLz/ALF+3/8ASiautrkof+S0Xn/Yv2//AKUTV1tAHFXH/FT/ABUjs2+bT/C8S3MinpJezKRHn/rnHub6yKewrta4/wCGqfaPDt7rT8ya1qdzen/c8wxxDP8A1zjSuwoAKKKxvEvi7Q/B9lBd+JL9bGC4mEEbsjPucgnGFBPQHnoO9AGzRTJZo4bd5pGxGil2brgAZzWZ4b8UaN4v0ZNV8OXyXtk7MgkVWUhh1BVgCD9R6UAa1FZ6a9psmvXOipc51C1t0uZofLb5Y2JCtuxg5KngHNcR/wANAfDISbD4mAbOObC5/wDjdFwPR6Kz9E17SvEmmJqGg6hBf2jnAlgcMAe4PofY81oUbBuI6rIjI6hlYYKkZBHpXG+AmbR7rV/BsxJXRZVksCx+9ZTZaIe+wh4/ogrs64/Wk/s74q+GtRThdStrrS5vchRPH+XlS/8AfVADrn/ktGm/9i/d/wDpRb111cjc/wDJaNN/7F+7/wDSi3rrqACiiigAooooAKKKKACiiigAooooAKKKKACiiigArnPiFDqc/wAOtdTQJLmPUvsUjWzWhYS7wMgJt53HGBj1ro6KmUeaLQ07O55VFd+KvDGr+INUvotZ1O0g0OyW2gTMi+fsYSOA7Bcgrl+c4I65FVfhx4pg0n4fr4p8WXfiVp71IVZtSlM0d3LJkqLSFGOATwAFU4xXp/iD/kWdT/685f8A0A15Zp+vvpHwf+HVpY6dp97qupi2t7CTUlzBbS+XnzDjnIA4C4JJ60KXvyXp+Lf9f8MTypJfP8Ejs9O+JFhd6/a6Pqej61oV1fZFmdUtRGlyQMlVZWYbsc4ODXPeJtbSPwj8TJNG1PWkvtPBDtPcYS2k8hSPsxU5RcEHsd2ayPGMev2vjrwFF4n8R2F7NNraSRWFlYeQEARgX3M7Mw+YDsOag1n/AJFz40/9df8A21SlP4JPyf4cv+Y4v95GPmvx5v8AI9BuPG1roem6NaS22o6vqt7ZpMlnYQ+dM6hV3SMSQqjJAyzDJNZut+KX8YfDfxRF4U/tOx16xtnRrNonhvLeXbuUAKc5YDgqSDng1n6joVtrWtaCdA8UTeHvF9voqGN0thMs1qSuQ6ONrAN2ByM5xV7wLq+sjxzr/h/xRbaTPqlpbwTvqumQmM3Mbbgiyg8hwB0zjB499Jx5nKL63/N7fL8SYPljF9rfoS+D7HxHb+PtTfWLm/l08aRYLCJ3cxGbawlKgnG7K/Njn5hnrXe0UUN3/r5hFWVv60VgooopFBRRRQAUUUUAFFFFABRRRQAUUUUAFFFFABXJfDH/AJEcf9hPUv8A0unrra5L4Y/8iOP+wnqX/pdPQB1tFFFAEFp/qW/66yf+hmuZ1j/krnhb/sGan/6HaV01p/qW/wCusn/oZrmdY/5K54W/7Bmp/wDodpQB1tFFFABRRRQAUUUUAFFFFABRRRQAUUUUAFFFFABRRRQAUUUUAFFFFABRRRQAUUUUAFFFFABRRRQAUUUUAFFFFABRRRQAUUUUAFFFFABRRRQByXw6/wCQVrP/AGMGpf8ApVJR8S/3vhGKy7X+qWFox/2Xu4g3/juaPh1/yCtZ/wCxg1L/ANKpKPiL8uk6NIfux6/ppb6G5Rf/AGagDraKKKACvOvikn/CS6hoHgRC2zWbk3F/sOCtpB8zZ9Nz7B+dei141p2ka/49+IviHxZ4f8TvoMFlJ/YtnIlhFc+bHHgyEeZwAZCeR1x7UrXkk/X7v+DYd7K/y/r5XOt+E2rXF34NOkam+7U/D9w+l3WerGI4Rv8AgSbTn615h8NNZv8AwV4k1DUdQm3+GNe1+7spWI4sbpZD5bk/3XB2k+oHpXTaJZat8PPjRDHr+tnWIfGFuUa7a0S3xdQj5AVT5eUOM9SfpVn4b6BYeKPht4o0XVovNtLzXdQjcd1/ecMPQg4IPqKd25c+7s7+t0n/AJr5MiVlaGyv+Fm1923yaNnWv+S+eFv+wRff+hRVxHgb4W+DvG2p+MtR8T6P9uu4vEt5Ckn2qaPCAqQMI4HVjz70ng3UtYHxt0Xwz4nV31Tw/pt5bm7I+W8hYxmKUe5UYPuPXONf4Y+LPDmhXPjS21zX9L02dvFF5IsV5exwsV+QbgGIOMg8+1OCjb5O3/ga/QrW0vVf+klqwsH+GPxR0XRNKu7uXw14ijmijsrmZphZXES7gUZiSFYcY9efp6tXlUur2nxE+MmgHwzcLfaV4YSe5vb6H5oWmkTYkSv0Y4yxxkYr1WjVxV/P7v6/CwO3Np/T/wCGt8wooopAcl8PP3On63ZD7lnrt8iD0V5TLj/yLSfE/wD5EOX/AK/7D/0shpfAXzTeKpB0fxBcY/BI1P6qaT4n/wDIhy/9f9h/6WQ0AddRRRQAUUUUAFFFFABRRRQAUUUUAFFFFABRRRQAUUUUAFFFFAHmngGOPxH8RvGPiPUlE1zp+onSLHzBn7NFEo3bPTczEk9at/GbTY5Ph7d65b4h1XQsX1jdrw8TIwJAPowyCOhqKWx1fwD411fWdL0i51rQdcdbi7gsQrXFncAbS6xkjzFYYyAcgjpVbxLc6x8T9PHhvSdC1TSdIupF/tLUtVg+zN5IYMY4om+dmbGMkAD3qbNwSjurfJ9/v18yrpTbe36dvu0MrVvEktv8ZvDOsRaPqGpvdeGHf7Np6I0i75FbOHZRgfXuKj8ZeI7j4qWV54A0fw3qGmamzwy3E2teTB9kiDhvNRRIzSdMAqMc9a6efSLqL48aNdW9jONOt/D81v8AaFibykbzV2oWxgHA6ZzTPir4c1Ca30/xf4WgeXxD4ek86KKJSWu4D/rIMDk5GcD646001o+l3/6U7ErmXrZffyo9AhQxQpGWLlVClj1OB1p9VdLvv7T0m1vjbT2puIlkMFzGY5IiRnaynkEdKtVTvfUUbW0CiiikMKKKKACiiigAooooAKKKKACiiigAooooAKKKKAOSh/5LRef9i/b/APpRNXTX0xt9PuJl6xxM4/AE1zMP/JaLz/sX7f8A9KJq6m4iE9rLCeBIhX8xigDnfhrCIPhX4XQf9Am2Y/UxKT+prpq5b4Yzeb8K/DQbhodOhgcejRqEYfmprqaACvLdc0uH4j/FTUNHuvn0vQNKeCTjj7VdKRn6rGPwLV6Ze3P2OwnufKkm8mNpPLiQu74GcKo5JPYCvJ/Bvwh0LxD4eGvfEHQPtGv6tPLe3K3LSRvDvYlYyoIxtXHBGam3M9drfnp/mO9lpv8A5a/5L5m78PdcuNX+FdxaamT/AGpoyT6ZfAnJ82EFc/iu0/jXm/wwd/hr4d8MeIwz/wDCN+I4Vg1UEkraXW9ljn9lYYVu3T2rrtM8KP8AD/4i6lpnhvSLpfDevaUzqII5JYra7jBGC3O3cp4yeTwK2vh54YW++BOleHfE2nyxLNYtBc2txGY5EyzdQRlSOCPTg1d27z66fP4k/v8Aw0Zna0lDpr8vha+7/NDbA5+PHiQjkf2Baf8AoyWmfATn4K6Ln+9c/wDpRJWD8L9A8U6J8QvENr4mhnnhstMhsbLUmiYJdxI7lDu6FwrAEDkY59TQ+GXjm+8GeANP8P6n8PvG013bPLukt9GJjO+V3GGZgejDqKItKDS/rWRbvrfuv/STpdNsovDP7Q9zZaTGlvY69oxvbi3j4X7RHLt8wDoCVbnHU816dXnvg3R9a1jx3qHjrxPpzaS8loun6bp8jhpIoA29nkwcBmbt2HFehUldRSf9au34f5A2nJtf1ov1CuR8efLc+FJhwYvEEGD/AL0cqH9HNddXI+OP32reD7NeZJtdSTH+zHBNIT/46PzoALn/AJLRpv8A2L93/wClFvXXVyNz/wAlo03/ALF+7/8ASi3rrqACiiigAooooAKKKKACiiigAooooAKKKKACiiigAooooAjuII7q1lt513xTIUdckZUjBHHtWJdeB/Dl74Tt/DV3pUU+kWqKkFvIzExBRhSr53Agd8596365jxP42g0HUrXR7DT7nWdcvEMkGnWhUMEHBkkdiFjTPGT36A0rIeoy2+GfhC0EBg0ZBLb3Md1HcNPI03mR52Eyli7AZPykkc9KvTeDdBuLbWoJrHdFrxzqK+dIPPO0J/e+X5QB8uKwJviFqWgTQt478LyaJYTyLEuo296t3BEzHAEpCq0YJwN2CuT1qz4x8b6h4e8R6Bomi6HFq95rfn+V5t99mVPKUMedjZyCfTpTtfTv/X5JfgJb+n9f5mprfgjw74is7S21jTEnWyAFtIJHSWEYA+WRSHHQdDzirHh/wvovha0kt9BsI7RJX3ysCzvK3q7sSzH3JNcpqvjzxZ4b0+TVPEXgVY9Ltxvup9P1dbmSFO7+WY0yB3wa7uzvINQsYLyzkElvcRrLE46MrDIP5GnrqxaaImooopDCiiigAooooAKKKKACiiigAooooAKKKKACiiigArkvhj/yI4/7Cepf+l09dbXJfDH/AJEcf9hPUv8A0unoA62iiigCC0/1Lf8AXWT/ANDNczrH/JXPC3/YM1P/ANDtK6a0/wBS3/XWT/0M1zOsf8lc8Lf9gzU//Q7SgDraKKKACiiigAooooAKKKKACiiigAooooAKKK8c/sjxydSUG/1jyv8AhOTKSJpcf2fs3bev+pzxj7uacdZcv9bpfqD0jf8ArZv9D2OivIfCHxDlsdS8Y2V1aa94hu7bxDdbLeyha4NtbjaFGXYKq5DYQHPBwK7u28e+HrnwS/isX3laTGrGSSWNlaNlbaUKYzu3cYxnPSl0T8k/vG1aTj5tfcdHRXEQ/FLThqFlb6roevaNBfyrDa3uo2QjhkdvurkMSpPbcBU2r/ErTdJ8UXPh2PS9X1LVLeCO4+z2FssheNs/MCWAAXHO7HLADJNAjsaK5PU/iHp9hqy6VbaZq2qagsKT3Nrp9r5jWiMMgykkBT1+UEsccA1ynh74iW1lqvivUr+6vr7S3121s7Uq25bUSxIBlXYbFDn5gOQT0zQtXb+t0v1B6K/9bNnq9Fc5rvjnSfDvirQvD+oef9s1x3S2aNVKIVx98kgjJIAwDzUlz4y0uz8T3ei3Rkiex07+0bq6cKIIYtxUBmJyG4J6YwOtHS/r+G4dbf1rsb9FcJD8W9EcW9zc6brdlpF06pBrF1YmO1k3HCndncqnIwzKB71e1/4i6Z4f8TxeH3sNTv8AU57QXcEFjAJDMu4rtHzDBG0kk4UDv2oA62iuS1H4iWGny2Nomlaxe6reW4uhpdrahriCI/xSgsFTnjluvAzXEza7qvibU/iTH4c1DUt8ejW5sLdHkSS2n8uTcqp1STcuCBg5FJuyb9fwGlf8Px/4c9jorz3wZY+Jrfx1M+tXOoSWC+H7FAs8jtE1zyJCMnG/5fmPX5hnrXoVU1b8fzt/wSIu/wCH5XCiiikUFFFFABRRRQAUUUUAFFFFABRRRQByXw6/5BWs/wDYwal/6VSVJ8S7eWf4cau9upeW0iW9RR1LQOswA9/3dR/Dr/kFaz/2MGpf+lUldVLEk8LxTIHjkUq6sOGB4IoAbbXEV5aQ3NuweKZFkRh3UjIP5VLXJfDuZ7XRJ/Dd25a78PTmxO48vABm3f8AGIpz6q3pXW0AHXrVbT9NsdJs1tNKsreytlJYQ20SxoCTknaoA5JzVmigCre6Xp+pNbtqNjbXbWsomgM8KuYpB0dcj5WHqOaWy06y02J49Os7e0jkkaV0giVAzscsxAHJJ6nqas0UAVW0ywfVE1J7G2a/jjMSXRhUyqh5Kh8ZA9s4rJufAPg+8upbm78J6HPPM5eSWXTYWZ2JySSVyST3roKKAILOxtNOtVttPtYbWBPuxQRhFX6AcCp6KKACkZgilmICgZJJ6Utct8Qr6eLwwdK05yupa5KNNtCOqmQHfJ/wCMO//AaAI/hkDL4Gg1FwQ2rXNzqXI6rPO8if+OMtJ8T/APkQ5f8Ar/sP/SyGunsbODTtPt7K0Ty7e2iWGJB/CqgAD8hXMfE//kQ5f+v+w/8ASyGgDrqKKKACiiigAooooAKKKKACiiigAooooAKKKKACiuEm/wCEzOvMBplw9kdeQtKuoxoDZCLhgvVVDhSU+8/PY4q1qPxK0+z1G9tbHSNb1dNPcx3tzp1n5kVu4GSpJYFiAQSEDEUk1ZP+un+Ydf68/wDI7GivLvHvxHmgs/B974Uj1C+sNW1KBmnsokIuIvmJgG8gh2IHHHQgkdK6fVPH9jpcljaNpmq3erX1uLlNJtLcSXMcfcyfNsTBOMlsZ6Zp9PnYP8rnVUVy+h+P9L1yDVNtrf2N7pKeZeaffQeVcRrtLA4yQQQDggkVz03xbh1bwfd6r4Z8P+IbiI2LzQXq2UflI4XkEs+CUJ5xkfKwBOMVMpJJvtqNK7SPSaK5D4XeIb3xJ8P9LvNTtL+G5+zRCSe8VR9qYoCZU2scqSe+D7V19aSi4uzJTurhRWNpviiy1TxVrOgW8Vwt1owgNw7qojbzVLLtIJJwBzkD8azrv4haVZw+KZJbe8I8LhTe7UT95ujEg8v5ueD3281L0V32v8h7O39dzqqK4Vfi3oP7i5ksdXi0edxHHrUlmRZlicD585xnjdt2k9DVbxno2t6hfa9Jo99r0Im0mKG2FpdGNBdGXKGLH3egEjf3W6jBos7oFZ/h+dj0OimxKyQortuZVAJPc06gS1QUUUUDCiiigAooooAKKKKACiiigAooooA5KH/ktF5/2L9v/wClE1dbXJQ/8lovP+xft/8A0omrraAOQ8Bn+z7jxD4ef5W03VJZYU/6YXB89CPbLyL/AMANdfXG+KW/4RrxVp3i0fLYug03Vz2SJmzDMfZJGIJ7LKx7V2VABRRRQAUUUUAFFFFABRRRQAVyM5/tb4u2kS/NDoOmSTSY7T3LBUH1EcUv4OPWui1bVbPQ9HutT1OUQ2lpE0srnsAOw7nsB3NYvgbTLu10m41XWYjFq2tTm+u426w5AWOH/gEaov1DHvQBXuf+S0ab/wBi/d/+lFvXXVyNz/yWjTf+xfu//Si3rrqACiiigAooooAKKKKACiiigAooooAKKKKACiiigAooooAK838G/vfjj8QZLsk3MSWMUAb+GDyiePYtn8a9IrkPEng6+uPEcPifwnqMema5FD9nmW4iMlvexZyElUEEEHkMDkc9aFo7/wBf109Gw3TX9f1+ti58RILa4+GniOO+x5B0ycsSM4xGSD9QQDXk0suu3d98GZNPmtk1eTTbgrJqEbyR5+zJksFZWOVz3613epeFfGHjW3XTfGV/pWn6KXU3Vpo/mySXig52NLIF2ISBkKpJ6ZrR1zwfdah8QfB+tWLW0VjoK3SzRMSHIkiCIEABHGOckcetOGkrv+rKX53HfS3k/wAbf5HD+L73xnc6vaeDvHeq6Rpeh+IQbZNS0mxk3SsetuxlkIiLDgHDZzXr+nWFvpWl2un2KeXbWkKQxJ/dRQAB+QrG8eeEYPG3g290aZhHLIu+1n7wTLyjgjkYPXHYmrvhmHWbfwzYweJ5LabVYoglzLauzRyMONwLKp5GCeOpNKPwtf0/+G1/q4nun/X9P+uhq0UUUAFFFFABRRRQAUUUUAFFFFABRRRQAUUUUAFFFFABXJfDH/kRx/2E9S/9Lp662uS+GP8AyI4/7Cepf+l09AHW0UUUAQWn+pb/AK6yf+hmuZ1j/krnhb/sGan/AOh2ldNaf6lv+usn/oZrmdY/5K54W/7Bmp/+h2lAHW0UUUAFFFFABRRRQAUUUUAFFFFABRRRQAUUUUAec/CNFF347cKAzeKrsE+oATH8zXLaRr0Hhz4Y+IbiXTLXUpJ/F11bW8F4B5Ile4wjOSDhVPOfavXtI0DTdCa+OlW3kHULt725/eM3mTPjc3zE4zgcDA9qqL4L8PLod/o7aXFJp+oXElzdW8rNIskjtuZvmJI554xjtijordkvu5b/AJMc/elfzb++/wDmeXfFKPxTbeH9JbxZ4k0pvtGr2ax6bp+nmMSOJVJxI8jMQoBPAHvXWaHGp+P3iqQqN66TYqD6AmTP8h+VaMfwo8FR2Elp/YivHIEBeW4lklUKwZQsrOXUBlBwCBxXQW+hada69d6zBb7dQvIo4Z5vMY70TO0YJwMbjyBnnmlbVPzb++NiXrf0X4O5xnw6dIPHXj+zuyF1JtXW4Ksfma3aJBEw9V4I9q5i00q08W6b8XLDSWRxPqGYGQ8faEhVsgj/AKar1r0vxB4G8OeKbmK51vTFnuYl2JPHK8Mm3+6XRlJX/ZJx7VP4f8JaF4VW6Xw9psVgl26yTJETtZgoUEKTheAOmPXrSs+W3lb8tfwKvaV/O/5/5niV/qbeO9F1fx1aDzJPD2n6bJbkc7Zo2FzcAe+CFP0qTWWfxR8NfiP4wsxJPb6lexRQFDy9lbMgYj2P7w/nXsmkeCvD2g6HfaPpOmJb6ffvI9zAHdhIZBtfkkkZHGAeO1W9D8PaV4b0GHRdFs1ttOgVljg3FwAxJOSxJOST1Pervvb/AIF3Zv5afdcS0a/rRaL/AD9TmPiNqOkv8EtaufNhksLnS2W2KkFZC6YiC+pJK4xXOeGba4h+NHh+PUwTeQ+Bo1lLDkSCZQ349a6+y+FvgvT9Tjv7TQIElik82JGd2hhfOdyRFiiHPdVFbh0DTT4mHiA23/E0Fp9iFx5jf6nfv27c7fvc5xn3pxaUub+tpJfmC0jy/wBbxf6HF+GHS2+OvjaC9IW7uraxmtA7cyW6oVbaPQPnPuaZ4Pnsp/jl49NgysUgsEnKdPNCuD+IGAfcV1viLwdoPisQ/wBvaetzJbk+TMsjxSx56hZEIYA9wDg03w/4K8O+Fbq5uPD2lxWEl0kccxiZsOEzt4Jxn5jk9TnnNSul+it/X6+eo5a3t1t+Fv8AI3aKKKBBRRRQAUUUUAFFFFABRRRQAUUUUAFFFFAHJfDr/kFaz/2MGpf+lUldbXJfDr/kFaz/ANjBqX/pVJXW0AcX4uWTwxr1v41tEd7aOIWmtRRqSWtckrOAOpiYkn/YZ/QV2MM0dxBHNBIssUih0dDlWUjIIPcU5lDqVYBlIwQRwRXC2zP8Nbv7JdMzeEJ3/wBGuDz/AGS7H/VOf+eBJ+Vv4PunjBAB3dFAIYAg5B5BHeigAooooAKKKKACiiigBGYIpZyFVRkknAArivDRbxf4pl8Xyhv7LtUa00NWGPMQkebdY/2yAqn+4uf46ZqE7/Ea6k0jTJXTwxE5TUb+I4+3kHBtomH8GeHcdfug/eI7aGGO3hSGCNY4o1CIiDCqoGAAOwoAfXI/E/8A5EOX/r/sP/SyGuurkfif/wAiHL/1/wBh/wClkNAHXUUUUAFFFFABRRRQAUUUUAFFFFABRRRQAUUUUAFeV23h3UX1bW9V+FfjOK3R7+U6hpGoWfm2/wBrGN4zw8eeCcZzXqlctrHw18Ja9qkuo6lo6tdzgCeSGeSHzx/00EbKH/4FmlbUfSx5zJrg8QeCPh5ff2baaZs8VxQPDYqFt9yNKpaP/ZYgkfXvXW6prWsah8T7zQPCFvo1je2dhFLfapqFu0sro5O1I1UqWAIySWxk9K6jUvB/h/VvDkeg3ulwHS4dvlW0WYhEV+6UKEFSPUEGqOpfDfwrq/2E6hpjSS2EIgt51upkmWMdFaRXDuPZiaf+d/wt+aF/lb8W/wAnb8Tz7RDdr8TvHsOp61DrN5DoEaTTw2ywKjfvD5YUFugI6knmui8IRBP2bbFIkxu8PMcAdSYiT+prp7HwJ4Z0y6kuNN0iG0eSyNi4gZkVoSxYqVBwTkk7sbuetaem6PYaRolvpGn24isLaEQRQsxcBAMBcsSTx6ms5QbhKPdW/GX+Y4u01Ls/0j/kcR4b8NDxV8FfCdmNb1jR9lhbSfaNHu/s8rYixtLYOV56eoFJB8IPIuI5f+Fh+PZPLcNsk1vKtg5wRs5Fdb4c8KaN4StJbXw/aNaW8snmNF58kiqf9kMx2j2XA9q2K3lK83JddSEvd5WedeEiI/jp8QEf5Xkg06RFPVlETAke2eK43U7uC+0j43TWsiyx/JHuU5G5bcKw/AqR+Fera/4D8NeKL6G91rTFmu4V2JcRyyQybP7paNlLLyflORz0rA8aeC9O0z4ZeLYPCmj+Xc6jYFDb2aMxlZI9iKsYyBxxhQM/WsZt8jv/AC2/L/I0+KpF+a/BWIfF1/oz/s73k0Lwtp8+iCK1C4wzNGFjVR67sDHrXZ+Gobm28J6TBf5+1R2UKTbjzvCANn8a53Qfhn4UtRp2qNoMSX8cccu1y/lxy7RlxCTsV8/xBQc12tbT+KXm/wAr/wCZjD4Y+S/O3+QUUUVBoFFFFABRRRQAUUUUAFFFFABRRRQAUUUUAclD/wAlovP+xft//Siautrkof8AktF5/wBi/b/+lE1dbQBDeWlvf2U9newpPbXEbRSxOMq6sMEEehBrkPD+pT+FNWh8I+IZXeCTK6JqMpz9pjA4t5D/AM9kHA/vqM9Qa7Ws/XNC07xHpEum6xbie2lwSM4ZGHIZWHKsDyCOQaANCiuCj8Q6r4B22fjVpdQ0VTtt/EMaFmjXst2o+6R080DaeM7TXc21zBeW0dzaTRzwSqHjlicMrqehBHBFAElFFFABRRRQAUjMEUsxCqBkknpVDW9e0vw3pb6hrl9DZWqcGSVup7Ko6sx7AZJrkTa6t8SMf2pbXGi+FCc/Ypcx3epj/pqBzFEf7n3mHXaOCAPt5T8R9ciuUVj4T0ybzIWPC6rcoeHHrDGRkHo7gHkLz3dMhhitreOC3jSKGJQkcaKFVFAwAAOgA7U+gDkbn/ktGm/9i/d/+lFvXXVyNz/yWjTf+xfu/wD0ot666gAooooAKKKKACiiigAooooAKKKKACiiigAqvf6jZaVYyXuqXkFlaxYMk9xKscaZOBlmIA5IFWK5z4g+GJPGXgHVdAhkjjlvIgsbyEhVcMGUnAJxlRSd7aDja6vsbFtq2nXl5PaWl/az3NsFaeGKZWeIMMqWUHK5HIz1qLTdf0fWZZ4tI1Wxv5LYgTpa3KSmInOAwUnHQ9fSvOfE/g7VvD+mePde0a7s0bU9OiU+ersUihtnV8bSuHPG05IHcU3wRP4g8NfCTQW0zQ9O1G/1KK1jtBY27wJFG0YPmXT/ADZ28ksMZJ4AzVaO9ulvvYmtE+/6JX/M9Yqi+uaTFBezyapZJFYNsvJGuEC2zYBxIc/IcEHnHUVxq+KPF/h/xbo2meMLfRrqy1qVreC50sSxtBKELhXVy24EAjII+lc34t1b+0fh38VYPsFjafYbl4PMtYdj3H7qM75Tn5n5xnjgCspz5Ytrom/ut/mVFXaXmvxv/kexqyugdGDKwyCDkEUtcdb+Jby38d6D4bSOA2d3osl28hU+YHRkUAHOMYY9vxqSbxVfR/FoeF1it/sX9hNqPmFW8zzBNsxnONuO2M571o7X08/wvf8AJkxvJX9Pxt/mdbRXmfgXxz4q8S+GLfxXrUOi6doMcUzXW1ZTMwj3AyJztVcrjadxwCc9qdB4u8e6h4b/AOEt0/RtHGjND9qh02aWT7ZNb4yG8wfIrFeQu09cZofu7jsz0qobu8trCzlu7+4itraFS8s0zhERR1JY8Ae5rhdR+IlxqNx4bsfBq2IufENo97Bc6qzLFHGoX5dq4LyfN90EYweaW4i8TeLfDnifwh4m063tbx7Ix22pWvmCzufMQgEbgWUqwG5ct+NKV0nbfX8BRs2vl+J2VrrOl3139lstStLi48lZ/JinV38pvuvgHO09j0NXa4rwt4Ek8PeL5dXeaOSNtFs9NRVJ3BotwcnjGD8mO/XpXa1Tsvx/PT8CYtvfy/L/ADCiiikUFFFFABRRRQAUUUUAFFFFABRRRQAVyXwx/wCRHH/YT1L/ANLp662uS+GP/Ijj/sJ6l/6XT0AdbRRRQBBaf6lv+usn/oZrmdY/5K54W/7Bmp/+h2ldNaf6lv8ArrJ/6Ga5nWP+SueFv+wZqf8A6HaUAdbRRRQAUUUUAFFFFABRRRQAUUUUAFFFFABRRRQAUUUUAFFFFABRRRQAUUUUAFFFFABRRRQAUUUUAFFFFABRRRQAUUUUAFFFFABRRRQAUUUUAcl8Ov8AkFaz/wBjBqX/AKVSV1tcl8Ov+QVrP/Ywal/6VSV1tABTJYo54XhnjWWKRSro65VgeCCD1FPooA41dH1nwYxbwtGdU0Tq2jSy4lth3+zSMcbf+mTkAfwso4ra0PxVpHiFpItPusXcI/f2U6GK4g/34mww+uMHsTWxWXrXhnRvEKx/2xp8Ny8XMUxBWWI+qSLhkPuCKANSiuTbwnrdlj+wfGWowRjpBqUMd6g/4EwWQ/i5p7QePoEwl/4dvWH8T2U9vn8pXoA6miuWSLx9MuJL3w5Zk91tJ7jH4GRM0xfCuv3jH+3PGl9JGesOmW0dmp+rfPJ+TigDW1vxPpHh5Yxqt4sc03EFtGpknnPokagsx+gNYT6drnjb/kOxyaJoDddNST/SrxfSd1OI0PeNCSe7Dla3dG8LaL4faSTSrCOKeb/W3LkyTy/78rEu34k1rUARW1tBZ2sVtaQxwQQoEjijUKqKBgAAcACpaKKACuR+J/8AyIcv/X/Yf+lkNddXI/E//kQ5f+v+w/8ASyGgDrqKKKACiiigAooooAKKKKACiiigAooooAKKKKACiiigAooooA5TxB44Gm64mgaFpNxr2ttEJntbd1jS3jJwHlkbhAew5J9KqReP73TNVtLHxx4dk0EX0ohtb2O6W6tXkPSNnAUox7blAPrWb8Lcy+LPiFcXQ/046+0T5+95KxqIvwwTir3xpit5fg34iNzgCO2Ekbd1kVgUI992Kly5YKT7J/frp/W5XLeTiu9v0JfEvjfVtL8cWXhjQPD0OrXV1Yvel5tR+zKiq+0j/VtnqKpap8RPEPha3TUPGPgwWOkeYsc97Y6ot19n3EKGZCiHbkjkZrm9RPiO5+MHhV9GmsINVfwszTNqMLyR8um4YRlOc+/rUfiBvE3iTxZb+APiVqOm6fpep7ZreTSbN1GpCM7mgMkkh8tgQDgKc9jzVRTuk+7/AAb/AERN01fpZfike0qwdQynKsMgjuKWmoixRrHGAqqAqgdgKdQJXtqFFFFAwooooAKKKKACiiigAooooAKKKKACiiigAooooA5KH/ktF5/2L9v/AOlE1dbXJQ/8lovP+xft/wD0omrraACiiigBGUMpVgCpGCCOtcfN8PYrC4e68Fapc+GZpGLPBbKstnIT1LW7fKD7psPvXY0UAcf9v+IOmri70TR9cUcCSwvWtZD7mOVWX/yJTI/HWrxsU1H4f+I4XHUwfZp1/NZv6V2dFAHGf8Jr4guZNum/DzW2H9+9uLW3Uf8AkVj+lOb/AIWHq/yj+xPDUDdXDPf3Cj2BEaA/99Ae9djRQBzGkeA9M0/Uk1XUprnXNYX7uoam4keL2jQAJEP9xR7k109FFABRRRQByNz/AMlo03/sX7v/ANKLeuurkbn/AJLRpv8A2L93/wClFvXXUAFFFFABRRRQAUUUUAFFFFABRRRQAUUUUAFFFFAGB49/5Jx4k/7BVz/6KavN9V1S/wBN+D/w+23t9pmhz21qmsahpwPnW8PkAghgCUUtjLDkfjXs9FHRru1+F/zuVzaJdr/jb8rHgN6PCg+IHgi/8Kf2jfw/2sI7jWru4uJ42Zo3CRLJKxBJOSdnAwM9ata3/wAiL8Zf+wg//omKvdKKznDmi13TX32/yEnaSfa34X/zPLPEOoweFviF4T8S6yJING/seaxlvRGzR28jGNl8wgHaDggE8ZqtpWuweI/2gpNQ06OY6f8A8IvJFb3MkTILjFwpZkDYJXLY3YwcHGa9corTr/4F/wCTX/zFHRW9Pwt/keVfD/R5PEH7M8OkQOElvtPuoEY9AzPIB+prkNLHw70/whBZeItO1uLxPbW4gm0MX1+Jp5wuMRor7SrEcFflANfQlFOT5pN9/wDg/wCYLRLy/r9DyPXrXwlpvhbw7ofjnwX9h8Om0ZlnaaS4GlzZB8lpFG9cgn59wGRjtmpvheBH401WHwnqmp6n4LSzj8mS+keSOO53HKQO4yUCdcZGSOa9Woovq36/0/67Ct7qj6f0gooopDCiiigAooooAKKKKACiiigAooooAKKKKACuS+GP/Ijj/sJ6l/6XT11tcl8Mf+RHH/YT1L/0unoA62iiigCC0/1Lf9dZP/QzXM6x/wAlc8Lf9gzU/wD0O0rprT/Ut/11k/8AQzXM6x/yVzwt/wBgzU//AEO0oA62iiigAooooAKKKKACiiigAooooAKKKKACiiigAooooAKKKKACiiigAooooAKKKKACiiigAooooAKKKKACiiigAooooAKKKKACiiigAooooA5L4df8grWf+xg1L/0qkrra5L4df8grWf8AsYNS/wDSqSutoAKKKKACiiigAooooAKKKKACiiigAooooAK5H4n/APIhy/8AX/Yf+lkNddXI/E//AJEOX/r/ALD/ANLIaAOuooooAKKKKACiiigAooooAKKKKACiiigAooooAKKzJvEuhWzXC3GtafE1rIkNwJLpFMLv9xWyflY9geT2rToAKKbLLHBE0s0ixxoMs7nAA9SadQBxms+DtUtvFE3ifwTqFtZajdRrHf2d7EXtr0LwrNtIZHA43DPHBFU7rwh4m8Y3Nqnjy80yDSLaZZzpWlCRxdOpyvmyyAEqCM7Qoz3Nd/RQtAepylz4WvZvi1YeKEltxY22ky2Txlm8wu0gYEDGNuB659qb8R/Bj+NPC/2axmS01ezlW6027YkeROhyCSASAeh4P04rq45Y5k3ROsi5K5U5GQcEfgRinUraW/re/wCY763/AK2sVdL+3jSbUaz5H28RKLn7MxaMyY+YqSAcZ9RVqiiqbu7kpWVgoorMuvE2hWLXa3utadbmx2fahNdon2ff9zfk/Lu7ZxntSGadFAORkdKKACiiigAooooAKKKKACiiigAooooAKKKKAOSh/wCS0Xn/AGL9v/6UTV1tclD/AMlovP8AsX7f/wBKJq62gAooooAKKKKACiiigAooooAKKKKACiiigDkbn/ktGm/9i/d/+lFvXXVyNz/yWjTf+xfu/wD0ot666gAooooAKKKKACiiigAooooAKKKKACiiigAooooAKKKKACuG17xLreqeM28H+C3tra6trdbjUtTuY/NWzR/uIkeRukbrycAeua7mvNvChGl/HXxvZXuEn1SGzvbQseZYkjMbY9drfzoSvKz/AK/rf5A9It/1/XT5jtcufGvgDTX1651pPFWlWuHv7Weyjt7iOL+KSJo8KdvXaw6A80zxn4h1i+8ZeCNL8K+IH0yx1+O5lkuYLaGYuqRLIhHmKwH/ANeuj+JWpWmlfDLxDc37KIjYSxBWP32dSqr9SSBXl154amOrfB3QdUuLyynj0+5jmezuGgmjZbZTgOpyOmDjtkU4e9Kz/rR/5XKskr+T/C3+Z1fiu18ceDvDF94itvHTamNNhNxJZajptusc6ryV3RKrKSOnPWu/0PUxrXh/T9UWJoRe20dwI36pvUNg/TNeO+O/CsHgzWdL1fX73WfEfg+a4SDULPVdTnnSzcn5J9pbDpnghwf1r26LyzCnk7fL2jZt6Y7Y9qFrFvz+7/h9P6uQ/iX9f1bUdRRRSGFFFFABRRRQAUUUUAFFFFABRRRQAUUUUAFFFFABXJfDH/kRx/2E9S/9Lp662uS+GP8AyI4/7Cepf+l09AHW0UUUAQWn+pb/AK6yf+hmuZ1j/krnhb/sGan/AOh2ldNaf6lv+usn/oZrmdY/5K54W/7Bmp/+h2lAHW0UUUAFFFFABRRRQAUUUUAFFFFABRRRQAUUUUAFFFFABRRRQAUUUUAFFFFABRRRQAUUUUAFFFFABRRRQAUUUUAFFFFABRRRQAUUUUAFFFFAHJfDr/kFaz/2MGpf+lUldbXJfDr/AJBWs/8AYwal/wClUldbQAUUUUAFFFFABRRRQAUUUUAFFFFABRRRQAVyPxP/AORDl/6/7D/0shrrq5H4n/8AIhy/9f8AYf8ApZDQB11FFFABRRRQAUUUUAFFFFABRRRQAUUUUAFFFFAHmOt/CifVb7xHMlzAq6xq+n3yqzN8scG3zAeOp+fGOOnIrQuPFfibW/GOs6H4PXRLf+xTGk7aqZHknZ0DjYiEbUwcbznnoK76vIPGr/D+/wDF15F8RdLfQtQtSv8AZ+sJJLG12m3hkljABZTxsbJHap20/rZL8lsOy1f9dX+u5B8UNW8R658HIrq402HRp11GGK+tLtHcl1uUVGiYbcoWw2SOVOB612uo6t41tv7L0iw07T7vVrlJJLvUmjljsLZVPHGSxY5GF3dic4rze8j165/Z/wBXfU5NSv7W21dJtPmv0Y3UlhHcRsJJARuJwGPIzj2rW8YeMLHVfFWhzX3iK+07wJeWMkkeo6ZM8KXF0JNvlySoNyqFB4yMmtLaW8//AG1fd/noQk+Zvsv1f39PlqdX4f8AFXiGLx1N4T8YW2nG6axN/aXumb1iljDhGVkckqwJHcisTwd4t+IHjrwmms2kHh6wtn86I+fHO7SMpYb1Af5VyANpJJwTkcCsTwhHokHx6t5fDlnew6ddaFOsV5fNMzX0iyoWZWmJdlAxz0644rqPgapb4K6Uo6l7oD/wIkqJK9Nvy/WS/JGqsr+q/K/5nI+CfEfiTwf+zrFrQOl3EURjWxi8iTcoe5KSeYd/zfe424x3zXpnj/xNeeFfDMOo6fHBJM99bW5WdSV2ySqjHgjnBOK8p04nWP2ab3w1piPca7opU3umqh86MrdGTG3GSSqkjHWtX4jfEHRPFXhDT7bw1LLfk6pZPdOkDqtoonTiQsAFYttG3ryTjAzWknzT0/mX3O3/AATJpxi/R/edPqPi/wAV3HxK1Lwl4bsNNYW9nBcrfXofZAG3bt4U5ckhQqjb/ESeKdZ/ES906x8TW/i7Too9X8OWv2yVLB2aK8hKkq8e4ZXJUgg5we5rGm8X6f4U+O/iNtb8y3sLjTLLffeUzRwODJtDkA7Q2TgnjK+9S6ZdXGueKfFXjnStGm1LTRpUen2FvKhi/tMIWeQqGXO07toJHzc1im3C/wDi+Vm7foi38VvT9L/qX7LxT46Wx0zXLnTNH1XSNQeIPb6OZZLi2jkIw+45WULn5sBaq+KvhNN4hvPF0sd1Ai+IG08qHZvk+zsC+cDuBxjPPpXC6ivhBLeK7+D82p6R4wmuIj/Y1kZ1UvvXetxCw2qijdk/KOO9fRC52jdjdjnFbbe8u/8Ak/n6k67X3X9egAbVAHQDFLRRUDCiiigAooooAKKKKACiiigAooooAKKKKAOSh/5LRef9i/b/APpRNXW1yUP/ACWi8/7F+3/9KJq62gAooooAKKKKACiiigAooooAKKKKACiiigDkbn/ktGm/9i/d/wDpRb111cjc/wDJaNN/7F+7/wDSi3rrqACiiigAooooAKKKKACiiigAooooAKKKKACiuN8QfE/RfDmo61Z31tfySaLYx39wYY0IeN2CgJlxlsnvge9dbaXKXllBcxBgk0ayKGHIBGRn86Sd1df1v/kw62/rp/miWisbxZ4ns/B3he717U4p5bW0CmRLdQznc4UYBIHVh3rYU7lBHQjNPpcBawvEvg/SPFaW7anFLHdWjF7S9tZmhuLZiMEpIvI+nQ9xW7VPV9Th0XRL3VLpZHgsreS4kWMAsVRSxABIGcD1FJ2SuxxTbsupzVr8NNMGpW19rmp6v4ils3ElqurXQkjgcdGEaqqFh6sCfetbVPCljq3irRPEFzLcLd6L532dI2URv5qbG3ggk8dMEfjVOHx9pc9x4VhSC8DeKYHnsiUXEarEJSJPm4O0443c/nXT1bUovXz/AMmL9V+BR1rR7PxBod5pOpx+baXkLQyr3wRjI9COoPrUXhvQ4/DXhyy0a3u7q8hsoxFHNdsrSFR0BKqAcDgcdAK06KkAooooAKKK4/X/AImaP4c1bVtPvra+kl0nTBqc7QxoVaIvtwuWGWz2OB70m0t/66gdhRVfT72PUdNtr6BWWO5hSZFcYYBgCM4781YqmmnZiTTV0FFFFIYUUUUAFFFFABRRRQAUUUUAFcl8Mf8AkRx/2E9S/wDS6eutrkvhj/yI4/7Cepf+l09AHW0UUUAQWn+pb/rrJ/6Ga5nWP+SueFv+wZqf/odpXTWn+pb/AK6yf+hmuZ1j/krnhb/sGan/AOh2lAHW0UUUAFFFFABRRRQAUUUUAFFFFABRRRQAUUUUAFFFFABRRRQAUUUUAFFFFABRRRQAUUUUAFFFFABRRRQAUUUUAFFFFABRRRQAUUUUAFFFFAHJfDr/AJBWs/8AYwal/wClUldbXJfDr/kFaz/2MGpf+lUldbQAUUUUAFFFFABRRRQAUUUUAFFFFABRRRQAVyPxP/5EOX/r/sP/AEshrrq5H4n/APIhy/8AX/Yf+lkNAHXUUUUAFFFFABRRRQAUUUUAFFFFABRRRQAUUUUAFFFFABRRRQAUUUUAFFFFAHMab4avLP4ma34ilkgNpqFlbW8SKx8xWjL7iwxjHzDGCa6eiiklZWX9Xdw63CiiimAUUUUAFFFFABRRRQAUUUUAFFFFABRRRQAUUUUAclD/AMlovP8AsX7f/wBKJq62uSh/5LRef9i/b/8ApRNXW0AFFFFABRRRQAUUUUAFFFFABRRRQAUUUUAcjc/8lo03/sX7v/0ot666uRuf+S0ab/2L93/6UW9ddQAUUUUAFFFFABRRRQAUUUUAFFFFABRRRQBzGueAdH8QXGrzX5uA+r6emn3BjZRtjRmYFcg4bLdTkcDisHVGv/FPxJm8JWmr3mk6Po+nxXF1/Z0vlTzySEhE8wfMihVz8uCc16LXC65o2vaJ4+fxb4YsI9XjvLNLO/003CwyHYxKSRs3y5G4gqSPrS6rt/wH+oPZ9/8Ahv0RyPxN0LXdA+D/AIwtb7WpNW0lhbNp73jl7qH98m9HfA3rnoTk+tXfF2na34I8O2XiqHxXrF5qUN3apeW884NpcLJIqOghA2oPm4K8j1PWk8W+F/G/i3wP4plvbcx3mppbw6doSXiulukcqszM5ITzG5JwcAADJrqvifoOpeIvAD6bo9t9ouzdWsgj8xU+VJkZjliBwFJ61pHpfuvu0/phU/h6f3vyVvx2KHjXYviJX8U+OI/DegC3H2a1tdQFpcXMufmZn4baBgBVPua5DRfEZ1Dw78StFstfufEGj6fpRlsL28JeUCSCTchkIBcArw3P1NdHqGga/ovxX1PxLa+GofFFtqVvBFA5uYopdOMYIKjzP4GJySpz7GqcHhTxhPqnxAvNXsLcy+IdGSKzW1uFaOORY5EEGWwSfmUliFUkmsX8DXdP+v69PXWDSqJ+cf0v/wAH7zP07/kLfBD/ALBk/wD6RJVSPx1oXinWdYufFXxBu/DsdrfS2un6dYXptikcZ2+bIQMuzEE4bgDtXS2XhDXIdQ+FksljhNAsZYtSPnJ+4drVYwPvfN8wI+XP5VNpmm+LPh9e6rZaHoCeItGvryW9tPKvY7eW1aQ5aNxJgFd2SCpJ9q6KzTqN9Pe/9K0/C5mvgjbsv/bv+AchdeP9Z1n4QX8mla35+paX4gg0+HVYDsF2nnJsdguBhlYBh0PPrXSeJtO1bwLe+H9as/FOs6hLd6tb2N/b31wJIJ0lbaxWPAWMg8jZj8as+IPDnjPXPh4lvq7QX2ry6xb3htrYokdrAs6t5Yc7d+1Qck8k9M99v4j6FqOvabosWk2/2h7XW7O7mG9V2xI+Xb5iM4HYc1nHRq/8yv6e7f8AW/Qne/az/wDbrfpbqY0Md/8AEHxt4ggk13UtL0fQbhLKCDS7nyHmn2Bnd3AyQNwAXOOOa5i28Wa94Fg+JtxrWrXGtS6K1qli102V/eJiMlRgA/Mu7aBkgnvXUrBrfhfx1r954U0638R2OqSxzXdnDfxwz2NyECkkPxtZQp659jXMaB4W1DxvP8UtL8SPBbXmoXFtGTbEyR27rEHQBjjdtygPAzg9M1Eb8v8A27r63V7fjYq6U1fv+Gv9PzMzUfGWj6L4ZbXNK+K1zqfia3jE8ltPd77W7YYLQiDbtQHkArgjjmvUZ/CeieNrGfWrkXCHX9EjspNjKNkLZkBGQcNl+pyOBxWU2o/E+40ePRofD9np+pYWKTXjfRy2ygYzKkWN5YjOFZQAT1r0KBHjt40llMzqoDSEAFzjk4HAz7Vo7a/16/1/wSVfT8fw/r+kEEKW9vHBEMJGgRR6ADAp9FFTuCVlZBRRRQMKKKKACiiigAooooAKKKKACuS+GP8AyI4/7Cepf+l09dbXJfDH/kRx/wBhPUv/AEunoA62iiigCC0/1Lf9dZP/AEM1zOsf8lc8Lf8AYM1P/wBDtK6a0/1Lf9dZP/QzXM6x/wAlc8Lf9gzU/wD0O0oA62iiigAooooAKKKKACiiigAooooAKKKKACiiigAooooAKKKKACiiigAooooAKKKKACiiigAooooAKKKKACiiigAooooAKKKKACiiigAooooA5L4df8grWf8AsYNS/wDSqSutrkvh1/yCtZ/7GDUv/SqSutoAKKKKACiiigAooooAKKKKACiiigAooooAK5H4n/8AIhy/9f8AYf8ApZDXXVyPxP8A+RDl/wCv+w/9LIaAOuooooAKKKKACiiigAooooAKKKKACiiigAooooAKKKKACiiigAooooAKKKKACiiigAooooAKKKKACiiigAooooAKKKKACiiigAooooAKKKKAOSh/5LRef9i/b/8ApRNXW1yUP/JaLz/sX7f/ANKJq62gAooooAKKKKACiiigAooooAKKKKACiiigDkbn/ktGm/8AYv3f/pRb111cjc/8lo03/sX7v/0ot666gAooooAKKKKACiiigAooooAKKKKACiiigAooooAKKKKACiivNNQ874hfE3VPDVxeXNv4e8PwQm8t7WVomvp5QWCu6kNsVR90EZJ57Uat2QdLnpdFeYeLPANn4O8N3niP4eB9D1PS4mujFBK/kXiINzRyxk7WyueeoODmud8d6l4b8VeKvhhqfiX7HHoeoW13cSi/kVIlDQIyhmJA4bA+tNauy/rRv9B26+v4HuNFeEeNLD4UWPhW7ufA93pcPiNE/wCJYdAvd900/wDAoWJiSCcZyMYr2jQXv38O6c+sqE1FrWM3SjoJdo3j880JXTf9f1/wCetjD1j4f2Op65NrFjqmraHf3KKl1NpdyI/tAUYXerKykgcA4B961fDfhnTfCulmy0mOTbJI00000hklnkb70jueWY+ta1FJaKyG9QooooAKKKKACiiigAooooAKKKKACiiigAooooAK5L4Y/wDIjj/sJ6l/6XT11tcl8Mf+RHH/AGE9S/8AS6egDraKKKAILT/Ut/11k/8AQzXM6x/yVzwt/wBgzU//AEO0rprT/Ut/11k/9DNczrH/ACVzwt/2DNT/APQ7SgDraKKKACiiigAooooAKKKKACiiigAooooAKKKKACiiigAooooAKKKKACiiigAooooAKKKKACiiigAooooAKKKKACiiigAooooAKKKKACiiigDkvh1/yCtZ/wCxg1L/ANKpK62uS+HX/IK1n/sYNS/9KpK62gAooooAKKKKACiiigAooooAKKKKACiiigArkfif/wAiHL/1/wBh/wClkNddXI/E/wD5EOX/AK/7D/0shoA66iiigAooooAKKKKACiiigAooooAKKKKACiiigAooooAKKKKACiiigAooooAKKKKACiiigAooooAKKKKACiiigAooooAKKKKACiiigAooooA5KH/ktF5/2L9v/wClE1dbXJQ/8lovP+xft/8A0omrraACiiigAooooAKKKKACiiigAooooAKKKKAORuf+S0ab/wBi/d/+lFvXXVyNz/yWjTf+xfu//Si3rrqACiiigAooooAKKKKACiiigAooooAKKKKACiiigAooooAK8w+2QfD74waze69J9l0XxTHA8F/LxDDcxKUMTv0TcuCCeDivT6juLeG7t3guoY54ZBteORQysPQg8GjVO6DRqzOE+IvjbTU8K3ei6FeQ6prurwNaWNjZyCWRmkUrvIXO1VBLFjgcVzWoeHIdF8d/CPQLpY7pLK0vIH3qGVytsuTg+4zXqeleHdF0Lf8A2Jo9hp3mff8AslqkW767QM1Yn02xub62vbmzt5ru03fZ55IlaSHcMNsYjK5HBx1pxtF3/rZpfmO+lvJ/j/wx5t8R9AfwjLb/ABA8G2ccF3pZH9qWtugRb2z/AIwwHBZeoPYZ9BXo2k6paa3o9pqmmyia0u4lmikHdSMirUsSTRPFMiyRupV0cZDA9QR3FQafptjpNjHZaVZ29lax52QW0Sxxpk5OFUADkk0lorf15/16ierv/Xl/XoWaKKKACiiigAooooAKKKKACiiigAooooAKKKKACiiigArkvhj/AMiOP+wnqX/pdPXW1yXwx/5Ecf8AYT1L/wBLp6AOtooooAgtP9S3/XWT/wBDNczrH/JXPC3/AGDNT/8AQ7SumtP9S3/XWT/0M1zOsf8AJXPC3/YM1P8A9DtKAOtooooAKKKKACiiigAooooAKKKKACiiigAooooAKKKKACiiigAooooAKKKKACiiigAooooAKKKKACiiigAooooAKKKKACiiigAooooAKKKKAOS+HX/IK1n/ALGDUv8A0qkrra5L4df8grWf+xg1L/0qkrraACiiigAooooAKKKKACiiigAooooAKKKKACuR+J//ACIcv/X/AGH/AKWQ111cj8T/APkQ5f8Ar/sP/SyGgDrqKKKACiiigAooooAKKKKACiiigAooooAKKKKACiiigAooooAKKKKACiiigAooooAKKKKACiiigAooooAKKKKACiiigAooooAKKKKACiiigDkof+S0Xn/Yv2//AKUTV1tclD/yWi8/7F+3/wDSiautoAKKKKACiiigAooooAKKKKACiiigAooooA5G5/5LRpv/AGL93/6UW9ddXI3P/JaNN/7F+7/9KLeuuoAKKKKACiiigAooooAKKKKACiiigArlPGviXU/D2peGINMt4Jo9W1aOxuWlViUjZWJK4YYPy9Tke1dXUU9rb3LRNcwRTNBJ5sRkQN5b4I3LnocEjI9TR1XyDozmPh94n1HxN4cvNR1yG3tXg1C5tl8lSi+XE5UE7mPPBz24rb0vxDouttKui6vYai0JxKLS5SUoffaTj8a4j4m2ds7eFPDiQpb6VrGuhb6KFQizrteUo2MZ3uMn159a3rzwh4Ws/EOi6rGlvo19aOYLU2pjt/tIZSPJYY+cYGQo5GMiiO2vp+C1/ET0bXz/ABehS8JfESz1Hw0l/wCKdS0rS7iW+ubaFHnEIkEczIuA7ZJwBnHeuzkuIYbdriWWNIVXc0jMAoX1z0xXlHwj8HaBf+C9Vu9R0q1vJ9Q1O9SZ7iFZDsEzKEBPQcZwO5JrE8OXWhzfATwlF4t/tHUUF+6Wml2SebJftFNIEiKH7yBVBwSB8oyamGtNN72j+K/r1La1b6Xf6/5Hsel+JND1ySSPRNa0/UXi/wBYtpdJKU+oUnFcVqPxE1a08N+P9Qjt7Iy+GrpobNWR9siiNG/efNycsemO1c5q0kv/AAszwNew+CX8MBtQe3Fy8kCyzxmF8xmOJm+XjPzHjsOara3/AMiL8Zf+wg//AKJirOpJqMmuil965f8AMI/El5r9f8j2c6pbWuix6jqlzb2cPlK8ks0gjjTI9WOBTtP1XT9XsheaVf219bHgT20yyIf+BKSK8h8R3V5qPxa0TS38NyeJbPTdBW+i04TQxp5zvs85hKwVtoGAOSC2a1dA0zxBD8Tm1a28GSeGtIvNPki1FDd2zJLMvMcmyJz83Vc46Gt56Nv1/C/+Rmtl8vxt/md6/i7w3Etq0niDS0W8GbYtexgT84+Tn5ueOK0rm5gs7Z7i7njggjXc8srhVUepJ4Arx/4XeDNAvPgMs2oaXa3c9/b3DTzTxB3OGcKAx5AUAYx0PPWs7QifEtj8JtB1zN1ptxp815cQzfMlzJDGBGrg/eAznB64HWhr3nHqv+D+Vvn5DbS19f0X43+R7FZ+JtB1AWxsNb066F27R2/k3cb+cyjLKmD8xA5IHQU/UvEOi6NNFFrGr2FhJMcRJdXKRGT/AHQxGfwrzjxV4a0jSfjd4B1HS7SCynuZbuKaOBAglCwEqxA6kZIz6Ee1YPgi4v8AWINb1m9+HUnia51LUbiOW9mubTAjRyiwhZXDKqhcYx71N77ef4WX6lNW/D9f8j3KSeGK3aeWVEhVd7SMwCheuSemKp6Xr+j64sjaJq1jqIiOJDaXKS7D6HaTivJ7PwP4v1D4WXOhz6dHYGy1wXenaXqF0k0c9mrh1tpGQsNuSRj/AGR2q1o+o6cnxI0I+JfBd74N14pLbWklqYpLO9BX/VNLGPmIC7lUgY9apau39bX/AOBYT0V/63/p3LGj/ErxNf3+gwXOn2KDUdevdNn2xOCkUAJBX5zhvlbJORxwBXq1VE0rTomjaOwtUaKZ54ysKgpI+d7jjhm3Nk9Tk561bqVpFL+tl/w/zDr/AF3f/DfIKKKKYBRRRQAUUUUAFFFFABRRRQAVyXwx/wCRHH/YT1L/ANLp662uS+GP/Ijj/sJ6l/6XT0AdbRRRQBBaf6lv+usn/oZrmdY/5K54W/7Bmp/+h2ldNaf6lv8ArrJ/6Ga5nWP+SueFv+wZqf8A6HaUAdbRRRQAUUUUAFFFFABRRRQAUUUUAFFFFABRRRQAUUUUAFFFFABRRRQAUUUUAFFFFABRRRQAUUUUAFFFFABRRRQAUUUUAFFFFABRRRQAUUUUAcl8Ov8AkFaz/wBjBqX/AKVSV1tcl8Ov+QVrP/Ywal/6VSV1tABRRRQAUUUUAFFFFABRRRQAUUUUAFFFFABXI/E//kQ5f+v+w/8ASyGuurkfif8A8iHL/wBf9h/6WQ0AddRRRQAUUUUAFFFFABRRRQAUUUUAFFFFABRRRQAUUUUAFFFFABRRRQAUUUUAFFFFABRRRQAUUUUAFFFFABRRRQAUUUUAFFFFABRRRQAUUUUAclD/AMlovP8AsX7f/wBKJq62uSh/5LRef9i/b/8ApRNXW0AFFFFABRRRQAUUUUAFFFFABRRRQAUUUUAcjc/8lo03/sX7v/0ot666uRuf+S0ab/2L93/6UW9ddQAUUUUAFFFFABRRRQAUUUUAFFFFABRRRQBieK/C1n4t0dbK8lmtpYZkubW7t2AltpkOVdScjI9+oJrH07wNqUviCx1bxf4kfXZdM3GxhSzS2ijdhtMjKpO98cA5AGTgV2dFC02B6nP+DPC//CI+H30v7Z9s3XU9x5vleXjzZGfbjJ6bsZzzjtXL23wj+x+CtC0mz1+W31XQbqW6sdUjth8rSO7ENEWIZcPgjPOO3Su71nWLHQNGutV1ef7PZWkZkml2M2xR3woJP4CqmmeK9F1jVptM029868htorqSPynXbFIMo2SAOR2zkd6Sslyrpb8NvyHzaev/AA36/icxc/DjVNT13Q9b1vxZNe6jpF4s8YFmsdv5eCHRYlbILZHzszEY4FS3vw2+2aF4z07+1dn/AAlFwZ/M+zZ+zZRFxjd8/wBzOcr1rrtW1Wy0LR7rVNVm8iztIzLNLsZtijqcKCT+AqxBPHc20c8DbopUDo2MZBGQeaTipJp/1f8AzsK9mn/Wn/DnLa/4F/tS50zU9K1WbSNc0uEwQX8MSyB4yBuSSNuHU4zjIIPQ0mh+Cbq01+bX/Emuy63qz25tYZBbi3htoickJECeSerEk9uK66iq3v8A1vuGyt/WhzfhPwj/AMIv4At/DP237V5EMkX2nytm7ezHO3cem717Vxmu+HtH8KeFvBmgaprdxp1/YSGLTfEMcKJHBMEPEgdiArjI2nIOOor1esjWNT0Nb+w0DW/Klm1jzFtrWaAyJP5a7nB4KjA5+bGe1Du3fq/0/pjX+f47nlsWnXOo/HLwpLN4pHie902G6mvWtokigs42j2RjYhbazMx+8xJwOgArsJfh/qmm6rf3XgnxS+hQalMbi6s5bFLqMSt96SPJUoT36jPaptA8U+ArCOzsvDZs7GPUL6WyghtLBoVkuI/vrgIAMep4PY12dF00rf1fX/L8GK+v9dL/APB/I4c/C7Tl8HR6Nb6lfxXkd7/aS6rvDTm73bvNORtOTxtxjHHvT7HwNqtxr+nar4w8TNrbaWzSWUENilrGkhXb5jgMxdsE45AGeldrRQHSwUUUUAFFFFABRRRQAUUUUAFFFFABRRRQAVyXwx/5Ecf9hPUv/S6eutrkvhj/AMiOP+wnqX/pdPQB1tFFFAEFp/qW/wCusn/oZrmdY/5K54W/7Bmp/wDodpXTWn+pb/rrJ/6Ga5nWP+SueFv+wZqf/odpQB1tFFFABRRRQAUUUUAFFFFABRRRQAUUUUAFFFFABRRRQAUUUUAFFFFABRRRQAUUUUAFFFFABRRRQAUUUUAFFFFABRRRQAUUUUAFFFFABRRRQByXw6/5BWs/9jBqX/pVJXW1yXw6/wCQVrP/AGMGpf8ApVJXW0AFFFFABRRRQAUUUUAFFFFABRRRQAUUUUAFcj8T/wDkQ5f+v+w/9LIa66uR+J//ACIcv/X/AGH/AKWQ0AddRRRQAUUUUAFFFFABRRRQAUUUUAFFFFABRRRQAUUUUAFFFFABRRRQAUUUUAFFFFABRRRQAUUUUAFFFFABRRRQAUUUUAFFFFABRRRQAUUUUAclD/yWi8/7F+3/APSiautrkof+S0Xn/Yv2/wD6UTV1tABRRRQAUUUUAFFFFABRRRQAUUUUAFFFFAHI3P8AyWjTf+xfu/8A0ot666uRuf8AktGm/wDYv3f/AKUW9ddQAUUUUAFFFFABRRRQAUUUUAFFFFABRRRQAUUUUAZPirQY/FHhPU9Dml8ldQtng83Zu8ssMBsZGcHnGR0rmNQ0yx+G0HiDxrvNx5ek28Atwm3/AFCsq/Nn+Isg6cY713tYPjnw63izwLq+hxyCKW9tmSN26K/Vc+2QM1ErqLa3/wCH/wA2VGzklLb/AIb/ACR5z42tfHEfwd1vVdc1m3vvtems1zpUdmsUdqrr/wAs5B8xKZ53E7gDjFa+peK7/wDtHQPCGhapaaNPLpKX15qV0iv5EQAVVjViFLs2euQACcGsnxh4p8Tav8K9S8PQ+CNcGvSWJt7oC23W6jbh2jlBxJkZ2quWyelS+IvCP2bxNofirUfCi+JtO/sePT7+wNok81sykMkqRP8AeIJZSBz7Gr05n20/KX62M9bK+9n+cf0ubfh3xVqVh46/4RTWNZtfEK3Vk93Y38CRxyEoQHikVDszgghgB3yKp6kfHsPh+41zWPGGn+GrtVkli0lrWCS3VVJ2o8rEsxIAyykYJ6Uvh2wF7r15d+E/AOn+GLKGxkjt9QvNKS0u5blgQAigBljAxksOegrlfDuh28Xhh7G7+GuoX/jZo3S51DVLRZInnII877TISNvfCZPYCplfl03t+r6fdv5d2XG19dr/AKI6l/iDrWv+H/BdroAt7DWfFULTSXEkfmx2ccabpXVCfmOSAoJxzzVDVrTXdP8AjN8PbTXNRXV41a/aG+MCwyNm35R0T5eMAhgBkHGOMmpoeha5pXg34e+JLXRrye88PW8trf6W0ZjuGhkG1yitjLKVDAfxDpWhd6trPir4veC7y18M6zY6JYteGW6vrNoj5jQEDcp5RegBbG4k4zit1ZVNO7/J2/D8dCIN8mvb9Nfn+hvad8LbLTrzSbhLzd/Zur3eqKvk43+eHGz73G3cvPfb0GeO7oorJaKy/roV1v8A13/UKKKKACiiigAooooAKKKKACiiigAooooAKKKKACuS+GP/ACI4/wCwnqX/AKXT11tcl8Mf+RHH/YT1L/0unoA62iiigCC0/wBS3/XWT/0M1zOsf8lc8Lf9gzU//Q7SumtP9S3/AF1k/wDQzXM6x/yVzwt/2DNT/wDQ7SgDraKKKACiiigAooooAKKKKACiiigAooooAKKKKACiiigAooooAKKKKACiiigAooooAKKKKACiiigAooooAKKKKACiiigAooooAKKKKACiiigDkvh1/wAgrWf+xg1L/wBKpK62uS+HX/IK1n/sYNS/9KpK62gAooooAKKKKACiiigAooooAKKKKACiiigArkfif/yIcv8A1/2H/pZDXXVyPxP/AORDl/6/7D/0shoA66iiigAooooAKKKKACiiigAooooAKKKKACiiigAooooAKKKKACiiigAooooAKKKKACiiigAooooAKKKKACiiigAooooAKKKKACiiigAooooA5KH/AJLRef8AYv2//pRNXW1yUP8AyWi8/wCxft//AEomrraACiiigAooooAKKKKACiiigAooooAKKKKAORuf+S0ab/2L93/6UW9ddXI3P/JaNN/7F+7/APSi3rrqACiiigAooooAKKKKACiiigAooooAKKKKACiiigAooooAKKKKACiiigAooooAKKKKACiiigAooooAKKKKACiiigAooooAKKKKACiiigArkvhj/wAiOP8AsJ6l/wCl09dbXJfDH/kRx/2E9S/9Lp6AOtooooAgtP8AUt/11k/9DNczrH/JXPC3/YM1P/0O0rprT/Ut/wBdZP8A0M1zOsf8lc8Lf9gzU/8A0O0oA62iiigAooooAKKKKACiiigAooooAKKKKACiiigAooooAKKKKACiiigAooooAKKKKACiiigAooooAKKKKACiiigAooooAKKKKACiiigAooooA5L4df8AIK1n/sYNS/8ASqSutrkvh1/yCtZ/7GDUv/SqSutoAKKKKACiiigAooooAKKKKACiiigAooooAK5H4n/8iHL/ANf9h/6WQ111cj8T/wDkQ5f+v+w/9LIaAOuooooAKKKKACiiigAooooAKKKKACiiigAooooAKKKKACiiigAooooAKKKKACiiigAooooAKKKKACiiigAooooAKKKKACiiigAooooAKKKKAOSh/wCS0Xn/AGL9v/6UTV1tclD/AMlovP8AsX7f/wBKJq62gAooooAKKKKACiiigAooooAKKKKACiiigDkbn/ktGm/9i/d/+lFvXXVyNz/yWjTf+xfu/wD0ot666gAooooAKKKKACiiigAooooAKKKKACiiigAooooAKKKKACiiigAooooAKKKKACiiigAooooAKKKKACiiigAooooAKKKKACiiigAooooAK5L4Y/8AIjj/ALCepf8ApdPXW1yXwx/5Ecf9hPUv/S6egDraKKKAILT/AFLf9dZP/QzXM6x/yVzwt/2DNT/9DtK6a0/1Lf8AXWT/ANDNczrH/JXPC3/YM1P/ANDtKAOtooooAKKKKACiiigAooooAKKKKACiiigAooooAKKKKACiiigAooooAKKKKACiiigAooooAKKKKACiiigAooooAKKKKACiiigAooooAKKKKAOS+HX/ACCtZ/7GDUv/AEqkrra5L4df8grWf+xg1L/0qkrraACiiigAooooAKKKKACiiigAooooAKKKKACuR+J//Ihy/wDX/Yf+lkNddXI/E/8A5EOX/r/sP/SyGgDrqKKKACiiigAooooAKKKKACiiigAooooAKKKKACiiigAooooAKKKKACiiigAooooAKKKKACiiigAooooAKKKKACiiigAooooAKKKKACiiigDkof8AktF5/wBi/b/+lE1dbXJQ/wDJaLz/ALF+3/8ASiautoAKKKKACiiigAooooAKKKKACiiigAooooA5G5/5LRpv/Yv3f/pRb111cjc/8lo03/sX7v8A9KLeuuoAKKKKACiiigAooooAKKKKACiiigAooooAKKKKACiiigAooooAKKKKACiiigAooooAKKKKACiiigAooooAKKKKACiiigAooooAKKKKACuS+GP/ACI4/wCwnqX/AKXT11tcl8Mf+RHH/YT1L/0unoA62iiigCC0/wBS3/XWT/0M1zOsf8lc8Lf9gzU//Q7SumtP9S3/AF1k/wDQzXM6x/yVzwt/2DNT/wDQ7SgDraKKKACiiigAooooAKKKKACiiigAooooAKKKKACiiigAooooAKKKKACiiigAooooAKKKKACiiigAooooAKKKKACiiigAooooAKKKKACiiigDkvh1/wAgrWf+xg1L/wBKpK62uS+HX/IK1n/sYNS/9KpK62gAooooAKKKKACiiigAooooAKKKKACiiigArkfif/yIcv8A1/2H/pZDXXVyPxP/AORDl/6/7D/0shoA66iiigAooooAKKKKACiiigAooooAKKKKACiiigAooooAKKKKACiiigAooooAKKKKACiiigAooooAKKKKACiiigAooooAKKKKACiiigAooooA5KH/AJLRef8AYv2//pRNXW1yUP8AyWi8/wCxft//AEomrraACiiigAooooAKKKKACiiigAooooAKKKKAORuf+S0ab/2L93/6UW9ddXI3P/JaNN/7F+7/APSi3rrqACiiigAooooAKKKKACiiigAooooAKKKKACiiigAooooAKKKKACiiigAooooAKKKKACiiigAooooAKKKKACiiigAooooAKKKKACiiigArkvhj/wAiOP8AsJ6l/wCl09dbXJfDH/kRx/2E9S/9Lp6AOtooooAgtP8AUt/11k/9DNczrH/JXPC3/YM1P/0O0rprT/Ut/wBdZP8A0M1zOsf8lc8Lf9gzU/8A0O0oA62iiigAooooAKKKKACiiigAooooAKKKKACiiigAooooAKKKKACiiigAooooAKKKKACiiigAooooAKKKKACiiigAooooAKKKKACiiigAooooA5L4df8AIK1n/sYNS/8ASqSutrkvh1/yCtZ/7GDUv/SqSutoAKKKKACiiigAooooAKKKKACiiigAooooAK5H4n/8iHL/ANf9h/6WQ111cj8T/wDkQ5f+v+w/9LIaAOuooooAKKKKACiiigAooooAKKKKACiiigAooooAKKKKACiiigAooooAKKKKACiiigAooooAKKKKACiiigAooooAKKKKACiiigAooooAKKKKAOSh/wCS0Xn/AGL9v/6UTV1tclD/AMlovP8AsX7f/wBKJq62gAooooAKKKKACiiigAooooAKKKKACiiigDkbn/ktGm/9i/d/+lFvXXVyNz/yWjTf+xfu/wD0ot666gAooooAKKKKACiiigAooooAKKKKACiiigAooooAKKKKACiiigAooooAKKKKACiiigAooooAKKKKACiiigAooooAKKKKACiiigAooooAK5L4Y/8AIjj/ALCepf8ApdPXW1yXwx/5Ecf9hPUv/S6egDraKKKAILT/AFLf9dZP/QzXM6x/yVzwt/2DNT/9DtK6a0/1Lf8AXWT/ANDNczrH/JXPC3/YM1P/ANDtKAOtooooAKKKKACiiigAooooAKKKKACiiigAooooAKKKKACiiigAooooAKKKKACiiigAooooAKKKKACiiigAooooAKKKKACiiigAooooAKKKKAOS+HX/ACCtZ/7GDUv/AEqkrra5L4df8grWf+xg1L/0qkrraACiiigAooooAKKKKACiiigAooooAKKKKACuR+J//Ihy/wDX/Yf+lkNddXI/E/8A5EOX/r/sP/SyGgDrqKKKACiiigAooooAKKKKACiiigAooooAKKKKACiiigAooooAKKKKACiiigAooooAKKKKACiiigAooooAKKKKACiiigAooooAKKKKACiiigDkof8AktF5/wBi/b/+lE1dbXJQ/wDJaLz/ALF+3/8ASiautoAKKKKACiiigAooooAKKKKACiiigAooooA5G5/5LRpv/Yv3f/pRb111cjc/8lo03/sX7v8A9KLeuuoAKKKKACiiigAooooAKKKKACiiigAooooAKKKKACiiigAooooAKKKKACiiigAooooAKKKKACiiigAooooAKKKKACiiigAooooAKKKKACuS+GP/ACI4/wCwnqX/AKXT11tcl8Mf+RHH/YT1L/0unoA62iiigCC0/wBS3/XWT/0M1zOsf8lc8Lf9gzU//Q7SumtP9S3/AF1k/wDQzXM6x/yVzwt/2DNT/wDQ7SgDraKKKACiiigAooooAKKKKACiiigAooooAKKKKACiiigAooooAKKKKACiiigAooooAKKKKACiiigAooooAKKKKACiiigAooooAKKKKACiiigDkvh1/wAgrWf+xg1L/wBKpK62uS+HX/IK1n/sYNS/9KpK62gAooooAKKKKACiiigAooooAKKKKACiiigArkfif/yIcv8A1/2H/pZDXXVyPxP/AORDl/6/7D/0shoA66iiigAooooAKKKKACiiigAooooAKKKKACiiigAooooAKKKKACiiigAooooAKKKKACiiigAooooAKKKKACiiigAooooAKKKKACiiigAooooA5KH/AJLRef8AYv2//pRNXW1yUP8AyWi8/wCxft//AEomrraACiiigAooooAKKKKACiiigAooooAKKKKAORuf+S0ab/2L93/6UW9ddXI3P/JaNN/7F+7/APSi3rrqACiiigAooooAKKKKACiiigAooooAKKKKACiiigAooooAKKKKACiiigAooooAKKKKACiiigAooooAKKKKACiiigAooooAKKKKACiiigArkvhj/wAiOP8AsJ6l/wCl09dbXJfDH/kRx/2E9S/9Lp6AOtooooAgtP8AUt/11k/9DNczrH/JXPC3/YM1P/0O0rprT/Ut/wBdZP8A0M1zXijSPEE3ivRNb8NRaZO1hbXdvLFqFzJCD5xhIKlI3zjyjnOOooA6yiuS+1fEX/oDeF//AAbXH/yNR9q+Iv8A0BvC/wD4Nrj/AORqAOtorkvtXxF/6A3hf/wbXH/yNR9q+Iv/AEBvC/8A4Nrj/wCRqAOtorkvtXxF/wCgN4X/APBtcf8AyNR9q+Iv/QG8L/8Ag2uP/kagDraK5L7V8Rf+gN4X/wDBtcf/ACNR9q+Iv/QG8L/+Da4/+RqAOtorkvtXxF/6A3hf/wAG1x/8jUfaviL/ANAbwv8A+Da4/wDkagDraK5L7V8Rf+gN4X/8G1x/8jUfaviL/wBAbwv/AODa4/8AkagDraK5L7V8Rf8AoDeF/wDwbXH/AMjUfaviL/0BvC//AINrj/5GoA62iuS+1fEX/oDeF/8AwbXH/wAjUfaviL/0BvC//g2uP/kagDraK5L7V8Rf+gN4X/8ABtcf/I1H2r4i/wDQG8L/APg2uP8A5GoA62iuS+1fEX/oDeF//Btcf/I1H2r4i/8AQG8L/wDg2uP/AJGoA62iuS+1fEX/AKA3hf8A8G1x/wDI1H2r4i/9Abwv/wCDa4/+RqAOtorkvtXxF/6A3hf/AMG1x/8AI1H2r4i/9Abwv/4Nrj/5GoA62iuS+1fEX/oDeF//AAbXH/yNR9q+Iv8A0BvC/wD4Nrj/AORqAOtorkvtXxF/6A3hf/wbXH/yNR9q+Iv/AEBvC/8A4Nrj/wCRqAOtorkvtXxF/wCgN4X/APBtcf8AyNR9q+Iv/QG8L/8Ag2uP/kagDraK5L7V8Rf+gN4X/wDBtcf/ACNR9q+Iv/QG8L/+Da4/+RqAOtorkvtXxF/6A3hf/wAG1x/8jUfaviL/ANAbwv8A+Da4/wDkagDraK5L7V8Rf+gN4X/8G1x/8jUfaviL/wBAbwv/AODa4/8AkagDraK5L7V8Rf8AoDeF/wDwbXH/AMjUfaviL/0BvC//AINrj/5GoA62iuS+1fEX/oDeF/8AwbXH/wAjUfaviL/0BvC//g2uP/kagA+HX/IK1n/sYNS/9KpK62ud8EaNqWiaJcx619lF5dahdXrraSNJGnnStIFDMqk43Y6CuioAKKKKACiiigAooooAKKKKACiiigAooooAK5H4n/8AIhy/9f8AYf8ApZDXXVz/AI50W+8QeEbjT9JNuLwz280X2l2SMmKeOQglVYjIQjgGgDoKK5L7V8Rf+gN4X/8ABtcf/I1H2r4i/wDQG8L/APg2uP8A5GoA62iuS+1fEX/oDeF//Btcf/I1H2r4i/8AQG8L/wDg2uP/AJGoA62iuS+1fEX/AKA3hf8A8G1x/wDI1H2r4i/9Abwv/wCDa4/+RqAOtorkvtXxF/6A3hf/AMG1x/8AI1H2r4i/9Abwv/4Nrj/5GoA62iuS+1fEX/oDeF//AAbXH/yNR9q+Iv8A0BvC/wD4Nrj/AORqAOtorkvtXxF/6A3hf/wbXH/yNR9q+Iv/AEBvC/8A4Nrj/wCRqAOtorkvtXxF/wCgN4X/APBtcf8AyNR9q+Iv/QG8L/8Ag2uP/kagDraK5L7V8Rf+gN4X/wDBtcf/ACNR9q+Iv/QG8L/+Da4/+RqAOtorkvtXxF/6A3hf/wAG1x/8jUfaviL/ANAbwv8A+Da4/wDkagDraK5L7V8Rf+gN4X/8G1x/8jUfaviL/wBAbwv/AODa4/8AkagDraK5L7V8Rf8AoDeF/wDwbXH/AMjUfaviL/0BvC//AINrj/5GoA62iuS+1fEX/oDeF/8AwbXH/wAjUfaviL/0BvC//g2uP/kagDraK5L7V8Rf+gN4X/8ABtcf/I1H2r4i/wDQG8L/APg2uP8A5GoA62iuS+1fEX/oDeF//Btcf/I1H2r4i/8AQG8L/wDg2uP/AJGoA62iuS+1fEX/AKA3hf8A8G1x/wDI1H2r4i/9Abwv/wCDa4/+RqAOtorkvtXxF/6A3hf/AMG1x/8AI1H2r4i/9Abwv/4Nrj/5GoA62iuS+1fEX/oDeF//AAbXH/yNR9q+Iv8A0BvC/wD4Nrj/AORqAOtorkvtXxF/6A3hf/wbXH/yNR9q+Iv/AEBvC/8A4Nrj/wCRqAOtorkvtXxF/wCgN4X/APBtcf8AyNR9q+Iv/QG8L/8Ag2uP/kagDraK5L7V8Rf+gN4X/wDBtcf/ACNR9q+Iv/QG8L/+Da4/+RqACH/ktF5/2L9v/wClE1dbXI6BpHiRvG13r3iSHSrYSadHZRRWF1JNnbI7liXjTH38cZ6V11ABRRRQAUUUUAFFFFABRRRQAUUUUAFFFFAHI3P/ACWjTf8AsX7v/wBKLeuurkfEGkeIx41sde8Nw6XciHT5rKWLULqSH78kbhlKRvn/AFeOcdaX7V8Rf+gN4X/8G1x/8jUAdbRXJfaviL/0BvC//g2uP/kaj7V8Rf8AoDeF/wDwbXH/AMjUAdbRXJfaviL/ANAbwv8A+Da4/wDkaj7V8Rf+gN4X/wDBtcf/ACNQB1tFcl9q+Iv/AEBvC/8A4Nrj/wCRqPtXxF/6A3hf/wAG1x/8jUAdbRXJfaviL/0BvC//AINrj/5Go+1fEX/oDeF//Btcf/I1AHW0VyX2r4i/9Abwv/4Nrj/5Go+1fEX/AKA3hf8A8G1x/wDI1AHW0VyX2r4i/wDQG8L/APg2uP8A5Go+1fEX/oDeF/8AwbXH/wAjUAdbRXJfaviL/wBAbwv/AODa4/8Akaj7V8Rf+gN4X/8ABtcf/I1AHW0VyX2r4i/9Abwv/wCDa4/+RqPtXxF/6A3hf/wbXH/yNQB1tFcl9q+Iv/QG8L/+Da4/+RqPtXxF/wCgN4X/APBtcf8AyNQB1tFcl9q+Iv8A0BvC/wD4Nrj/AORqPtXxF/6A3hf/AMG1x/8AI1AHW0VyX2r4i/8AQG8L/wDg2uP/AJGo+1fEX/oDeF//AAbXH/yNQB1tFcl9q+Iv/QG8L/8Ag2uP/kaj7V8Rf+gN4X/8G1x/8jUAdbRXJfaviL/0BvC//g2uP/kaj7V8Rf8AoDeF/wDwbXH/AMjUAdbRXJfaviL/ANAbwv8A+Da4/wDkaj7V8Rf+gN4X/wDBtcf/ACNQB1tFcl9q+Iv/AEBvC/8A4Nrj/wCRqPtXxF/6A3hf/wAG1x/8jUAdbRXJfaviL/0BvC//AINrj/5Go+1fEX/oDeF//Btcf/I1AHW0VyX2r4i/9Abwv/4Nrj/5Go+1fEX/AKA3hf8A8G1x/wDI1AHW0VyX2r4i/wDQG8L/APg2uP8A5Go+1fEX/oDeF/8AwbXH/wAjUAdbRXJfaviL/wBAbwv/AODa4/8Akaj7V8Rf+gN4X/8ABtcf/I1AHW1yXwx/5Ecf9hPUv/S6ej7V8Rf+gN4X/wDBtcf/ACNVzwNot/oHhOGx1c2xvPtN1cS/ZXZ4x5txJKAGZVJwHA5A6UAdDRRRQBBaf6lv+usn/oZqeoLT/Ut/11k/9DNT0AFFFFABRRRQAUUUUAFFFFABRRRQAUUUUAFFFFABRRRQAUUUUAFFFFABRRRQAUUUUAFFFFABRRRQAUUUUAFFFFABRRRQAUUUUAFFFFABRRRQAUUUUAFFFFABRRRQAUUUUAFFFFABRRRQAUUUUAFFFFABRRRQAUUUUAFFFFABRRRQAUUUUAFFFFABRRRQAUUUUAFFFFABRRRQAUUUUAFFFFABRRRQAUUUUAFFFFABRRRQAUUUUAFFFFABRRRQAUUUUAFFFFABRRRQAUUUUAFFFFABRRRQAUUUUAFFFFABRRRQAUUUUAFFFFABRRRQAUUUUAFFFFABRRRQAUUUUAFFFFABRRRQAUUUUAFFFFABRRRQAUUUUAFFFFABRRRQAUUUUAFFFFABRRRQAUUUUAFFFFABRRRQB//Z;clipPath=inset(13.64% 0% 0% 0%);strokeWidth=6;" parent="1" vertex="1">
                    <mxGeometry x="569.48" y="-180" width="421.05" height="200" as="geometry"/>
                </mxCell>
                <mxCell id="yQwov3TaZiDcLpNl11WS-4" value="" style="endArrow=none;dashed=1;html=1;rounded=0;exitX=1;exitY=0.5;exitDx=0;exitDy=0;entryX=0;entryY=0.5;entryDx=0;entryDy=0;strokeWidth=6;" parent="1" source="fW3DbDXMhVstgkhlety4-16" target="yQwov3TaZiDcLpNl11WS-1" edge="1">
                    <mxGeometry width="50" height="50" relative="1" as="geometry">
                        <mxPoint x="610" y="150" as="sourcePoint"/>
                        <mxPoint x="660" y="100" as="targetPoint"/>
                    </mxGeometry>
                </mxCell>
                <mxCell id="yQwov3TaZiDcLpNl11WS-5" value="&lt;blockquote style=&quot;margin: 0 0 0 40px ; border: none ; padding: 0px&quot;&gt;&lt;font style=&quot;font-size: 18px&quot;&gt;&lt;b&gt;Step 2&amp;nbsp;&lt;/b&gt;Resulted:&lt;br&gt;&lt;/font&gt;&lt;font&gt;&lt;span style=&quot;font-size: 18px&quot;&gt;43,000,000 results&lt;/span&gt;&lt;/font&gt;&lt;/blockquote&gt;" style="rounded=0;whiteSpace=wrap;html=1;align=left;strokeWidth=6;" parent="1" vertex="1">
                    <mxGeometry x="560" y="50" width="440" height="80" as="geometry"/>
                </mxCell>
                <mxCell id="yQwov3TaZiDcLpNl11WS-6" value="" style="endArrow=none;dashed=1;html=1;rounded=0;exitX=1;exitY=0.5;exitDx=0;exitDy=0;strokeWidth=6;" parent="1" source="fW3DbDXMhVstgkhlety4-19" target="yQwov3TaZiDcLpNl11WS-5" edge="1">
                    <mxGeometry width="50" height="50" relative="1" as="geometry">
                        <mxPoint x="710" y="10" as="sourcePoint"/>
                        <mxPoint x="760" y="-40" as="targetPoint"/>
                    </mxGeometry>
                </mxCell>
                <mxCell id="UFGJ3yfaCtgyiJpkKNep-3" value="" style="endArrow=none;dashed=1;html=1;rounded=0;exitX=1;exitY=0.5;exitDx=0;exitDy=0;entryX=0;entryY=0.5;entryDx=0;entryDy=0;strokeWidth=6;" parent="1" source="hJ8yra2tZuNN3HJui-E2-2" target="hJ8yra2tZuNN3HJui-E2-18" edge="1">
                    <mxGeometry width="50" height="50" relative="1" as="geometry">
                        <mxPoint x="410.00000000000045" y="880.0000000000005" as="sourcePoint"/>
                        <mxPoint x="590" y="880.0000000000005" as="targetPoint"/>
                    </mxGeometry>
                </mxCell>
                <mxCell id="UFGJ3yfaCtgyiJpkKNep-4" value="" style="endArrow=none;dashed=1;html=1;rounded=0;exitX=1;exitY=0.5;exitDx=0;exitDy=0;entryX=0;entryY=0.5;entryDx=0;entryDy=0;strokeWidth=6;" parent="1" source="hJ8yra2tZuNN3HJui-E2-10" target="hJ8yra2tZuNN3HJui-E2-19" edge="1">
                    <mxGeometry width="50" height="50" relative="1" as="geometry">
                        <mxPoint x="425.00000000000045" y="1000.4400000000005" as="sourcePoint"/>
                        <mxPoint x="605" y="1000.4400000000005" as="targetPoint"/>
                        <Array as="points"/>
                    </mxGeometry>
                </mxCell>
                <mxCell id="UFGJ3yfaCtgyiJpkKNep-5" value="" style="endArrow=none;dashed=1;html=1;rounded=0;exitX=1;exitY=0.5;exitDx=0;exitDy=0;entryX=0;entryY=0.5;entryDx=0;entryDy=0;strokeWidth=6;" parent="1" source="bF6Con31p_uxn-oNIRWd-4" target="hJ8yra2tZuNN3HJui-E2-23" edge="1">
                    <mxGeometry width="50" height="50" relative="1" as="geometry">
                        <mxPoint x="427.50000000000045" y="950.0000000000005" as="sourcePoint"/>
                        <mxPoint x="571" y="950.0000000000005" as="targetPoint"/>
                    </mxGeometry>
                </mxCell>
                <mxCell id="UFGJ3yfaCtgyiJpkKNep-6" value="" style="endArrow=none;dashed=1;html=1;rounded=0;exitX=1;exitY=0.5;exitDx=0;exitDy=0;entryX=0;entryY=0.5;entryDx=0;entryDy=0;strokeWidth=6;" parent="1" source="bF6Con31p_uxn-oNIRWd-5" target="hJ8yra2tZuNN3HJui-E2-25" edge="1">
                    <mxGeometry width="50" height="50" relative="1" as="geometry">
                        <mxPoint x="435.00000000000045" y="1220.0000000000005" as="sourcePoint"/>
                        <mxPoint x="566.5000000000005" y="1220.0000000000005" as="targetPoint"/>
                    </mxGeometry>
                </mxCell>
                <mxCell id="UFGJ3yfaCtgyiJpkKNep-7" value="" style="endArrow=none;dashed=1;html=1;rounded=0;exitX=1;exitY=0.5;exitDx=0;exitDy=0;entryX=0;entryY=0.5;entryDx=0;entryDy=0;strokeWidth=6;" parent="1" source="bF6Con31p_uxn-oNIRWd-6" target="hJ8yra2tZuNN3HJui-E2-27" edge="1">
                    <mxGeometry width="50" height="50" relative="1" as="geometry">
                        <mxPoint x="432.50000000000045" y="1345" as="sourcePoint"/>
                        <mxPoint x="566.5000000000005" y="1345" as="targetPoint"/>
                    </mxGeometry>
                </mxCell>
            </root>
        </mxGraphModel>
    </diagram>
</mxfile>